twenty-first-bold.ufo
<glyph name="exclam" format="2">
  <advance width="296"/>
  <unicode hex="0021"/>
  <outline>
    <component base="period" xOffset="11" yOffset="-1"/>
    <contour>
      <point x="177" y="228" type="line"/>
      <point x="181" y="337"/>
      <point x="191" y="415"/>
      <point x="210" y="479" type="curve" smooth="yes"/>
      <point x="242" y="589"/>
      <point x="244" y="598"/>
      <point x="244" y="637" type="curve" smooth="yes"/>
      <point x="244" y="700"/>
      <point x="210" y="737"/>
      <point x="150" y="737" type="curve" smooth="yes"/>
      <point x="91" y="737"/>
      <point x="57" y="700"/>
      <point x="57" y="637" type="curve" smooth="yes"/>
      <point x="57" y="611"/>
      <point x="62" y="578"/>
      <point x="71" y="548" type="curve" smooth="yes"/>
      <point x="111" y="416"/>
      <point x="118" y="373"/>
      <point x="124" y="228" type="curve"/>
    </contour>
  </outline>
</glyph>
<glyph name="parenleft" format="2">
  <advance width="389"/>
  <unicode hex="0028"/>
  <outline>
    <contour>
      <point x="338" y="-68" type="line"/>
      <point x="289" y="-33"/>
      <point x="266" y="-7"/>
      <point x="244" y="41" type="curve" smooth="yes"/>
      <point x="213" y="108"/>
      <point x="197" y="200"/>
      <point x="197" y="310" type="curve" smooth="yes"/>
      <point x="197" y="408"/>
      <point x="210" y="492"/>
      <point x="236" y="558" type="curve" smooth="yes"/>
      <point x="259" y="618"/>
      <point x="283" y="648"/>
      <point x="338" y="687" type="curve"/>
      <point x="338" y="737" type="line"/>
      <point x="271" y="702"/>
      <point x="233" y="673"/>
      <point x="188" y="621" type="curve" smooth="yes"/>
      <point x="113" y="533"/>
      <point x="72" y="424"/>
      <point x="72" y="310" type="curve" smooth="yes"/>
      <point x="72" y="203"/>
      <point x="107" y="101"/>
      <point x="173" y="17" type="curve" smooth="yes"/>
      <point x="220" y="-43"/>
      <point x="265" y="-80"/>
      <point x="338" y="-118" type="curve"/>
    </contour>
  </outline>
</glyph>
<glyph name="parenright" format="2">
  <advance width="389"/>
  <unicode hex="0029"/>
  <outline>
    <contour>
      <point x="50" y="687" type="line"/>
      <point x="99" y="652"/>
      <point x="122" y="626"/>
      <point x="144" y="578" type="curve" smooth="yes"/>
      <point x="175" y="511"/>
      <point x="191" y="419"/>
      <point x="191" y="310" type="curve" smooth="yes"/>
      <point x="191" y="211"/>
      <point x="178" y="127"/>
      <point x="152" y="61" type="curve" smooth="yes"/>
      <point x="129" y="1"/>
      <point x="105" y="-30"/>
      <point x="50" y="-68" type="curve"/>
      <point x="50" y="-118" type="line"/>
      <point x="117" y="-83"/>
      <point x="155" y="-54"/>
      <point x="200" y="-2" type="curve" smooth="yes"/>
      <point x="275" y="86"/>
      <point x="316" y="195"/>
      <point x="316" y="310" type="curve" smooth="yes"/>
      <point x="316" y="416"/>
      <point x="281" y="518"/>
      <point x="215" y="602" type="curve" smooth="yes"/>
      <point x="168" y="663"/>
      <point x="123" y="699"/>
      <point x="50" y="737" type="curve"/>
    </contour>
  </outline>
</glyph>
<glyph name="hyphen" format="2">
  <advance width="333"/>
  <unicode hex="002D"/>
  <unicode hex="00AD"/>
  <unicode hex="2011"/>
  <outline>
    <contour>
      <point x="42" y="310" type="line"/>
      <point x="42" y="180" type="line"/>
      <point x="291" y="180" type="line"/>
      <point x="291" y="310" type="line"/>
    </contour>
  </outline>
</glyph>
<glyph name="slash" format="2">
  <advance width="278"/>
  <unicode hex="002F"/>
  <outline>
    <contour>
      <point x="228" y="737" type="line"/>
      <point x="-23" y="-15" type="line"/>
      <point x="51" y="-15" type="line"/>
      <point x="302" y="737" type="line"/>
    </contour>
  </outline>
</glyph>
<glyph name="one" format="2">
  <advance width="574"/>
  <unicode hex="0031"/>
  <outline>
    <contour>
      <point x="371" y="708" type="line"/>
      <point x="336" y="708" type="line"/>
      <point x="273" y="661"/>
      <point x="202" y="641"/>
      <point x="83" y="639" type="curve"/>
      <point x="83" y="583" type="line"/>
      <point x="125" y="583" type="line" smooth="yes"/>
      <point x="214" y="583"/>
      <point x="215" y="581"/>
      <point x="214" y="499" type="curve"/>
      <point x="214" y="144" type="line" smooth="yes"/>
      <point x="214" y="82"/>
      <point x="214" y="79"/>
      <point x="207" y="69" type="curve"/>
      <point x="198" y="58"/>
      <point x="178" y="54"/>
      <point x="124" y="54" type="curve" smooth="yes"/>
      <point x="92" y="54" type="line"/>
      <point x="92" y="0" type="line"/>
      <point x="491" y="0" type="line"/>
      <point x="491" y="54" type="line"/>
      <point x="459" y="54" type="line" smooth="yes"/>
      <point x="406" y="54"/>
      <point x="387" y="58"/>
      <point x="378" y="69" type="curve"/>
      <point x="371" y="79"/>
      <point x="371" y="83"/>
      <point x="371" y="144" type="curve" smooth="yes"/>
    </contour>
  </outline>
</glyph>
<glyph name="three" format="2">
  <advance width="574"/>
  <unicode hex="0033"/>
  <outline>
    <contour>
      <point x="351" y="368" type="curve"/>
      <point x="390" y="378"/>
      <point x="407" y="384"/>
      <point x="429" y="395" type="curve" smooth="yes"/>
      <point x="482" y="423"/>
      <point x="512" y="472"/>
      <point x="512" y="531" type="curve" smooth="yes"/>
      <point x="512" y="637"/>
      <point x="418" y="708"/>
      <point x="276" y="708" type="curve" smooth="yes"/>
      <point x="203" y="708"/>
      <point x="144" y="689"/>
      <point x="102" y="652" type="curve" smooth="yes"/>
      <point x="69" y="623"/>
      <point x="49" y="581"/>
      <point x="49" y="543" type="curve" smooth="yes"/>
      <point x="49" y="491"/>
      <point x="88" y="452"/>
      <point x="139" y="452" type="curve" smooth="yes"/>
      <point x="187" y="452"/>
      <point x="220" y="484"/>
      <point x="220" y="531" type="curve" smooth="yes"/>
      <point x="220" y="558"/>
      <point x="209" y="579"/>
      <point x="181" y="606" type="curve" smooth="yes"/>
      <point x="176" y="611"/>
      <point x="174" y="614"/>
      <point x="174" y="618" type="curve" smooth="yes"/>
      <point x="174" y="637"/>
      <point x="211" y="656"/>
      <point x="250" y="656" type="curve" smooth="yes"/>
      <point x="313" y="656"/>
      <point x="350" y="610"/>
      <point x="350" y="532" type="curve" smooth="yes"/>
      <point x="350" y="445"/>
      <point x="321" y="392"/>
      <point x="272" y="392" type="curve" smooth="yes"/>
      <point x="264" y="392"/>
      <point x="254" y="393"/>
      <point x="238" y="397" type="curve" smooth="yes"/>
      <point x="216" y="402"/>
      <point x="209" y="403"/>
      <point x="198" y="403" type="curve" smooth="yes"/>
      <point x="173" y="403"/>
      <point x="161" y="392"/>
      <point x="161" y="370" type="curve" smooth="yes"/>
      <point x="161" y="347"/>
      <point x="176" y="332"/>
      <point x="197" y="332" type="curve" smooth="yes"/>
      <point x="204" y="332"/>
      <point x="210" y="333"/>
      <point x="227" y="335" type="curve" smooth="yes"/>
      <point x="250" y="337"/>
      <point x="256" y="338"/>
      <point x="263" y="338" type="curve" smooth="yes"/>
      <point x="325" y="338"/>
      <point x="356" y="290"/>
      <point x="356" y="196" type="curve" smooth="yes"/>
      <point x="356" y="95"/>
      <point x="314" y="38"/>
      <point x="240" y="38" type="curve" smooth="yes"/>
      <point x="198" y="38"/>
      <point x="154" y="59"/>
      <point x="154" y="80" type="curve" smooth="yes"/>
      <point x="154" y="86"/>
      <point x="157" y="92"/>
      <point x="163" y="98" type="curve" smooth="yes"/>
      <point x="193" y="126"/>
      <point x="200" y="139"/>
      <point x="200" y="168" type="curve" smooth="yes"/>
      <point x="200" y="215"/>
      <point x="163" y="251"/>
      <point x="114" y="251" type="curve" smooth="yes"/>
      <point x="60" y="251"/>
      <point x="24" y="212"/>
      <point x="24" y="156" type="curve" smooth="yes"/>
      <point x="24" y="55"/>
      <point x="122" y="-14"/>
      <point x="266" y="-14" type="curve" smooth="yes"/>
      <point x="339" y="-14"/>
      <point x="408" y="4"/>
      <point x="454" y="36" type="curve" smooth="yes"/>
      <point x="500" y="68"/>
      <point x="530" y="129"/>
      <point x="530" y="193" type="curve" smooth="yes"/>
      <point x="530" y="256"/>
      <point x="502" y="311"/>
      <point x="456" y="338" type="curve" smooth="yes"/>
      <point x="427" y="354"/>
      <point x="404" y="361"/>
    </contour>
  </outline>
</glyph>
<glyph name="four" format="2">
  <advance width="574"/>
  <unicode hex="0034"/>
  <outline>
    <contour>
      <point x="446" y="248" type="line"/>
      <point x="446" y="556" type="line" smooth="yes"/>
      <point x="446" y="571"/>
      <point x="448" y="636"/>
      <point x="452" y="708" type="curve"/>
      <point x="383" y="708" type="line"/>
      <point x="19" y="255" type="line"/>
      <point x="19" y="181" type="line"/>
      <point x="289" y="181" type="line"/>
      <point x="289" y="144" type="line" smooth="yes"/>
      <point x="289" y="82"/>
      <point x="289" y="78"/>
      <point x="282" y="68" type="curve"/>
      <point x="274" y="58"/>
      <point x="253" y="54"/>
      <point x="206" y="54" type="curve" smooth="yes"/>
      <point x="195" y="54" type="line"/>
      <point x="195" y="0" type="line"/>
      <point x="536" y="0" type="line"/>
      <point x="536" y="54" type="line"/>
      <point x="525" y="54" type="line" smooth="yes"/>
      <point x="481" y="55"/>
      <point x="460" y="59"/>
      <point x="453" y="68" type="curve"/>
      <point x="446" y="79"/>
      <point x="446" y="82"/>
      <point x="446" y="144" type="curve" smooth="yes"/>
      <point x="446" y="181" type="line"/>
      <point x="546" y="181" type="line"/>
      <point x="546" y="248" type="line"/>
    </contour>
    <contour>
      <point x="289" y="248" type="line"/>
      <point x="92" y="248" type="line"/>
      <point x="289" y="498" type="line"/>
    </contour>
  </outline>
</glyph>
<glyph name="six" format="2">
  <advance width="574"/>
  <unicode hex="0036"/>
  <outline>
    <contour>
      <point x="202" y="361" type="curve"/>
      <point x="202" y="409"/>
      <point x="212" y="489"/>
      <point x="222" y="530" type="curve" smooth="yes"/>
      <point x="245" y="612"/>
      <point x="283" y="656"/>
      <point x="334" y="656" type="curve" smooth="yes"/>
      <point x="359" y="656"/>
      <point x="377" y="647"/>
      <point x="377" y="633" type="curve" smooth="yes"/>
      <point x="377" y="626"/>
      <point x="376" y="623"/>
      <point x="369" y="614" type="curve" smooth="yes"/>
      <point x="356" y="597"/>
      <point x="349" y="575"/>
      <point x="349" y="555" type="curve" smooth="yes"/>
      <point x="349" y="510"/>
      <point x="385" y="478"/>
      <point x="437" y="478" type="curve" smooth="yes"/>
      <point x="494" y="478"/>
      <point x="530" y="513"/>
      <point x="530" y="568" type="curve" smooth="yes"/>
      <point x="530" y="654"/>
      <point x="457" y="708"/>
      <point x="343" y="708" type="curve" smooth="yes"/>
      <point x="247" y="708"/>
      <point x="173" y="671"/>
      <point x="115" y="594" type="curve" smooth="yes"/>
      <point x="56" y="517"/>
      <point x="29" y="425"/>
      <point x="29" y="306" type="curve" smooth="yes"/>
      <point x="29" y="206"/>
      <point x="50" y="135"/>
      <point x="97" y="77" type="curve" smooth="yes"/>
      <point x="146" y="17"/>
      <point x="213" y="-14"/>
      <point x="295" y="-14" type="curve" smooth="yes"/>
      <point x="442" y="-14"/>
      <point x="549" y="85"/>
      <point x="549" y="223" type="curve" smooth="yes"/>
      <point x="549" y="343"/>
      <point x="467" y="427"/>
      <point x="348" y="427" type="curve" smooth="yes"/>
      <point x="283" y="427"/>
      <point x="244" y="409"/>
    </contour>
    <contour>
      <point x="296" y="352" type="curve" smooth="yes"/>
      <point x="348" y="350"/>
      <point x="375" y="302"/>
      <point x="375" y="212" type="curve" smooth="yes"/>
      <point x="375" y="96"/>
      <point x="346" y="33"/>
      <point x="293" y="33" type="curve" smooth="yes"/>
      <point x="239" y="33"/>
      <point x="208" y="91"/>
      <point x="208" y="194" type="curve" smooth="yes"/>
      <point x="208" y="230"/>
      <point x="211" y="261"/>
      <point x="216" y="284" type="curve" smooth="yes"/>
      <point x="227" y="327"/>
      <point x="258" y="354"/>
    </contour>
  </outline>
</glyph>
<glyph name="seven" format="2">
  <advance width="574"/>
  <unicode hex="0037"/>
  <outline>
    <contour>
      <point x="546" y="708" type="line"/>
      <point x="479" y="697"/>
      <point x="423" y="694"/>
      <point x="319" y="694" type="curve" smooth="yes"/>
      <point x="224" y="694"/>
      <point x="187" y="696"/>
      <point x="79" y="708" type="curve"/>
      <point x="45" y="409" type="line"/>
      <point x="100" y="403" type="line"/>
      <point x="110" y="448" type="line" smooth="yes"/>
      <point x="129" y="536"/>
      <point x="136" y="549"/>
      <point x="172" y="549" type="curve" smooth="yes"/>
      <point x="176" y="549"/>
      <point x="182" y="549"/>
      <point x="189" y="548" type="curve"/>
      <point x="217" y="547"/>
      <point x="279" y="545"/>
      <point x="303" y="545" type="curve" smooth="yes"/>
      <point x="313" y="545"/>
      <point x="346" y="546"/>
      <point x="396" y="547" type="curve" smooth="yes"/>
      <point x="435" y="548" type="line"/>
      <point x="367" y="447" type="line"/>
      <point x="317" y="369" type="line" smooth="yes"/>
      <point x="239" y="247"/>
      <point x="239" y="247"/>
      <point x="215" y="192" type="curve" smooth="yes"/>
      <point x="195" y="148"/>
      <point x="187" y="115"/>
      <point x="187" y="84" type="curve" smooth="yes"/>
      <point x="187" y="24"/>
      <point x="223" y="-14"/>
      <point x="279" y="-14" type="curve" smooth="yes"/>
      <point x="342" y="-14"/>
      <point x="378" y="25"/>
      <point x="378" y="96" type="curve" smooth="yes"/>
      <point x="377" y="281"/>
      <point x="397" y="349"/>
      <point x="546" y="666" type="curve"/>
    </contour>
  </outline>
</glyph>
<glyph name="eight" format="2">
  <advance width="574"/>
  <unicode hex="0038"/>
  <outline>
    <contour>
      <point x="403" y="411" type="curve"/>
      <point x="432" y="422"/>
      <point x="446" y="429"/>
      <point x="460" y="439" type="curve" smooth="yes"/>
      <point x="499" y="466"/>
      <point x="521" y="507"/>
      <point x="521" y="554" type="curve" smooth="yes"/>
      <point x="521" y="646"/>
      <point x="434" y="708"/>
      <point x="304" y="708" type="curve" smooth="yes"/>
      <point x="149" y="708"/>
      <point x="49" y="625"/>
      <point x="49" y="495" type="curve" smooth="yes"/>
      <point x="49" y="416"/>
      <point x="86" y="358"/>
      <point x="165" y="316" type="curve"/>
      <point x="134" y="306"/>
      <point x="121" y="302"/>
      <point x="104" y="293" type="curve" smooth="yes"/>
      <point x="54" y="267"/>
      <point x="27" y="221"/>
      <point x="27" y="163" type="curve" smooth="yes"/>
      <point x="27" y="55"/>
      <point x="124" y="-14"/>
      <point x="276" y="-14" type="curve" smooth="yes"/>
      <point x="437" y="-14"/>
      <point x="546" y="78"/>
      <point x="546" y="215" type="curve" smooth="yes"/>
      <point x="546" y="309"/>
      <point x="500" y="371"/>
    </contour>
    <contour>
      <point x="347" y="432" type="curve"/>
      <point x="305" y="442"/>
      <point x="274" y="451"/>
      <point x="255" y="458" type="curve" smooth="yes"/>
      <point x="209" y="475"/>
      <point x="179" y="516"/>
      <point x="179" y="560" type="curve" smooth="yes"/>
      <point x="179" y="615"/>
      <point x="225" y="656"/>
      <point x="287" y="656" type="curve" smooth="yes"/>
      <point x="354" y="656"/>
      <point x="396" y="612"/>
      <point x="396" y="542" type="curve" smooth="yes"/>
      <point x="396" y="497"/>
      <point x="379" y="459"/>
    </contour>
    <contour>
      <point x="219" y="289" type="curve"/>
      <point x="260" y="278"/>
      <point x="310" y="263"/>
      <point x="335" y="255" type="curve" smooth="yes"/>
      <point x="398" y="233"/>
      <point x="422" y="206"/>
      <point x="422" y="155" type="curve" smooth="yes"/>
      <point x="422" y="87"/>
      <point x="366" y="38"/>
      <point x="287" y="38" type="curve" smooth="yes"/>
      <point x="206" y="38"/>
      <point x="157" y="86"/>
      <point x="157" y="166" type="curve" smooth="yes"/>
      <point x="157" y="219"/>
      <point x="174" y="253"/>
    </contour>
  </outline>
</glyph>
<glyph name="nine" format="2">
  <advance width="574"/>
  <unicode hex="0039"/>
  <outline>
    <contour>
      <point x="369" y="329" type="curve"/>
      <point x="369" y="242"/>
      <point x="363" y="190"/>
      <point x="349" y="143" type="curve" smooth="yes"/>
      <point x="325" y="71"/>
      <point x="289" y="38"/>
      <point x="231" y="38" type="curve" smooth="yes"/>
      <point x="210" y="38"/>
      <point x="198" y="45"/>
      <point x="198" y="58" type="curve" smooth="yes"/>
      <point x="198" y="64"/>
      <point x="200" y="70"/>
      <point x="204" y="76" type="curve" smooth="yes"/>
      <point x="222" y="105"/>
      <point x="224" y="111"/>
      <point x="224" y="133" type="curve" smooth="yes"/>
      <point x="224" y="181"/>
      <point x="190" y="214"/>
      <point x="140" y="214" type="curve" smooth="yes"/>
      <point x="85" y="214"/>
      <point x="45" y="172"/>
      <point x="45" y="114" type="curve" smooth="yes"/>
      <point x="45" y="36"/>
      <point x="118" y="-14"/>
      <point x="231" y="-14" type="curve" smooth="yes"/>
      <point x="334" y="-14"/>
      <point x="417" y="28"/>
      <point x="470" y="107" type="curve" smooth="yes"/>
      <point x="519" y="181"/>
      <point x="545" y="276"/>
      <point x="545" y="386" type="curve" smooth="yes"/>
      <point x="545" y="478"/>
      <point x="525" y="546"/>
      <point x="483" y="603" type="curve" smooth="yes"/>
      <point x="432" y="671"/>
      <point x="359" y="708"/>
      <point x="275" y="708" type="curve" smooth="yes"/>
      <point x="130" y="708"/>
      <point x="25" y="607"/>
      <point x="25" y="468" type="curve" smooth="yes"/>
      <point x="25" y="350"/>
      <point x="109" y="263"/>
      <point x="223" y="263" type="curve" smooth="yes"/>
      <point x="285" y="263"/>
      <point x="327" y="282"/>
    </contour>
    <contour>
      <point x="283" y="656" type="curve" smooth="yes"/>
      <point x="309" y="656"/>
      <point x="331" y="640"/>
      <point x="343" y="611" type="curve" smooth="yes"/>
      <point x="356" y="582"/>
      <point x="365" y="529"/>
      <point x="365" y="482" type="curve" smooth="yes"/>
      <point x="365" y="394"/>
      <point x="333" y="338"/>
      <point x="282" y="338" type="curve" smooth="yes"/>
      <point x="254" y="338"/>
      <point x="227" y="355"/>
      <point x="215" y="381" type="curve" smooth="yes"/>
      <point x="203" y="406"/>
      <point x="198" y="441"/>
      <point x="198" y="491" type="curve" smooth="yes"/>
      <point x="198" y="600"/>
      <point x="227" y="656"/>
    </contour>
  </outline>
</glyph>
<glyph name="less" format="2">
  <advance width="606"/>
  <unicode hex="003C"/>
  <outline>
    <contour>
      <point x="558" y="505" type="line"/>
      <point x="558" y="630" type="line"/>
      <point x="49" y="398" type="line"/>
      <point x="49" y="308" type="line"/>
      <point x="558" y="76" type="line"/>
      <point x="558" y="202" type="line"/>
      <point x="230" y="354" type="line"/>
    </contour>
  </outline>
</glyph>
<glyph name="equal" format="2">
  <advance width="606"/>
  <unicode hex="003D"/>
  <outline>
    <contour>
      <point x="51" y="92" type="line"/>
      <point x="555" y="92" type="line"/>
      <point x="555" y="207" type="line"/>
      <point x="51" y="207" type="line"/>
    </contour>
    <contour>
      <point x="51" y="298" type="line"/>
      <point x="555" y="298" type="line"/>
      <point x="555" y="413" type="line"/>
      <point x="51" y="413" type="line"/>
    </contour>
  </outline>
</glyph>
<glyph name="greater" format="2">
  <advance width="606"/>
  <unicode hex="003E"/>
  <outline>
    <contour>
      <point x="48" y="505" type="line"/>
      <point x="376" y="354" type="line"/>
      <point x="48" y="202" type="line"/>
      <point x="48" y="76" type="line"/>
      <point x="557" y="308" type="line"/>
      <point x="557" y="398" type="line"/>
      <point x="48" y="630" type="line"/>
    </contour>
  </outline>
</glyph>
<glyph name="B" format="2">
  <advance width="778"/>
  <unicode hex="0042"/>
  <outline>
    <contour>
      <point x="17" y="722" type="line"/>
      <point x="17" y="668" type="line"/>
      <point x="32" y="668" type="line" smooth="yes"/>
      <point x="86" y="668"/>
      <point x="105" y="664"/>
      <point x="114" y="654" type="curve"/>
      <point x="121" y="643"/>
      <point x="121" y="640"/>
      <point x="121" y="578" type="curve" smooth="yes"/>
      <point x="121" y="144" type="line" smooth="yes"/>
      <point x="121" y="82"/>
      <point x="121" y="79"/>
      <point x="114" y="69" type="curve"/>
      <point x="105" y="58"/>
      <point x="85" y="54"/>
      <point x="32" y="54" type="curve" smooth="yes"/>
      <point x="17" y="54" type="line"/>
      <point x="17" y="0" type="line"/>
      <point x="422" y="0" type="line" smooth="yes"/>
      <point x="526" y="0"/>
      <point x="579" y="8"/>
      <point x="631" y="31" type="curve" smooth="yes"/>
      <point x="694" y="59"/>
      <point x="736" y="122"/>
      <point x="736" y="190" type="curve" smooth="yes"/>
      <point x="736" y="260"/>
      <point x="696" y="315"/>
      <point x="622" y="349" type="curve" smooth="yes"/>
      <point x="588" y="365"/>
      <point x="559" y="373"/>
      <point x="506" y="380" type="curve"/>
      <point x="555" y="388"/>
      <point x="583" y="395"/>
      <point x="611" y="408" type="curve" smooth="yes"/>
      <point x="671" y="437"/>
      <point x="703" y="485"/>
      <point x="703" y="545" type="curve" smooth="yes"/>
      <point x="703" y="602"/>
      <point x="673" y="655"/>
      <point x="624" y="682" type="curve" smooth="yes"/>
      <point x="569" y="713"/>
      <point x="521" y="722"/>
      <point x="403" y="722" type="curve" smooth="yes"/>
    </contour>
    <contour>
      <point x="301" y="398" type="line"/>
      <point x="301" y="610" type="line" smooth="yes"/>
      <point x="299" y="652"/>
      <point x="313" y="666"/>
      <point x="357" y="668" type="curve" smooth="yes"/>
      <point x="387" y="668" type="line" smooth="yes"/>
      <point x="475" y="668"/>
      <point x="522" y="624"/>
      <point x="522" y="541" type="curve" smooth="yes"/>
      <point x="522" y="492"/>
      <point x="505" y="453"/>
      <point x="473" y="428" type="curve" smooth="yes"/>
      <point x="446" y="406"/>
      <point x="412" y="398"/>
      <point x="350" y="398" type="curve" smooth="yes"/>
    </contour>
    <contour>
      <point x="301" y="343" type="line"/>
      <point x="370" y="343" type="line" smooth="yes"/>
      <point x="433" y="343"/>
      <point x="462" y="337"/>
      <point x="490" y="319" type="curve" smooth="yes"/>
      <point x="525" y="296"/>
      <point x="545" y="252"/>
      <point x="545" y="200" type="curve" smooth="yes"/>
      <point x="545" y="152"/>
      <point x="527" y="108"/>
      <point x="498" y="84" type="curve" smooth="yes"/>
      <point x="473" y="64"/>
      <point x="440" y="54"/>
      <point x="392" y="54" type="curve" smooth="yes"/>
      <point x="362" y="54" type="line" smooth="yes"/>
      <point x="305" y="56"/>
      <point x="299" y="62"/>
      <point x="301" y="118" type="curve" smooth="yes"/>
    </contour>
  </outline>
</glyph>
<glyph name="C" format="2">
  <advance width="778"/>
  <unicode hex="0043"/>
  <outline>
    <contour>
      <point x="698" y="733" type="line"/>
      <point x="655" y="733" type="line"/>
      <point x="601" y="684" type="line"/>
      <point x="535" y="724"/>
      <point x="490" y="737"/>
      <point x="418" y="737" type="curve" smooth="yes"/>
      <point x="306" y="737"/>
      <point x="213" y="699"/>
      <point x="141" y="622" type="curve" smooth="yes"/>
      <point x="73" y="550"/>
      <point x="40" y="461"/>
      <point x="40" y="352" type="curve" smooth="yes"/>
      <point x="40" y="248"/>
      <point x="70" y="166"/>
      <point x="135" y="95" type="curve" smooth="yes"/>
      <point x="204" y="19"/>
      <point x="288" y="-15"/>
      <point x="406" y="-15" type="curve" smooth="yes"/>
      <point x="583" y="-15"/>
      <point x="684" y="70"/>
      <point x="723" y="250" type="curve"/>
      <point x="661" y="265" type="line"/>
      <point x="634" y="126"/>
      <point x="554" y="47"/>
      <point x="439" y="47" type="curve" smooth="yes"/>
      <point x="303" y="47"/>
      <point x="239" y="150"/>
      <point x="239" y="370" type="curve" smooth="yes"/>
      <point x="239" y="578"/>
      <point x="303" y="685"/>
      <point x="426" y="685" type="curve" smooth="yes"/>
      <point x="537" y="685"/>
      <point x="610" y="608"/>
      <point x="655" y="441" type="curve"/>
      <point x="708" y="447" type="line"/>
    </contour>
  </outline>
</glyph>
<glyph name="F" format="2">
  <advance width="722"/>
  <unicode hex="0046"/>
  <outline>
    <contour>
      <point x="684" y="722" type="line"/>
      <point x="22" y="722" type="line"/>
      <point x="22" y="668" type="line"/>
      <point x="37" y="668" type="line" smooth="yes"/>
      <point x="90" y="668"/>
      <point x="110" y="664"/>
      <point x="119" y="653" type="curve"/>
      <point x="126" y="643"/>
      <point x="126" y="640"/>
      <point x="126" y="578" type="curve" smooth="yes"/>
      <point x="126" y="144" type="line" smooth="yes"/>
      <point x="126" y="82"/>
      <point x="126" y="79"/>
      <point x="119" y="69" type="curve"/>
      <point x="110" y="58"/>
      <point x="90" y="54"/>
      <point x="37" y="54" type="curve" smooth="yes"/>
      <point x="22" y="54" type="line"/>
      <point x="22" y="0" type="line"/>
      <point x="422" y="0" type="line"/>
      <point x="422" y="54" type="line"/>
      <point x="396" y="54" type="line" smooth="yes"/>
      <point x="342" y="54"/>
      <point x="322" y="58"/>
      <point x="313" y="69" type="curve"/>
      <point x="306" y="79"/>
      <point x="306" y="82"/>
      <point x="306" y="144" type="curve" smooth="yes"/>
      <point x="306" y="346" type="line"/>
      <point x="323" y="346" type="line" smooth="yes"/>
      <point x="402" y="345"/>
      <point x="450" y="296"/>
      <point x="461" y="204" type="curve"/>
      <point x="515" y="204" type="line"/>
      <point x="515" y="543" type="line"/>
      <point x="461" y="543" type="line"/>
      <point x="450" y="450"/>
      <point x="402" y="401"/>
      <point x="323" y="401" type="curve" smooth="yes"/>
      <point x="306" y="401" type="line"/>
      <point x="306" y="582" type="line" smooth="yes"/>
      <point x="304" y="652"/>
      <point x="318" y="667"/>
      <point x="392" y="668" type="curve" smooth="yes"/>
      <point x="411" y="668" type="line" smooth="yes"/>
      <point x="536" y="666"/>
      <point x="596" y="611"/>
      <point x="638" y="462" type="curve"/>
      <point x="690" y="462" type="line"/>
    </contour>
  </outline>
</glyph>
<glyph name="I" format="2">
  <advance width="444"/>
  <unicode hex="0049"/>
  <outline>
    <contour>
      <point x="28" y="0" type="line"/>
      <point x="417" y="0" type="line"/>
      <point x="417" y="54" type="line"/>
      <point x="402" y="54" type="line" smooth="yes"/>
      <point x="348" y="54"/>
      <point x="328" y="58"/>
      <point x="319" y="69" type="curve"/>
      <point x="312" y="79"/>
      <point x="312" y="82"/>
      <point x="312" y="144" type="curve" smooth="yes"/>
      <point x="312" y="578" type="line" smooth="yes"/>
      <point x="312" y="640"/>
      <point x="312" y="643"/>
      <point x="319" y="653" type="curve"/>
      <point x="328" y="664"/>
      <point x="348" y="668"/>
      <point x="402" y="668" type="curve" smooth="yes"/>
      <point x="417" y="668" type="line"/>
      <point x="417" y="722" type="line"/>
      <point x="28" y="722" type="line"/>
      <point x="28" y="668" type="line"/>
      <point x="43" y="668" type="line" smooth="yes"/>
      <point x="96" y="668"/>
      <point x="116" y="664"/>
      <point x="125" y="653" type="curve"/>
      <point x="132" y="643"/>
      <point x="132" y="640"/>
      <point x="132" y="578" type="curve" smooth="yes"/>
      <point x="132" y="144" type="line" smooth="yes"/>
      <point x="132" y="82"/>
      <point x="132" y="79"/>
      <point x="125" y="69" type="curve"/>
      <point x="116" y="58"/>
      <point x="96" y="54"/>
      <point x="43" y="54" type="curve" smooth="yes"/>
      <point x="28" y="54" type="line"/>
    </contour>
  </outline>
</glyph>
<glyph name="L" format="2">
  <advance width="722"/>
  <unicode hex="004C"/>
  <outline>
    <contour>
      <point x="648" y="269" type="line"/>
      <point x="607" y="121"/>
      <point x="536" y="56"/>
      <point x="414" y="54" type="curve" smooth="yes"/>
      <point x="393" y="54" type="line" smooth="yes"/>
      <point x="320" y="52"/>
      <point x="302" y="66"/>
      <point x="303" y="125" type="curve" smooth="yes"/>
      <point x="303" y="578" type="line" smooth="yes"/>
      <point x="303" y="640"/>
      <point x="303" y="643"/>
      <point x="310" y="653" type="curve"/>
      <point x="319" y="664"/>
      <point x="338" y="668"/>
      <point x="393" y="668" type="curve" smooth="yes"/>
      <point x="415" y="668" type="line"/>
      <point x="415" y="722" type="line"/>
      <point x="19" y="722" type="line"/>
      <point x="19" y="668" type="line"/>
      <point x="34" y="668" type="line" smooth="yes"/>
      <point x="88" y="668"/>
      <point x="107" y="664"/>
      <point x="116" y="653" type="curve"/>
      <point x="123" y="643"/>
      <point x="123" y="640"/>
      <point x="123" y="578" type="curve" smooth="yes"/>
      <point x="123" y="145" type="line" smooth="yes"/>
      <point x="123" y="82"/>
      <point x="123" y="79"/>
      <point x="116" y="69" type="curve"/>
      <point x="107" y="58"/>
      <point x="87" y="54"/>
      <point x="34" y="54" type="curve" smooth="yes"/>
      <point x="19" y="54" type="line"/>
      <point x="19" y="0" type="line"/>
      <point x="689" y="0" type="line"/>
      <point x="701" y="269" type="line"/>
    </contour>
  </outline>
</glyph>
<glyph name="M" format="2">
  <advance width="981"/>
  <unicode hex="004D"/>
  <unicode hex="039C"/>
  <unicode hex="041C"/>
  <outline>
    <contour>
      <point x="338" y="722" type="line"/>
      <point x="16" y="722" type="line"/>
      <point x="16" y="668" type="line"/>
      <point x="27" y="668" type="line" smooth="yes"/>
      <point x="81" y="668"/>
      <point x="102" y="664"/>
      <point x="110" y="653" type="curve" smooth="yes"/>
      <point x="117" y="643"/>
      <point x="117" y="640"/>
      <point x="117" y="578" type="curve" smooth="yes"/>
      <point x="117" y="217" type="line" smooth="yes"/>
      <point x="119" y="88"/>
      <point x="100" y="59"/>
      <point x="9" y="54" type="curve"/>
      <point x="9" y="0" type="line"/>
      <point x="294" y="0" type="line"/>
      <point x="294" y="54" type="line"/>
      <point x="201" y="59"/>
      <point x="182" y="88"/>
      <point x="184" y="217" type="curve" smooth="yes"/>
      <point x="184" y="633" type="line"/>
      <point x="411" y="0" type="line"/>
      <point x="463" y="0" type="line"/>
      <point x="684" y="643" type="line"/>
      <point x="684" y="144" type="line" smooth="yes"/>
      <point x="684" y="82"/>
      <point x="684" y="79"/>
      <point x="677" y="69" type="curve"/>
      <point x="668" y="58"/>
      <point x="648" y="54"/>
      <point x="594" y="54" type="curve" smooth="yes"/>
      <point x="583" y="54" type="line"/>
      <point x="583" y="0" type="line"/>
      <point x="965" y="0" type="line"/>
      <point x="965" y="54" type="line"/>
      <point x="954" y="54" type="line" smooth="yes"/>
      <point x="900" y="54"/>
      <point x="880" y="58"/>
      <point x="871" y="69" type="curve" smooth="yes"/>
      <point x="864" y="78"/>
      <point x="864" y="83"/>
      <point x="864" y="144" type="curve" smooth="yes"/>
      <point x="864" y="578" type="line" smooth="yes"/>
      <point x="864" y="639"/>
      <point x="864" y="644"/>
      <point x="871" y="653" type="curve" smooth="yes"/>
      <point x="880" y="664"/>
      <point x="900" y="668"/>
      <point x="954" y="668" type="curve" smooth="yes"/>
      <point x="965" y="668" type="line"/>
      <point x="965" y="722" type="line"/>
      <point x="639" y="722" type="line"/>
      <point x="493" y="292" type="line"/>
    </contour>
  </outline>
</glyph>
<glyph name="R" format="2">
  <advance width="815"/>
  <unicode hex="0052"/>
  <outline>
    <contour>
      <point x="304" y="347" type="line"/>
      <point x="360" y="347" type="line" smooth="yes"/>
      <point x="439" y="346"/>
      <point x="470" y="317"/>
      <point x="473" y="237" type="curve" smooth="yes"/>
      <point x="476" y="198" type="line" smooth="yes"/>
      <point x="482" y="123"/>
      <point x="485" y="105"/>
      <point x="495" y="78" type="curve" smooth="yes"/>
      <point x="519" y="16"/>
      <point x="569" y="-15"/>
      <point x="647" y="-15" type="curve" smooth="yes"/>
      <point x="755" y="-15"/>
      <point x="817" y="45"/>
      <point x="817" y="152" type="curve" smooth="yes"/>
      <point x="817" y="164" type="line"/>
      <point x="763" y="164" type="line"/>
      <point x="762" y="101"/>
      <point x="747" y="69"/>
      <point x="717" y="69" type="curve" smooth="yes"/>
      <point x="706" y="69"/>
      <point x="694" y="75"/>
      <point x="688" y="83" type="curve"/>
      <point x="682" y="92"/>
      <point x="681" y="99"/>
      <point x="676" y="131" type="curve"/>
      <point x="676" y="136"/>
      <point x="674" y="145"/>
      <point x="672" y="159" type="curve" smooth="yes"/>
      <point x="665" y="197" type="line" smooth="yes"/>
      <point x="650" y="287"/>
      <point x="612" y="332"/>
      <point x="525" y="361" type="curve"/>
      <point x="578" y="371"/>
      <point x="604" y="378"/>
      <point x="629" y="390" type="curve" smooth="yes"/>
      <point x="690" y="421"/>
      <point x="725" y="476"/>
      <point x="725" y="541" type="curve" smooth="yes"/>
      <point x="725" y="601"/>
      <point x="696" y="652"/>
      <point x="644" y="686" type="curve" smooth="yes"/>
      <point x="606" y="710"/>
      <point x="539" y="722"/>
      <point x="447" y="722" type="curve" smooth="yes"/>
      <point x="20" y="722" type="line"/>
      <point x="20" y="668" type="line"/>
      <point x="35" y="668" type="line" smooth="yes"/>
      <point x="89" y="668"/>
      <point x="108" y="664"/>
      <point x="117" y="654" type="curve"/>
      <point x="124" y="643"/>
      <point x="124" y="640"/>
      <point x="124" y="578" type="curve" smooth="yes"/>
      <point x="124" y="145" type="line" smooth="yes"/>
      <point x="124" y="83"/>
      <point x="124" y="79"/>
      <point x="117" y="69" type="curve"/>
      <point x="108" y="58"/>
      <point x="88" y="55"/>
      <point x="35" y="54" type="curve" smooth="yes"/>
      <point x="20" y="54" type="line"/>
      <point x="20" y="0" type="line"/>
      <point x="420" y="0" type="line"/>
      <point x="420" y="54" type="line"/>
      <point x="394" y="54" type="line" smooth="yes"/>
      <point x="341" y="55"/>
      <point x="320" y="58"/>
      <point x="311" y="69" type="curve"/>
      <point x="304" y="79"/>
      <point x="304" y="83"/>
      <point x="304" y="145" type="curve" smooth="yes"/>
    </contour>
    <contour>
      <point x="304" y="402" type="line"/>
      <point x="304" y="604" type="line" smooth="yes"/>
      <point x="303" y="659"/>
      <point x="311" y="667"/>
      <point x="375" y="668" type="curve" smooth="yes"/>
      <point x="399" y="668" type="line" smooth="yes"/>
      <point x="493" y="668"/>
      <point x="534" y="627"/>
      <point x="534" y="535" type="curve" smooth="yes"/>
      <point x="534" y="434"/>
      <point x="492" y="402"/>
      <point x="359" y="402" type="curve" smooth="yes"/>
    </contour>
  </outline>
</glyph>
<glyph name="S" format="2">
  <advance width="667"/>
  <unicode hex="0053"/>
  <unicode hex="0405"/>
  <outline>
    <contour>
      <point x="588" y="729" type="line"/>
      <point x="543" y="729" type="line"/>
      <point x="491" y="683" type="line"/>
      <point x="433" y="721"/>
      <point x="381" y="737"/>
      <point x="312" y="737" type="curve" smooth="yes"/>
      <point x="157" y="737"/>
      <point x="52" y="647"/>
      <point x="52" y="514" type="curve" smooth="yes"/>
      <point x="52" y="392"/>
      <point x="142" y="305"/>
      <point x="299" y="276" type="curve" smooth="yes"/>
      <point x="361" y="264" type="line" smooth="yes"/>
      <point x="426" y="252"/>
      <point x="445" y="247"/>
      <point x="469" y="234" type="curve" smooth="yes"/>
      <point x="497" y="219"/>
      <point x="513" y="190"/>
      <point x="513" y="154" type="curve" smooth="yes"/>
      <point x="513" y="83"/>
      <point x="456" y="37"/>
      <point x="369" y="37" type="curve" smooth="yes"/>
      <point x="256" y="37"/>
      <point x="157" y="126"/>
      <point x="102" y="276" type="curve"/>
      <point x="51" y="276" type="line"/>
      <point x="57" y="-7" type="line"/>
      <point x="102" y="-7" type="line"/>
      <point x="164" y="52" type="line"/>
      <point x="225" y="6"/>
      <point x="288" y="-15"/>
      <point x="369" y="-15" type="curve" smooth="yes"/>
      <point x="525" y="-15"/>
      <point x="633" y="82"/>
      <point x="633" y="223" type="curve" smooth="yes"/>
      <point x="633" y="350"/>
      <point x="558" y="421"/>
      <point x="385" y="459" type="curve" smooth="yes"/>
      <point x="337" y="470" type="line" smooth="yes"/>
      <point x="260" y="485"/>
      <point x="260" y="485"/>
      <point x="235" y="494" type="curve" smooth="yes"/>
      <point x="189" y="510"/>
      <point x="167" y="539"/>
      <point x="167" y="581" type="curve" smooth="yes"/>
      <point x="167" y="642"/>
      <point x="223" y="685"/>
      <point x="302" y="685" type="curve" smooth="yes"/>
      <point x="406" y="685"/>
      <point x="488" y="613"/>
      <point x="548" y="470" type="curve"/>
      <point x="601" y="470" type="line"/>
    </contour>
  </outline>
</glyph>
<glyph name="T" format="2">
  <advance width="722"/>
  <unicode hex="0054"/>
  <unicode hex="03A4"/>
  <unicode hex="0422"/>
  <outline>
    <contour>
      <point x="692" y="722" type="line"/>
      <point x="30" y="722" type="line"/>
      <point x="15" y="451" type="line"/>
      <point x="68" y="451" type="line"/>
      <point x="81" y="525"/>
      <point x="95" y="564"/>
      <point x="119" y="599" type="curve" smooth="yes"/>
      <point x="151" y="647"/>
      <point x="188" y="670"/>
      <point x="235" y="670" type="curve" smooth="yes"/>
      <point x="265" y="670"/>
      <point x="271" y="663"/>
      <point x="271" y="630" type="curve" smooth="yes"/>
      <point x="271" y="144" type="line" smooth="yes"/>
      <point x="271" y="82"/>
      <point x="271" y="79"/>
      <point x="264" y="69" type="curve"/>
      <point x="255" y="58"/>
      <point x="235" y="54"/>
      <point x="181" y="54" type="curve" smooth="yes"/>
      <point x="159" y="54" type="line"/>
      <point x="159" y="0" type="line"/>
      <point x="563" y="0" type="line"/>
      <point x="563" y="54" type="line"/>
      <point x="541" y="54" type="line" smooth="yes"/>
      <point x="487" y="54"/>
      <point x="467" y="58"/>
      <point x="458" y="69" type="curve" smooth="yes"/>
      <point x="451" y="78"/>
      <point x="451" y="83"/>
      <point x="451" y="144" type="curve" smooth="yes"/>
      <point x="451" y="630" type="line" smooth="yes"/>
      <point x="451" y="663"/>
      <point x="457" y="670"/>
      <point x="487" y="670" type="curve" smooth="yes"/>
      <point x="530" y="670"/>
      <point x="563" y="652"/>
      <point x="595" y="611" type="curve" smooth="yes"/>
      <point x="623" y="575"/>
      <point x="639" y="533"/>
      <point x="654" y="451" type="curve"/>
      <point x="707" y="451" type="line"/>
    </contour>
  </outline>
</glyph>
<glyph name="U" format="2">
  <advance width="833"/>
  <unicode hex="0055"/>
  <outline>
    <contour>
      <point x="15" y="668" type="line"/>
      <point x="30" y="668" type="line" smooth="yes"/>
      <point x="83" y="668"/>
      <point x="103" y="664"/>
      <point x="112" y="653" type="curve"/>
      <point x="119" y="643"/>
      <point x="119" y="640"/>
      <point x="119" y="578" type="curve" smooth="yes"/>
      <point x="119" y="261" type="line" smooth="yes"/>
      <point x="119" y="177"/>
      <point x="126" y="135"/>
      <point x="145" y="100" type="curve" smooth="yes"/>
      <point x="186" y="25"/>
      <point x="283" y="-15"/>
      <point x="424" y="-15" type="curve" smooth="yes"/>
      <point x="552" y="-15"/>
      <point x="629" y="19"/>
      <point x="678" y="96" type="curve" smooth="yes"/>
      <point x="706" y="142"/>
      <point x="714" y="185"/>
      <point x="714" y="304" type="curve" smooth="yes"/>
      <point x="714" y="505" type="line" smooth="yes"/>
      <point x="712" y="634"/>
      <point x="731" y="663"/>
      <point x="824" y="668" type="curve"/>
      <point x="824" y="722" type="line"/>
      <point x="539" y="722" type="line"/>
      <point x="539" y="668" type="line"/>
      <point x="630" y="663"/>
      <point x="649" y="634"/>
      <point x="647" y="505" type="curve"/>
      <point x="647" y="304" type="line" smooth="yes"/>
      <point x="647" y="222"/>
      <point x="643" y="183"/>
      <point x="630" y="155" type="curve" smooth="yes"/>
      <point x="601" y="92"/>
      <point x="544" y="60"/>
      <point x="460" y="60" type="curve" smooth="yes"/>
      <point x="402" y="60"/>
      <point x="360" y="76"/>
      <point x="332" y="109" type="curve" smooth="yes"/>
      <point x="310" y="136"/>
      <point x="299" y="185"/>
      <point x="299" y="258" type="curve" smooth="yes"/>
      <point x="299" y="578" type="line" smooth="yes"/>
      <point x="299" y="640"/>
      <point x="299" y="643"/>
      <point x="306" y="653" type="curve"/>
      <point x="315" y="664"/>
      <point x="335" y="668"/>
      <point x="389" y="668" type="curve" smooth="yes"/>
      <point x="404" y="668" type="line"/>
      <point x="404" y="722" type="line"/>
      <point x="15" y="722" type="line"/>
    </contour>
  </outline>
</glyph>
<glyph name="Z" format="2">
  <advance width="667"/>
  <unicode hex="005A"/>
  <unicode hex="0396"/>
  <outline>
    <contour>
      <point x="634" y="722" type="line"/>
      <point x="61" y="722" type="line"/>
      <point x="49" y="470" type="line"/>
      <point x="100" y="470" type="line"/>
      <point x="150" y="623"/>
      <point x="210" y="670"/>
      <point x="351" y="667" type="curve" smooth="yes"/>
      <point x="425" y="667" type="line"/>
      <point x="24" y="58" type="line"/>
      <point x="24" y="0" type="line"/>
      <point x="617" y="0" type="line"/>
      <point x="634" y="276" type="line"/>
      <point x="581" y="276" type="line"/>
      <point x="572" y="223"/>
      <point x="554" y="181"/>
      <point x="523" y="138" type="curve" smooth="yes"/>
      <point x="470" y="70"/>
      <point x="429" y="54"/>
      <point x="322" y="55" type="curve" smooth="yes"/>
      <point x="233" y="55" type="line"/>
      <point x="634" y="666" type="line"/>
    </contour>
  </outline>
</glyph>
<glyph name="backslash" format="2">
  <advance width="606"/>
  <unicode hex="005C"/>
  <outline>
    <contour>
      <point x="124" y="737" type="line"/>
      <point x="50" y="737" type="line"/>
      <point x="481" y="0" type="line"/>
      <point x="555" y="0" type="line"/>
    </contour>
  </outline>
</glyph>
<glyph name="bracketright" format="2">
  <advance width="389"/>
  <unicode hex="005D"/>
  <outline>
    <contour>
      <point x="31" y="-108" type="line"/>
      <point x="286" y="-108" type="line"/>
      <point x="286" y="722" type="line"/>
      <point x="31" y="722" type="line"/>
      <point x="31" y="672" type="line"/>
      <point x="163" y="672" type="line"/>
      <point x="163" y="-58" type="line"/>
      <point x="31" y="-58" type="line"/>
    </contour>
  </outline>
</glyph>
<glyph name="grave" format="2">
  <advance width="333"/>
  <unicode hex="0060"/>
  <outline>
    <contour>
      <point x="249" y="545" type="line"/>
      <point x="136" y="683" type="line" smooth="yes"/>
      <point x="101" y="726"/>
      <point x="89" y="734"/>
      <point x="59" y="734" type="curve" smooth="yes"/>
      <point x="27" y="734"/>
      <point x="2" y="712"/>
      <point x="2" y="684" type="curve" smooth="yes"/>
      <point x="2" y="663"/>
      <point x="14" y="646"/>
      <point x="38" y="632" type="curve" smooth="yes"/>
      <point x="185" y="545" type="line"/>
    </contour>
  </outline>
</glyph>
<glyph name="d" format="2">
  <advance width="667"/>
  <unicode hex="0064"/>
  <outline>
    <contour>
      <point x="568" y="737" type="line"/>
      <point x="315" y="722" type="line"/>
      <point x="315" y="671" type="line"/>
      <point x="347" y="671" type="line" smooth="yes"/>
      <point x="409" y="671"/>
      <point x="411" y="667"/>
      <point x="411" y="578" type="curve" smooth="yes"/>
      <point x="411" y="421" type="line"/>
      <point x="373" y="467"/>
      <point x="328" y="488"/>
      <point x="266" y="488" type="curve" smooth="yes"/>
      <point x="136" y="488"/>
      <point x="37" y="375"/>
      <point x="37" y="229" type="curve" smooth="yes"/>
      <point x="37" y="84"/>
      <point x="126" y="-15"/>
      <point x="256" y="-15" type="curve" smooth="yes"/>
      <point x="328" y="-15"/>
      <point x="379" y="12"/>
      <point x="420" y="72" type="curve"/>
      <point x="420" y="0" type="line"/>
      <point x="654" y="11" type="line"/>
      <point x="654" y="65" type="line"/>
      <point x="627" y="65" type="line" smooth="yes"/>
      <point x="576" y="63"/>
      <point x="568" y="70"/>
      <point x="568" y="122" type="curve" smooth="yes"/>
    </contour>
    <contour>
      <point x="311" y="420" type="curve" smooth="yes"/>
      <point x="373" y="420"/>
      <point x="413" y="349"/>
      <point x="413" y="237" type="curve" smooth="yes"/>
      <point x="413" y="128"/>
      <point x="371" y="53"/>
      <point x="309" y="53" type="curve" smooth="yes"/>
      <point x="245" y="53"/>
      <point x="210" y="116"/>
      <point x="210" y="231" type="curve" smooth="yes"/>
      <point x="210" y="351"/>
      <point x="247" y="420"/>
    </contour>
  </outline>
</glyph>
<glyph name="f" format="2">
  <advance width="389"/>
  <unicode hex="0066"/>
  <outline>
    <contour>
      <point x="383" y="473" type="line"/>
      <point x="258" y="473" type="line"/>
      <point x="258" y="530" type="line" smooth="yes"/>
      <point x="258" y="597"/>
      <point x="260" y="619"/>
      <point x="270" y="641" type="curve" smooth="yes"/>
      <point x="280" y="664"/>
      <point x="303" y="681"/>
      <point x="323" y="681" type="curve" smooth="yes"/>
      <point x="333" y="681"/>
      <point x="339" y="678"/>
      <point x="339" y="673" type="curve" smooth="yes"/>
      <point x="339" y="670"/>
      <point x="338" y="668"/>
      <point x="334" y="664" type="curve"/>
      <point x="319" y="652"/>
      <point x="309" y="631"/>
      <point x="309" y="611" type="curve" smooth="yes"/>
      <point x="309" y="572"/>
      <point x="342" y="542"/>
      <point x="384" y="542" type="curve" smooth="yes"/>
      <point x="430" y="542"/>
      <point x="464" y="577"/>
      <point x="464" y="624" type="curve" smooth="yes"/>
      <point x="464" y="686"/>
      <point x="402" y="733"/>
      <point x="319" y="733" type="curve" smooth="yes"/>
      <point x="188" y="733"/>
      <point x="101" y="634"/>
      <point x="101" y="486" type="curve" smooth="yes"/>
      <point x="101" y="473" type="line"/>
      <point x="14" y="473" type="line"/>
      <point x="14" y="413" type="line"/>
      <point x="101" y="413" type="line"/>
      <point x="101" y="144" type="line"/>
      <point x="101" y="89" type="line"/>
      <point x="100" y="76"/>
      <point x="99" y="69"/>
      <point x="95" y="64" type="curve" smooth="yes"/>
      <point x="88" y="55"/>
      <point x="69" y="51"/>
      <point x="25" y="50" type="curve" smooth="yes"/>
      <point x="21" y="50" type="line"/>
      <point x="21" y="0" type="line"/>
      <point x="351" y="0" type="line"/>
      <point x="351" y="50" type="line"/>
      <point x="333" y="50" type="line" smooth="yes"/>
      <point x="267" y="52"/>
      <point x="258" y="57"/>
      <point x="258" y="94" type="curve" smooth="yes"/>
      <point x="258" y="144" type="line"/>
      <point x="258" y="413" type="line"/>
      <point x="383" y="413" type="line"/>
    </contour>
  </outline>
</glyph>
<glyph name="i" format="2">
  <advance width="370"/>
  <unicode hex="0069"/>
  <outline>
    <component base="dotlessi"/>
    <contour>
      <point x="182" y="737" type="curve" smooth="yes"/>
      <point x="133" y="737"/>
      <point x="93" y="697"/>
      <point x="93" y="649" type="curve" smooth="yes"/>
      <point x="93" y="600"/>
      <point x="133" y="560"/>
      <point x="180" y="560" type="curve" smooth="yes"/>
      <point x="231" y="560"/>
      <point x="270" y="599"/>
      <point x="270" y="649" type="curve" smooth="yes"/>
      <point x="270" y="697"/>
      <point x="230" y="737"/>
    </contour>
  </outline>
</glyph>
<glyph name="j" format="2">
  <advance width="352"/>
  <unicode hex="006A"/>
  <unicode hex="0458"/>
  <outline>
    <component base="jdotless"/>
    <contour>
      <point x="183" y="737" type="curve" smooth="yes"/>
      <point x="135" y="737"/>
      <point x="95" y="697"/>
      <point x="95" y="649" type="curve" smooth="yes"/>
      <point x="95" y="600"/>
      <point x="135" y="560"/>
      <point x="182" y="560" type="curve" smooth="yes"/>
      <point x="233" y="560"/>
      <point x="272" y="599"/>
      <point x="272" y="649" type="curve" smooth="yes"/>
      <point x="272" y="697"/>
      <point x="232" y="737"/>
    </contour>
  </outline>
</glyph>
<glyph name="k" format="2">
  <advance width="667"/>
  <unicode hex="006B"/>
  <outline>
    <contour>
      <point x="252" y="737" type="line"/>
      <point x="12" y="722" type="line"/>
      <point x="12" y="671" type="line"/>
      <point x="31" y="671" type="line" smooth="yes"/>
      <point x="92" y="671"/>
      <point x="96" y="666"/>
      <point x="95" y="578" type="curve"/>
      <point x="95" y="144" type="line"/>
      <point x="95" y="97" type="line"/>
      <point x="95" y="90" type="line"/>
      <point x="94" y="76"/>
      <point x="93" y="70"/>
      <point x="89" y="64" type="curve"/>
      <point x="82" y="55"/>
      <point x="63" y="51"/>
      <point x="19" y="51" type="curve" smooth="yes"/>
      <point x="15" y="51" type="line"/>
      <point x="15" y="0" type="line"/>
      <point x="320" y="0" type="line"/>
      <point x="320" y="51" type="line"/>
      <point x="264" y="51"/>
      <point x="251" y="59"/>
      <point x="252" y="94" type="curve" smooth="yes"/>
      <point x="252" y="144" type="line"/>
      <point x="252" y="172" type="line"/>
      <point x="298" y="213" type="line"/>
      <point x="390" y="101" type="line" smooth="yes"/>
      <point x="398" y="92"/>
      <point x="403" y="80"/>
      <point x="403" y="71" type="curve" smooth="yes"/>
      <point x="403" y="57"/>
      <point x="390" y="51"/>
      <point x="364" y="51" type="curve" smooth="yes"/>
      <point x="354" y="51" type="line"/>
      <point x="354" y="0" type="line"/>
      <point x="660" y="0" type="line"/>
      <point x="660" y="51" type="line"/>
      <point x="625" y="51"/>
      <point x="617" y="57"/>
      <point x="572" y="114" type="curve" smooth="yes"/>
      <point x="415" y="311" type="line"/>
      <point x="492" y="375" type="line" smooth="yes"/>
      <point x="531" y="409"/>
      <point x="561" y="422"/>
      <point x="600" y="422" type="curve" smooth="yes"/>
      <point x="623" y="422" type="line"/>
      <point x="623" y="473" type="line"/>
      <point x="329" y="473" type="line"/>
      <point x="329" y="422" type="line"/>
      <point x="341" y="422" type="line" smooth="yes"/>
      <point x="379" y="422"/>
      <point x="401" y="412"/>
      <point x="401" y="395" type="curve" smooth="yes"/>
      <point x="401" y="382"/>
      <point x="394" y="371"/>
      <point x="376" y="355" type="curve" smooth="yes"/>
      <point x="252" y="246" type="line"/>
    </contour>
  </outline>
</glyph>
<glyph name="l" format="2">
  <advance width="352"/>
  <unicode hex="006C"/>
  <outline>
    <contour>
      <point x="256" y="737" type="line"/>
      <point x="16" y="722" type="line"/>
      <point x="16" y="671" type="line"/>
      <point x="35" y="671" type="line" smooth="yes"/>
      <point x="96" y="671"/>
      <point x="100" y="666"/>
      <point x="99" y="578" type="curve"/>
      <point x="99" y="144" type="line"/>
      <point x="99" y="97" type="line"/>
      <point x="99" y="90" type="line"/>
      <point x="98" y="76"/>
      <point x="97" y="70"/>
      <point x="93" y="64" type="curve"/>
      <point x="86" y="55"/>
      <point x="67" y="51"/>
      <point x="23" y="51" type="curve" smooth="yes"/>
      <point x="19" y="51" type="line"/>
      <point x="19" y="0" type="line"/>
      <point x="331" y="0" type="line"/>
      <point x="331" y="51" type="line"/>
      <point x="324" y="51" type="line" smooth="yes"/>
      <point x="264" y="53"/>
      <point x="256" y="58"/>
      <point x="256" y="94" type="curve" smooth="yes"/>
      <point x="256" y="144" type="line"/>
    </contour>
  </outline>
</glyph>
<glyph name="m" format="2">
  <advance width="963"/>
  <unicode hex="006D"/>
  <outline>
    <contour>
      <point x="248" y="473" type="line"/>
      <point x="20" y="466" type="line"/>
      <point x="20" y="415" type="line"/>
      <point x="36" y="415" type="line" smooth="yes"/>
      <point x="98" y="414"/>
      <point x="101" y="410"/>
      <point x="100" y="321" type="curve"/>
      <point x="100" y="144" type="line"/>
      <point x="100" y="98" type="line"/>
      <point x="100" y="90" type="line"/>
      <point x="99" y="76"/>
      <point x="98" y="70"/>
      <point x="94" y="64" type="curve"/>
      <point x="87" y="55"/>
      <point x="68" y="51"/>
      <point x="25" y="51" type="curve" smooth="yes"/>
      <point x="20" y="51" type="line"/>
      <point x="20" y="0" type="line"/>
      <point x="315" y="0" type="line"/>
      <point x="315" y="51" type="line"/>
      <point x="255" y="53"/>
      <point x="255" y="53"/>
      <point x="257" y="144" type="curve" smooth="yes"/>
      <point x="257" y="278" type="line" smooth="yes"/>
      <point x="257" y="350"/>
      <point x="292" y="395"/>
      <point x="348" y="395" type="curve" smooth="yes"/>
      <point x="387" y="395"/>
      <point x="403" y="369"/>
      <point x="403" y="302" type="curve" smooth="yes"/>
      <point x="403" y="144" type="line" smooth="yes"/>
      <point x="405" y="53"/>
      <point x="404" y="53"/>
      <point x="346" y="51" type="curve"/>
      <point x="346" y="0" type="line"/>
      <point x="618" y="0" type="line"/>
      <point x="618" y="51" type="line"/>
      <point x="559" y="53"/>
      <point x="558" y="53"/>
      <point x="560" y="144" type="curve" smooth="yes"/>
      <point x="560" y="278" type="line" smooth="yes"/>
      <point x="560" y="349"/>
      <point x="596" y="395"/>
      <point x="651" y="395" type="curve" smooth="yes"/>
      <point x="689" y="395"/>
      <point x="706" y="368"/>
      <point x="706" y="306" type="curve" smooth="yes"/>
      <point x="706" y="144" type="line"/>
      <point x="706" y="116" type="line"/>
      <point x="706" y="89" type="line" smooth="yes"/>
      <point x="706" y="76"/>
      <point x="704" y="71"/>
      <point x="700" y="64" type="curve"/>
      <point x="692" y="54"/>
      <point x="681" y="51"/>
      <point x="648" y="51" type="curve"/>
      <point x="648" y="0" type="line"/>
      <point x="942" y="0" type="line"/>
      <point x="942" y="51" type="line"/>
      <point x="938" y="51" type="line" smooth="yes"/>
      <point x="872" y="52"/>
      <point x="863" y="57"/>
      <point x="863" y="94" type="curve" smooth="yes"/>
      <point x="863" y="144" type="line"/>
      <point x="863" y="343" type="line" smooth="yes"/>
      <point x="863" y="425"/>
      <point x="795" y="488"/>
      <point x="707" y="488" type="curve" smooth="yes"/>
      <point x="642" y="488"/>
      <point x="597" y="462"/>
      <point x="549" y="398" type="curve"/>
      <point x="527" y="455"/>
      <point x="475" y="488"/>
      <point x="408" y="488" type="curve" smooth="yes"/>
      <point x="341" y="488"/>
      <point x="288" y="457"/>
      <point x="248" y="394" type="curve"/>
    </contour>
  </outline>
</glyph>
<glyph name="q" format="2">
  <advance width="648"/>
  <unicode hex="0071"/>
  <outline>
    <contour>
      <point x="527" y="487" type="line"/>
      <point x="463" y="407" type="line"/>
      <point x="418" y="463"/>
      <point x="365" y="488"/>
      <point x="289" y="488" type="curve" smooth="yes"/>
      <point x="143" y="488"/>
      <point x="34" y="379"/>
      <point x="34" y="233" type="curve" smooth="yes"/>
      <point x="34" y="166"/>
      <point x="58" y="94"/>
      <point x="94" y="53" type="curve" smooth="yes"/>
      <point x="130" y="12"/>
      <point x="192" y="-15"/>
      <point x="250" y="-15" type="curve" smooth="yes"/>
      <point x="313" y="-15"/>
      <point x="361" y="8"/>
      <point x="404" y="58" type="curve"/>
      <point x="404" y="-58" type="line"/>
      <point x="404" y="-112" type="line"/>
      <point x="403" y="-126"/>
      <point x="402" y="-132"/>
      <point x="398" y="-138" type="curve" smooth="yes"/>
      <point x="392" y="-147"/>
      <point x="372" y="-151"/>
      <point x="328" y="-152" type="curve" smooth="yes"/>
      <point x="317" y="-152" type="line"/>
      <point x="317" y="-202" type="line"/>
      <point x="640" y="-202" type="line"/>
      <point x="640" y="-152" type="line"/>
      <point x="636" y="-152" type="line" smooth="yes"/>
      <point x="570" y="-150"/>
      <point x="561" y="-145"/>
      <point x="561" y="-108" type="curve" smooth="yes"/>
      <point x="561" y="-58" type="line"/>
      <point x="561" y="272" type="line" smooth="yes"/>
      <point x="560" y="321"/>
      <point x="567" y="412"/>
      <point x="576" y="487" type="curve"/>
    </contour>
    <contour>
      <point x="308" y="436" type="curve" smooth="yes"/>
      <point x="342" y="436"/>
      <point x="374" y="411"/>
      <point x="390" y="372" type="curve" smooth="yes"/>
      <point x="402" y="342"/>
      <point x="407" y="307"/>
      <point x="407" y="253" type="curve" smooth="yes"/>
      <point x="407" y="129"/>
      <point x="368" y="53"/>
      <point x="303" y="53" type="curve" smooth="yes"/>
      <point x="240" y="53"/>
      <point x="207" y="116"/>
      <point x="207" y="236" type="curve" smooth="yes"/>
      <point x="207" y="368"/>
      <point x="241" y="436"/>
    </contour>
  </outline>
</glyph>
<glyph name="r" format="2">
  <advance width="519"/>
  <unicode hex="0072"/>
  <outline>
    <contour>
      <point x="241" y="473" type="line"/>
      <point x="18" y="466" type="line"/>
      <point x="18" y="415" type="line"/>
      <point x="33" y="415" type="line" smooth="yes"/>
      <point x="95" y="414"/>
      <point x="98" y="410"/>
      <point x="97" y="318" type="curve"/>
      <point x="97" y="144" type="line"/>
      <point x="97" y="90" type="line"/>
      <point x="96" y="76"/>
      <point x="95" y="70"/>
      <point x="91" y="64" type="curve"/>
      <point x="84" y="55"/>
      <point x="65" y="51"/>
      <point x="22" y="51" type="curve" smooth="yes"/>
      <point x="18" y="51" type="line"/>
      <point x="18" y="0" type="line"/>
      <point x="352" y="0" type="line"/>
      <point x="352" y="51" type="line"/>
      <point x="330" y="51" type="line" smooth="yes"/>
      <point x="263" y="52"/>
      <point x="255" y="57"/>
      <point x="255" y="94" type="curve" smooth="yes"/>
      <point x="255" y="144" type="line"/>
      <point x="255" y="164" type="line" smooth="yes"/>
      <point x="259" y="312"/>
      <point x="301" y="403"/>
      <point x="373" y="422" type="curve"/>
      <point x="360" y="404"/>
      <point x="356" y="393"/>
      <point x="356" y="375" type="curve" smooth="yes"/>
      <point x="356" y="332"/>
      <point x="388" y="301"/>
      <point x="431" y="301" type="curve" smooth="yes"/>
      <point x="480" y="301"/>
      <point x="517" y="338"/>
      <point x="517" y="387" type="curve" smooth="yes"/>
      <point x="517" y="445"/>
      <point x="471" y="488"/>
      <point x="407" y="488" type="curve" smooth="yes"/>
      <point x="330" y="488"/>
      <point x="276" y="444"/>
      <point x="241" y="352" type="curve"/>
    </contour>
  </outline>
</glyph>
<glyph name="v" format="2">
  <advance width="611"/>
  <unicode hex="0076"/>
  <outline>
    <contour>
      <point x="357" y="140" type="line"/>
      <point x="250" y="374" type="line" smooth="yes"/>
      <point x="245" y="385"/>
      <point x="242" y="394"/>
      <point x="242" y="400" type="curve" smooth="yes"/>
      <point x="242" y="416"/>
      <point x="256" y="423"/>
      <point x="294" y="422" type="curve"/>
      <point x="294" y="473" type="line"/>
      <point x="12" y="473" type="line"/>
      <point x="12" y="422" type="line"/>
      <point x="49" y="421"/>
      <point x="59" y="413"/>
      <point x="80" y="370" type="curve" smooth="yes"/>
      <point x="264" y="-14" type="line"/>
      <point x="349" y="-14" type="line"/>
      <point x="503" y="334" type="line" smooth="yes"/>
      <point x="531" y="402"/>
      <point x="554" y="423"/>
      <point x="598" y="422" type="curve"/>
      <point x="598" y="473" type="line"/>
      <point x="371" y="473" type="line"/>
      <point x="371" y="422" type="line"/>
      <point x="426" y="423"/>
      <point x="448" y="412"/>
      <point x="448" y="383" type="curve" smooth="yes"/>
      <point x="448" y="369"/>
      <point x="446" y="363"/>
      <point x="430" y="323" type="curve" smooth="yes"/>
    </contour>
  </outline>
</glyph>
<glyph name="braceleft" format="2">
  <advance width="389"/>
  <unicode hex="007B"/>
  <outline>
    <contour>
      <point x="84" y="285" type="line"/>
      <point x="150" y="270"/>
      <point x="162" y="248"/>
      <point x="160" y="152" type="curve"/>
      <point x="160" y="42" type="line"/>
      <point x="159" y="-68"/>
      <point x="190" y="-103"/>
      <point x="291" y="-108" type="curve" smooth="yes"/>
      <point x="343" y="-108" type="line"/>
      <point x="343" y="-62" type="line"/>
      <point x="287" y="-55"/>
      <point x="280" y="-41"/>
      <point x="283" y="64" type="curve" smooth="yes"/>
      <point x="283" y="182" type="line" smooth="yes"/>
      <point x="282" y="260"/>
      <point x="258" y="290"/>
      <point x="181" y="307" type="curve"/>
      <point x="258" y="324"/>
      <point x="282" y="354"/>
      <point x="283" y="432" type="curve" smooth="yes"/>
      <point x="283" y="550" type="line" smooth="yes"/>
      <point x="280" y="655"/>
      <point x="287" y="669"/>
      <point x="343" y="676" type="curve"/>
      <point x="343" y="722" type="line"/>
      <point x="291" y="722" type="line" smooth="yes"/>
      <point x="190" y="717"/>
      <point x="159" y="682"/>
      <point x="160" y="572" type="curve" smooth="yes"/>
      <point x="160" y="462" type="line" smooth="yes"/>
      <point x="162" y="366"/>
      <point x="150" y="344"/>
      <point x="84" y="329" type="curve"/>
    </contour>
  </outline>
</glyph>
<glyph name="bar" format="2">
  <advance width="606"/>
  <unicode hex="007C"/>
  <outline>
    <contour>
      <point x="362" y="722" type="line"/>
      <point x="243" y="722" type="line"/>
      <point x="243" y="-244" type="line"/>
      <point x="362" y="-244" type="line"/>
    </contour>
  </outline>
</glyph>
<glyph name="braceright" format="2">
  <advance width="389"/>
  <unicode hex="007D"/>
  <outline>
    <contour>
      <point x="290" y="329" type="line"/>
      <point x="226" y="344"/>
      <point x="214" y="366"/>
      <point x="216" y="462" type="curve" smooth="yes"/>
      <point x="216" y="572" type="line" smooth="yes"/>
      <point x="217" y="682"/>
      <point x="186" y="717"/>
      <point x="85" y="722" type="curve" smooth="yes"/>
      <point x="31" y="722" type="line"/>
      <point x="31" y="676" type="line"/>
      <point x="89" y="669"/>
      <point x="96" y="655"/>
      <point x="93" y="550" type="curve"/>
      <point x="93" y="432" type="line" smooth="yes"/>
      <point x="94" y="354"/>
      <point x="118" y="324"/>
      <point x="195" y="307" type="curve"/>
      <point x="118" y="290"/>
      <point x="94" y="260"/>
      <point x="93" y="182" type="curve"/>
      <point x="93" y="64" type="line" smooth="yes"/>
      <point x="96" y="-41"/>
      <point x="89" y="-55"/>
      <point x="31" y="-62" type="curve"/>
      <point x="31" y="-108" type="line"/>
      <point x="85" y="-108" type="line" smooth="yes"/>
      <point x="186" y="-104"/>
      <point x="217" y="-68"/>
      <point x="216" y="42" type="curve" smooth="yes"/>
      <point x="216" y="152" type="line" smooth="yes"/>
      <point x="214" y="248"/>
      <point x="226" y="270"/>
      <point x="290" y="285" type="curve"/>
    </contour>
  </outline>
</glyph>
<glyph name="asciitilde" format="2">
  <advance width="606"/>
  <unicode hex="007E"/>
  <outline>
    <contour>
      <point x="135" y="169" type="line"/>
      <point x="163" y="209"/>
      <point x="178" y="221"/>
      <point x="203" y="221" type="curve" smooth="yes"/>
      <point x="218" y="221"/>
      <point x="223" y="219"/>
      <point x="268" y="202" type="curve" smooth="yes"/>
      <point x="321" y="183" type="line" smooth="yes"/>
      <point x="366" y="166"/>
      <point x="388" y="160"/>
      <point x="411" y="160" type="curve" smooth="yes"/>
      <point x="466" y="160"/>
      <point x="515" y="198"/>
      <point x="555" y="273" type="curve"/>
      <point x="471" y="326" type="line"/>
      <point x="443" y="286"/>
      <point x="428" y="274"/>
      <point x="404" y="274" type="curve" smooth="yes"/>
      <point x="389" y="274"/>
      <point x="381" y="276"/>
      <point x="337" y="293" type="curve" smooth="yes"/>
      <point x="285" y="312" type="line" smooth="yes"/>
      <point x="239" y="330"/>
      <point x="218" y="335"/>
      <point x="196" y="335" type="curve" smooth="yes"/>
      <point x="140" y="335"/>
      <point x="92" y="298"/>
      <point x="51" y="222" type="curve"/>
    </contour>
  </outline>
</glyph>
<glyph name="exclamdown" format="2">
  <advance width="296"/>
  <unicode hex="00A1"/>
  <outline>
    <contour>
      <point x="120" y="306" type="line"/>
      <point x="117" y="198"/>
      <point x="106" y="118"/>
      <point x="87" y="55" type="curve" smooth="yes"/>
      <point x="55" y="-55"/>
      <point x="53" y="-64"/>
      <point x="53" y="-103" type="curve" smooth="yes"/>
      <point x="53" y="-166"/>
      <point x="87" y="-203"/>
      <point x="147" y="-203" type="curve" smooth="yes"/>
      <point x="206" y="-203"/>
      <point x="240" y="-166"/>
      <point x="240" y="-103" type="curve" smooth="yes"/>
      <point x="240" y="-77"/>
      <point x="235" y="-44"/>
      <point x="226" y="-14" type="curve" smooth="yes"/>
      <point x="186" y="121"/>
      <point x="180" y="160"/>
      <point x="174" y="306" type="curve"/>
    </contour>
    <contour>
      <point x="148" y="549" type="curve" smooth="yes"/>
      <point x="95" y="549"/>
      <point x="53" y="507"/>
      <point x="53" y="455" type="curve" smooth="yes"/>
      <point x="53" y="403"/>
      <point x="95" y="361"/>
      <point x="147" y="361" type="curve" smooth="yes"/>
      <point x="199" y="361"/>
      <point x="241" y="403"/>
      <point x="241" y="455" type="curve" smooth="yes"/>
      <point x="241" y="506"/>
      <point x="199" y="549"/>
    </contour>
  </outline>
</glyph>
<glyph name="cent" format="2">
  <advance width="574"/>
  <unicode hex="00A2"/>
  <outline>
    <contour>
      <point x="522" y="567" type="line"/>
      <point x="466" y="567" type="line"/>
      <point x="415" y="474" type="line"/>
      <point x="386" y="483"/>
      <point x="353" y="488"/>
      <point x="320" y="488" type="curve" smooth="yes"/>
      <point x="157" y="488"/>
      <point x="36" y="378"/>
      <point x="36" y="229" type="curve" smooth="yes"/>
      <point x="36" y="138"/>
      <point x="82" y="62"/>
      <point x="165" y="16" type="curve"/>
      <point x="98" y="-107" type="line"/>
      <point x="156" y="-107" type="line"/>
      <point x="213" y="-3" type="line"/>
      <point x="238" y="-11"/>
      <point x="264" y="-14"/>
      <point x="295" y="-14" type="curve" smooth="yes"/>
      <point x="419" y="-14"/>
      <point x="493" y="39"/>
      <point x="534" y="158" type="curve"/>
      <point x="482" y="174" type="line"/>
      <point x="457" y="96"/>
      <point x="408" y="54"/>
      <point x="339" y="54" type="curve" smooth="yes"/>
      <point x="305" y="54"/>
      <point x="278" y="64"/>
      <point x="259" y="83" type="curve"/>
      <point x="372" y="291" type="line"/>
      <point x="389" y="274"/>
      <point x="410" y="265"/>
      <point x="436" y="265" type="curve" smooth="yes"/>
      <point x="486" y="265"/>
      <point x="523" y="302"/>
      <point x="523" y="353" type="curve" smooth="yes"/>
      <point x="523" y="395"/>
      <point x="503" y="428"/>
      <point x="460" y="454" type="curve"/>
    </contour>
    <contour>
      <point x="229" y="133" type="line"/>
      <point x="214" y="173"/>
      <point x="209" y="201"/>
      <point x="209" y="241" type="curve" smooth="yes"/>
      <point x="209" y="361"/>
      <point x="256" y="436"/>
      <point x="331" y="436" type="curve" smooth="yes"/>
      <point x="360" y="436"/>
      <point x="384" y="424"/>
      <point x="384" y="410" type="curve" smooth="yes"/>
      <point x="384" y="403"/>
      <point x="382" y="400"/>
      <point x="371" y="388" type="curve" smooth="yes"/>
      <point x="366" y="383"/>
      <point x="363" y="379"/>
      <point x="361" y="375" type="curve" smooth="yes"/>
    </contour>
  </outline>
</glyph>
<glyph name="yen" format="2">
  <advance width="574"/>
  <unicode hex="00A5"/>
  <outline>
    <contour>
      <point x="392" y="359" type="line"/>
      <point x="480" y="575" type="line" smooth="yes"/>
      <point x="507" y="637"/>
      <point x="533" y="664"/>
      <point x="571" y="668" type="curve"/>
      <point x="571" y="722" type="line"/>
      <point x="365" y="722" type="line"/>
      <point x="365" y="668" type="line"/>
      <point x="385" y="668" type="line" smooth="yes"/>
      <point x="410" y="668"/>
      <point x="427" y="649"/>
      <point x="427" y="620" type="curve" smooth="yes"/>
      <point x="427" y="608"/>
      <point x="423" y="588"/>
      <point x="417" y="574" type="curve" smooth="yes"/>
      <point x="345" y="396" type="line"/>
      <point x="252" y="615" type="line" smooth="yes"/>
      <point x="242" y="639"/>
      <point x="241" y="642"/>
      <point x="241" y="648" type="curve" smooth="yes"/>
      <point x="241" y="660"/>
      <point x="251" y="668"/>
      <point x="267" y="668" type="curve" smooth="yes"/>
      <point x="273" y="668" type="line"/>
      <point x="273" y="722" type="line"/>
      <point x="3" y="722" type="line"/>
      <point x="3" y="668" type="line"/>
      <point x="33" y="668"/>
      <point x="44" y="661"/>
      <point x="57" y="632" type="curve" smooth="yes"/>
      <point x="173" y="359" type="line"/>
      <point x="85" y="359" type="line"/>
      <point x="85" y="299" type="line"/>
      <point x="196" y="299" type="line"/>
      <point x="196" y="233" type="line"/>
      <point x="85" y="233" type="line"/>
      <point x="85" y="173" type="line"/>
      <point x="196" y="173" type="line"/>
      <point x="196" y="144" type="line" smooth="yes"/>
      <point x="196" y="83"/>
      <point x="196" y="78"/>
      <point x="191" y="69" type="curve" smooth="yes"/>
      <point x="185" y="58"/>
      <point x="171" y="54"/>
      <point x="134" y="54" type="curve" smooth="yes"/>
      <point x="119" y="54" type="line"/>
      <point x="119" y="0" type="line"/>
      <point x="454" y="0" type="line"/>
      <point x="454" y="54" type="line"/>
      <point x="439" y="54" type="line" smooth="yes"/>
      <point x="401" y="54"/>
      <point x="387" y="58"/>
      <point x="381" y="69" type="curve" smooth="yes"/>
      <point x="376" y="79"/>
      <point x="376" y="82"/>
      <point x="376" y="144" type="curve" smooth="yes"/>
      <point x="376" y="173" type="line"/>
      <point x="486" y="173" type="line"/>
      <point x="486" y="233" type="line"/>
      <point x="376" y="233" type="line"/>
      <point x="376" y="299" type="line"/>
      <point x="486" y="299" type="line"/>
      <point x="486" y="359" type="line"/>
    </contour>
  </outline>
</glyph>
<glyph name="dieresis" format="2">
  <advance width="333"/>
  <unicode hex="00A8"/>
  <outline>
    <contour>
      <point x="60" y="693" type="curve" smooth="yes"/>
      <point x="21" y="693"/>
      <point x="-11" y="661"/>
      <point x="-11" y="622" type="curve" smooth="yes"/>
      <point x="-11" y="584"/>
      <point x="21" y="552"/>
      <point x="59" y="552" type="curve" smooth="yes"/>
      <point x="99" y="552"/>
      <point x="130" y="583"/>
      <point x="130" y="623" type="curve" smooth="yes"/>
      <point x="130" y="662"/>
      <point x="99" y="693"/>
    </contour>
    <contour>
      <point x="275" y="693" type="curve" smooth="yes"/>
      <point x="236" y="693"/>
      <point x="204" y="661"/>
      <point x="204" y="622" type="curve" smooth="yes"/>
      <point x="204" y="584"/>
      <point x="236" y="552"/>
      <point x="274" y="552" type="curve" smooth="yes"/>
      <point x="314" y="552"/>
      <point x="345" y="583"/>
      <point x="345" y="623" type="curve" smooth="yes"/>
      <point x="345" y="662"/>
      <point x="314" y="693"/>
    </contour>
  </outline>
</glyph>
<glyph name="registered" format="2">
  <advance width="747"/>
  <unicode hex="00AE"/>
  <outline>
    <contour>
      <point x="330" y="340" type="line"/>
      <point x="356" y="340" type="line" smooth="yes"/>
      <point x="403" y="338"/>
      <point x="410" y="328"/>
      <point x="414" y="265" type="curve" smooth="yes"/>
      <point x="417" y="225"/>
      <point x="419" y="215"/>
      <point x="424" y="201" type="curve" smooth="yes"/>
      <point x="438" y="166"/>
      <point x="466" y="149"/>
      <point x="509" y="149" type="curve" smooth="yes"/>
      <point x="567" y="149"/>
      <point x="603" y="183"/>
      <point x="603" y="239" type="curve" smooth="yes"/>
      <point x="603" y="251" type="line"/>
      <point x="566" y="251" type="line"/>
      <point x="567" y="217"/>
      <point x="560" y="201"/>
      <point x="546" y="201" type="curve" smooth="yes"/>
      <point x="535" y="201"/>
      <point x="532" y="206"/>
      <point x="528" y="230" type="curve"/>
      <point x="528" y="233"/>
      <point x="527" y="238"/>
      <point x="526" y="245" type="curve" smooth="yes"/>
      <point x="523" y="265" type="line" smooth="yes"/>
      <point x="515" y="309"/>
      <point x="495" y="336"/>
      <point x="459" y="350" type="curve"/>
      <point x="524" y="365"/>
      <point x="554" y="396"/>
      <point x="554" y="447" type="curve" smooth="yes"/>
      <point x="554" y="481"/>
      <point x="538" y="510"/>
      <point x="510" y="528" type="curve" smooth="yes"/>
      <point x="488" y="542"/>
      <point x="455" y="548"/>
      <point x="403" y="548" type="curve" smooth="yes"/>
      <point x="171" y="548" type="line"/>
      <point x="171" y="511" type="line"/>
      <point x="183" y="511" type="line" smooth="yes"/>
      <point x="211" y="511"/>
      <point x="220" y="510"/>
      <point x="224" y="505" type="curve" smooth="yes"/>
      <point x="227" y="501"/>
      <point x="227" y="500"/>
      <point x="227" y="467" type="curve" smooth="yes"/>
      <point x="227" y="237" type="line"/>
      <point x="227" y="224" type="line"/>
      <point x="227" y="211" type="line"/>
      <point x="226" y="205"/>
      <point x="226" y="202"/>
      <point x="224" y="200" type="curve"/>
      <point x="220" y="195"/>
      <point x="210" y="194"/>
      <point x="183" y="194" type="curve" smooth="yes"/>
      <point x="171" y="194" type="line"/>
      <point x="171" y="157" type="line"/>
      <point x="392" y="157" type="line"/>
      <point x="392" y="194" type="line"/>
      <point x="374" y="194" type="line" smooth="yes"/>
      <point x="348" y="194"/>
      <point x="337" y="195"/>
      <point x="333" y="200" type="curve" smooth="yes"/>
      <point x="330" y="204"/>
      <point x="330" y="205"/>
      <point x="330" y="237" type="curve" smooth="yes"/>
    </contour>
    <contour>
      <point x="330" y="377" type="line"/>
      <point x="330" y="481" type="line" smooth="yes"/>
      <point x="329" y="509"/>
      <point x="332" y="511"/>
      <point x="364" y="511" type="curve" smooth="yes"/>
      <point x="377" y="511" type="line" smooth="yes"/>
      <point x="425" y="511"/>
      <point x="444" y="492"/>
      <point x="444" y="444" type="curve" smooth="yes"/>
      <point x="444" y="393"/>
      <point x="424" y="377"/>
      <point x="355" y="377" type="curve" smooth="yes"/>
    </contour>
    <contour>
      <point x="373" y="721" type="curve" smooth="yes"/>
      <point x="170" y="721"/>
      <point x="5" y="556"/>
      <point x="5" y="353" type="curve" smooth="yes"/>
      <point x="5" y="152"/>
      <point x="170" y="-15"/>
      <point x="369" y="-15" type="curve" smooth="yes"/>
      <point x="577" y="-15"/>
      <point x="741" y="148"/>
      <point x="741" y="354" type="curve" smooth="yes"/>
      <point x="741" y="556"/>
      <point x="576" y="721"/>
    </contour>
    <contour>
      <point x="374" y="669" type="curve" smooth="yes"/>
      <point x="542" y="669"/>
      <point x="679" y="528"/>
      <point x="679" y="356" type="curve" smooth="yes"/>
      <point x="679" y="181"/>
      <point x="543" y="42"/>
      <point x="370" y="42" type="curve" smooth="yes"/>
      <point x="205" y="42"/>
      <point x="68" y="185"/>
      <point x="68" y="355" type="curve" smooth="yes"/>
      <point x="68" y="529"/>
      <point x="205" y="669"/>
    </contour>
  </outline>
</glyph>
<glyph name="macron" format="2">
  <advance width="333"/>
  <unicode hex="00AF"/>
  <unicode hex="02C9"/>
  <outline>
    <contour>
      <point x="-5" y="663" type="line"/>
      <point x="-5" y="583" type="line"/>
      <point x="339" y="583" type="line"/>
      <point x="339" y="663" type="line"/>
    </contour>
  </outline>
</glyph>
<glyph name="plusminus" format="2">
  <advance width="606"/>
  <unicode hex="00B1"/>
  <outline>
    <component base="minus" yOffset="-195"/>
    <contour>
      <point x="246" y="300" type="line"/>
      <point x="246" y="158" type="line"/>
      <point x="361" y="158" type="line"/>
      <point x="361" y="300" type="line"/>
      <point x="555" y="300" type="line"/>
      <point x="555" y="415" type="line"/>
      <point x="361" y="415" type="line"/>
      <point x="361" y="610" type="line"/>
      <point x="246" y="610" type="line"/>
      <point x="246" y="415" type="line"/>
      <point x="51" y="415" type="line"/>
      <point x="51" y="300" type="line"/>
    </contour>
  </outline>
</glyph>
<glyph name="twosuperior" format="2">
  <advance width="344"/>
  <unicode hex="00B2"/>
  <outline>
    <contour>
      <point x="5" y="281" type="line"/>
      <point x="23" y="282"/>
      <point x="31" y="283"/>
      <point x="41" y="283" type="curve" smooth="yes"/>
      <point x="281" y="283" type="line" smooth="yes"/>
      <point x="295" y="283"/>
      <point x="302" y="283"/>
      <point x="322" y="281" type="curve"/>
      <point x="338" y="447" type="line"/>
      <point x="297" y="447" type="line"/>
      <point x="290" y="415" type="line"/>
      <point x="281" y="382"/>
      <point x="280" y="380"/>
      <point x="263" y="379" type="curve" smooth="yes"/>
      <point x="231" y="378" type="line"/>
      <point x="116" y="378" type="line"/>
      <point x="134" y="392"/>
      <point x="151" y="404"/>
      <point x="171" y="416" type="curve" smooth="yes"/>
      <point x="230" y="452"/>
      <point x="232" y="454"/>
      <point x="252" y="467" type="curve" smooth="yes"/>
      <point x="306" y="505"/>
      <point x="332" y="546"/>
      <point x="332" y="593" type="curve" smooth="yes"/>
      <point x="332" y="659"/>
      <point x="264" y="708"/>
      <point x="174" y="708" type="curve" smooth="yes"/>
      <point x="86" y="708"/>
      <point x="19" y="655"/>
      <point x="19" y="585" type="curve" smooth="yes"/>
      <point x="19" y="542"/>
      <point x="45" y="514"/>
      <point x="84" y="514" type="curve" smooth="yes"/>
      <point x="119" y="514"/>
      <point x="141" y="534"/>
      <point x="141" y="566" type="curve" smooth="yes"/>
      <point x="141" y="592"/>
      <point x="126" y="611"/>
      <point x="95" y="622" type="curve" smooth="yes"/>
      <point x="89" y="624"/>
      <point x="87" y="626"/>
      <point x="87" y="630" type="curve" smooth="yes"/>
      <point x="87" y="647"/>
      <point x="120" y="666"/>
      <point x="150" y="666" type="curve" smooth="yes"/>
      <point x="193" y="666"/>
      <point x="217" y="642"/>
      <point x="217" y="599" type="curve" smooth="yes"/>
      <point x="217" y="552"/>
      <point x="198" y="519"/>
      <point x="132" y="453" type="curve" smooth="yes"/>
      <point x="63" y="385"/>
      <point x="37" y="356"/>
      <point x="5" y="313" type="curve"/>
    </contour>
  </outline>
</glyph>
<glyph name="paragraph" format="2">
  <advance width="747"/>
  <unicode hex="00B6"/>
  <outline>
    <contour>
      <point x="254" y="-3" type="line"/>
      <point x="254" y="-50" type="line"/>
      <point x="253" y="-64"/>
      <point x="252" y="-70"/>
      <point x="247" y="-76" type="curve"/>
      <point x="241" y="-85"/>
      <point x="221" y="-89"/>
      <point x="179" y="-90" type="curve" smooth="yes"/>
      <point x="155" y="-90" type="line"/>
      <point x="155" y="-144" type="line"/>
      <point x="713" y="-144" type="line"/>
      <point x="713" y="-90" type="line"/>
      <point x="693" y="-90" type="line"/>
      <point x="636" y="-87"/>
      <point x="628" y="-81"/>
      <point x="628" y="-47" type="curve" smooth="yes"/>
      <point x="628" y="-3" type="line"/>
      <point x="628" y="581" type="line"/>
      <point x="628" y="628" type="line"/>
      <point x="629" y="642"/>
      <point x="630" y="648"/>
      <point x="634" y="653" type="curve" smooth="yes"/>
      <point x="640" y="661"/>
      <point x="657" y="665"/>
      <point x="693" y="667" type="curve"/>
      <point x="713" y="667" type="line"/>
      <point x="713" y="722" type="line"/>
      <point x="268" y="722" type="line" smooth="yes"/>
      <point x="199" y="722"/>
      <point x="160" y="714"/>
      <point x="121" y="691" type="curve" smooth="yes"/>
      <point x="67" y="659"/>
      <point x="35" y="596"/>
      <point x="35" y="521" type="curve" smooth="yes"/>
      <point x="35" y="399"/>
      <point x="118" y="325"/>
      <point x="254" y="325" type="curve"/>
    </contour>
    <contour>
      <point x="476" y="667" type="line"/>
      <point x="476" y="-89" type="line"/>
      <point x="406" y="-89" type="line"/>
      <point x="406" y="667" type="line"/>
    </contour>
    <contour>
      <point x="252" y="384" type="line"/>
      <point x="241" y="384" type="line" smooth="yes"/>
      <point x="191" y="382"/>
      <point x="167" y="416"/>
      <point x="165" y="491" type="curve" smooth="yes"/>
      <point x="165" y="562" type="line" smooth="yes"/>
      <point x="165" y="640"/>
      <point x="189" y="670"/>
      <point x="252" y="668" type="curve"/>
    </contour>
  </outline>
</glyph>
<glyph name="onesuperior" format="2">
  <advance width="344"/>
  <unicode hex="00B9"/>
  <outline>
    <contour>
      <point x="226" y="708" type="line"/>
      <point x="200" y="708" type="line"/>
      <point x="161" y="679"/>
      <point x="117" y="668"/>
      <point x="40" y="668" type="curve"/>
      <point x="40" y="628" type="line"/>
      <point x="70" y="628" type="line" smooth="yes"/>
      <point x="107" y="627"/>
      <point x="112" y="627"/>
      <point x="118" y="622" type="curve"/>
      <point x="123" y="616"/>
      <point x="123" y="612"/>
      <point x="123" y="582" type="curve" smooth="yes"/>
      <point x="123" y="372" type="line" smooth="yes"/>
      <point x="123" y="337"/>
      <point x="123" y="335"/>
      <point x="119" y="330" type="curve" smooth="yes"/>
      <point x="115" y="325"/>
      <point x="102" y="323"/>
      <point x="70" y="323" type="curve" smooth="yes"/>
      <point x="39" y="323" type="line"/>
      <point x="39" y="284" type="line"/>
      <point x="304" y="284" type="line"/>
      <point x="304" y="323" type="line"/>
      <point x="280" y="323" type="line" smooth="yes"/>
      <point x="248" y="323"/>
      <point x="234" y="325"/>
      <point x="230" y="330" type="curve" smooth="yes"/>
      <point x="226" y="335"/>
      <point x="226" y="336"/>
      <point x="226" y="372" type="curve" smooth="yes"/>
    </contour>
  </outline>
</glyph>
<glyph name="guillemotright" format="2">
  <advance width="500"/>
  <unicode hex="00BB"/>
  <outline>
    <contour>
      <point x="251" y="266" type="line"/>
      <point x="197" y="311"/>
      <point x="146" y="356"/>
      <point x="97" y="399" type="curve"/>
      <point x="83" y="413"/>
      <point x="75" y="419"/>
      <point x="69" y="419" type="curve" smooth="yes"/>
      <point x="63" y="419"/>
      <point x="56" y="412"/>
      <point x="56" y="407" type="curve" smooth="yes"/>
      <point x="56" y="401"/>
      <point x="63" y="386"/>
      <point x="75" y="366" type="curve" smooth="yes"/>
      <point x="139" y="259" type="line"/>
      <point x="75" y="152" type="line" smooth="yes"/>
      <point x="63" y="132"/>
      <point x="56" y="118"/>
      <point x="56" y="112" type="curve" smooth="yes"/>
      <point x="56" y="107"/>
      <point x="63" y="100"/>
      <point x="68" y="100" type="curve" smooth="yes"/>
      <point x="75" y="100"/>
      <point x="83" y="105"/>
      <point x="97" y="120" type="curve"/>
      <point x="146" y="163"/>
      <point x="197" y="207"/>
      <point x="251" y="252" type="curve"/>
    </contour>
    <contour>
      <point x="451" y="266" type="line"/>
      <point x="397" y="311"/>
      <point x="346" y="356"/>
      <point x="297" y="399" type="curve"/>
      <point x="283" y="413"/>
      <point x="275" y="419"/>
      <point x="269" y="419" type="curve" smooth="yes"/>
      <point x="263" y="419"/>
      <point x="256" y="412"/>
      <point x="256" y="407" type="curve" smooth="yes"/>
      <point x="256" y="401"/>
      <point x="263" y="386"/>
      <point x="275" y="366" type="curve" smooth="yes"/>
      <point x="339" y="259" type="line"/>
      <point x="275" y="152" type="line" smooth="yes"/>
      <point x="263" y="132"/>
      <point x="256" y="118"/>
      <point x="256" y="112" type="curve" smooth="yes"/>
      <point x="256" y="107"/>
      <point x="263" y="100"/>
      <point x="268" y="100" type="curve" smooth="yes"/>
      <point x="275" y="100"/>
      <point x="283" y="105"/>
      <point x="297" y="120" type="curve"/>
      <point x="346" y="163"/>
      <point x="397" y="207"/>
      <point x="451" y="252" type="curve"/>
    </contour>
  </outline>
</glyph>
<glyph name="onequarter" format="2">
  <advance width="861"/>
  <unicode hex="00BC"/>
  <outline>
    <component base="onesuperior"/>
    <contour>
      <point x="598" y="722" type="line"/>
      <point x="178" y="0" type="line"/>
      <point x="258" y="0" type="line"/>
      <point x="677" y="722" type="line"/>
    </contour>
    <contour>
      <point x="756" y="154" type="line"/>
      <point x="756" y="331" type="line" smooth="yes"/>
      <point x="756" y="340"/>
      <point x="757" y="377"/>
      <point x="760" y="424" type="curve"/>
      <point x="712" y="424" type="line"/>
      <point x="483" y="156" type="line"/>
      <point x="483" y="107" type="line"/>
      <point x="653" y="107" type="line"/>
      <point x="653" y="88" type="line" smooth="yes"/>
      <point x="653" y="54"/>
      <point x="653" y="51"/>
      <point x="649" y="46" type="curve"/>
      <point x="646" y="41"/>
      <point x="632" y="39"/>
      <point x="604" y="39" type="curve" smooth="yes"/>
      <point x="594" y="39" type="line"/>
      <point x="594" y="0" type="line"/>
      <point x="815" y="0" type="line"/>
      <point x="815" y="39" type="line"/>
      <point x="804" y="39" type="line" smooth="yes"/>
      <point x="778" y="39"/>
      <point x="763" y="41"/>
      <point x="760" y="46" type="curve" smooth="yes"/>
      <point x="756" y="52"/>
      <point x="756" y="53"/>
      <point x="756" y="88" type="curve" smooth="yes"/>
      <point x="756" y="107" type="line"/>
      <point x="822" y="107" type="line"/>
      <point x="822" y="154" type="line"/>
    </contour>
    <contour>
      <point x="653" y="154" type="line"/>
      <point x="540" y="154" type="line"/>
      <point x="653" y="288" type="line"/>
    </contour>
  </outline>
</glyph>
<glyph name="onehalf" format="2">
  <advance width="861"/>
  <unicode hex="00BD"/>
  <outline>
    <component base="onesuperior"/>
    <component base="twosuperior" xOffset="494" yOffset="-283"/>
    <contour>
      <point x="593" y="722" type="line"/>
      <point x="173" y="0" type="line"/>
      <point x="252" y="0" type="line"/>
      <point x="672" y="722" type="line"/>
    </contour>
  </outline>
</glyph>
<glyph name="threequarters" format="2">
  <advance width="861"/>
  <unicode hex="00BE"/>
  <outline>
    <component base="threesuperior"/>
    <component base="foursuperior" xOffset="481" yOffset="-284"/>
    <contour>
      <point x="621" y="722" type="line"/>
      <point x="202" y="0" type="line"/>
      <point x="281" y="0" type="line"/>
      <point x="701" y="722" type="line"/>
    </contour>
  </outline>
</glyph>
<glyph name="Agrave" format="2">
  <advance width="759"/>
  <unicode hex="00C0"/>
  <outline>
    <component base="A"/>
    <contour>
      <point x="456" y="790" type="line"/>
      <point x="343" y="929" type="line" smooth="yes"/>
      <point x="308" y="972"/>
      <point x="296" y="980"/>
      <point x="266" y="980" type="curve" smooth="yes"/>
      <point x="234" y="980"/>
      <point x="209" y="958"/>
      <point x="209" y="930" type="curve" smooth="yes"/>
      <point x="209" y="909"/>
      <point x="221" y="892"/>
      <point x="245" y="878" type="curve" smooth="yes"/>
      <point x="392" y="790" type="line"/>
    </contour>
  </outline>
</glyph>
<glyph name="Aacute" format="2">
  <advance width="759"/>
  <unicode hex="00C1"/>
  <outline>
    <contour>
      <point x="351" y="737" type="line"/>
      <point x="124" y="207" type="line" smooth="yes"/>
      <point x="78" y="99"/>
      <point x="41" y="60"/>
      <point x="-18" y="54" type="curve"/>
      <point x="-18" y="0" type="line"/>
      <point x="271" y="0" type="line"/>
      <point x="271" y="54" type="line"/>
      <point x="200" y="58"/>
      <point x="172" y="77"/>
      <point x="172" y="123" type="curve" smooth="yes"/>
      <point x="172" y="140"/>
      <point x="176" y="156"/>
      <point x="187" y="180" type="curve" smooth="yes"/>
      <point x="203" y="218" type="line"/>
      <point x="452" y="218" type="line"/>
      <point x="490" y="120" type="line" smooth="yes"/>
      <point x="501" y="92"/>
      <point x="502" y="87"/>
      <point x="502" y="79" type="curve" smooth="yes"/>
      <point x="502" y="61"/>
      <point x="488" y="55"/>
      <point x="444" y="55" type="curve"/>
      <point x="427" y="54" type="line"/>
      <point x="427" y="0" type="line"/>
      <point x="778" y="0" type="line"/>
      <point x="778" y="54" type="line"/>
      <point x="721" y="56"/>
      <point x="705" y="66"/>
      <point x="684" y="117" type="curve" smooth="yes"/>
      <point x="427" y="737" type="line"/>
    </contour>
    <contour>
      <point x="330" y="524" type="line"/>
      <point x="427" y="285" type="line"/>
      <point x="229" y="285" type="line"/>
    </contour>
    <contour>
      <point x="324" y="790" type="line"/>
      <point x="388" y="790" type="line"/>
      <point x="535" y="878" type="line" smooth="yes"/>
      <point x="559" y="893"/>
      <point x="571" y="909"/>
      <point x="571" y="930" type="curve" smooth="yes"/>
      <point x="571" y="958"/>
      <point x="546" y="980"/>
      <point x="514" y="980" type="curve" smooth="yes"/>
      <point x="484" y="980"/>
      <point x="471" y="972"/>
      <point x="436" y="929" type="curve" smooth="yes"/>
    </contour>
  </outline>
</glyph>
<glyph name="Acircumflex" format="2">
  <advance width="759"/>
  <unicode hex="00C2"/>
  <outline>
    <component base="A"/>
    <contour>
      <point x="216" y="790" type="line"/>
      <point x="282" y="790" type="line"/>
      <point x="391" y="884" type="line"/>
      <point x="500" y="790" type="line"/>
      <point x="567" y="790" type="line"/>
      <point x="446" y="969" type="line"/>
      <point x="337" y="969" type="line"/>
    </contour>
  </outline>
</glyph>
<glyph name="Atilde" format="2">
  <advance width="759"/>
  <unicode hex="00C3"/>
  <outline>
    <contour>
      <point x="351" y="737" type="line"/>
      <point x="124" y="207" type="line" smooth="yes"/>
      <point x="78" y="99"/>
      <point x="41" y="60"/>
      <point x="-18" y="54" type="curve"/>
      <point x="-18" y="0" type="line"/>
      <point x="271" y="0" type="line"/>
      <point x="271" y="54" type="line"/>
      <point x="200" y="58"/>
      <point x="172" y="77"/>
      <point x="172" y="123" type="curve" smooth="yes"/>
      <point x="172" y="140"/>
      <point x="176" y="156"/>
      <point x="187" y="180" type="curve" smooth="yes"/>
      <point x="203" y="218" type="line"/>
      <point x="452" y="218" type="line"/>
      <point x="490" y="120" type="line" smooth="yes"/>
      <point x="501" y="92"/>
      <point x="502" y="87"/>
      <point x="502" y="79" type="curve" smooth="yes"/>
      <point x="502" y="61"/>
      <point x="488" y="55"/>
      <point x="444" y="55" type="curve"/>
      <point x="427" y="54" type="line"/>
      <point x="427" y="0" type="line"/>
      <point x="778" y="0" type="line"/>
      <point x="778" y="54" type="line"/>
      <point x="721" y="56"/>
      <point x="705" y="66"/>
      <point x="684" y="117" type="curve" smooth="yes"/>
      <point x="427" y="737" type="line"/>
    </contour>
    <contour>
      <point x="330" y="524" type="line"/>
      <point x="427" y="285" type="line"/>
      <point x="229" y="285" type="line"/>
    </contour>
    <contour>
      <point x="535" y="933" type="line"/>
      <point x="521" y="894"/>
      <point x="510" y="882"/>
      <point x="489" y="882" type="curve" smooth="yes"/>
      <point x="475" y="882"/>
      <point x="452" y="890"/>
      <point x="418" y="906" type="curve" smooth="yes"/>
      <point x="366" y="932"/>
      <point x="350" y="937"/>
      <point x="323" y="937" type="curve" smooth="yes"/>
      <point x="265" y="937"/>
      <point x="216" y="881"/>
      <point x="203" y="802" type="curve"/>
      <point x="253" y="802" type="line"/>
      <point x="262" y="834"/>
      <point x="278" y="852"/>
      <point x="297" y="852" type="curve" smooth="yes"/>
      <point x="311" y="852"/>
      <point x="334" y="844"/>
      <point x="357" y="831" type="curve" smooth="yes"/>
      <point x="410" y="802"/>
      <point x="425" y="797"/>
      <point x="459" y="797" type="curve" smooth="yes"/>
      <point x="497" y="797"/>
      <point x="523" y="811"/>
      <point x="551" y="847" type="curve" smooth="yes"/>
      <point x="570" y="873"/>
      <point x="580" y="898"/>
      <point x="584" y="933" type="curve"/>
    </contour>
  </outline>
</glyph>
<glyph name="Adieresis" format="2">
  <advance width="759"/>
  <unicode hex="00C4"/>
  <outline>
    <component base="A"/>
    <contour>
      <point x="280" y="938" type="curve" smooth="yes"/>
      <point x="241" y="938"/>
      <point x="209" y="906"/>
      <point x="209" y="867" type="curve" smooth="yes"/>
      <point x="209" y="829"/>
      <point x="241" y="797"/>
      <point x="279" y="797" type="curve" smooth="yes"/>
      <point x="318" y="797"/>
      <point x="350" y="828"/>
      <point x="350" y="868" type="curve" smooth="yes"/>
      <point x="350" y="907"/>
      <point x="319" y="938"/>
    </contour>
    <contour>
      <point x="495" y="938" type="curve" smooth="yes"/>
      <point x="456" y="938"/>
      <point x="424" y="906"/>
      <point x="424" y="867" type="curve" smooth="yes"/>
      <point x="424" y="829"/>
      <point x="456" y="797"/>
      <point x="494" y="797" type="curve" smooth="yes"/>
      <point x="534" y="797"/>
      <point x="565" y="828"/>
      <point x="565" y="868" type="curve" smooth="yes"/>
      <point x="565" y="907"/>
      <point x="534" y="938"/>
    </contour>
  </outline>
</glyph>
<glyph name="Eacute" format="2">
  <advance width="759"/>
  <unicode hex="00C9"/>
  <outline>
    <component base="E"/>
    <contour>
      <point x="317" y="790" type="line"/>
      <point x="381" y="790" type="line"/>
      <point x="528" y="878" type="line" smooth="yes"/>
      <point x="552" y="892"/>
      <point x="564" y="909"/>
      <point x="564" y="930" type="curve" smooth="yes"/>
      <point x="564" y="958"/>
      <point x="539" y="980"/>
      <point x="507" y="980" type="curve" smooth="yes"/>
      <point x="477" y="980"/>
      <point x="465" y="972"/>
      <point x="430" y="929" type="curve" smooth="yes"/>
    </contour>
  </outline>
</glyph>
<glyph name="Igrave" format="2">
  <advance width="444"/>
  <unicode hex="00CC"/>
  <outline>
    <contour>
      <point x="28" y="0" type="line"/>
      <point x="417" y="0" type="line"/>
      <point x="417" y="54" type="line"/>
      <point x="402" y="54" type="line" smooth="yes"/>
      <point x="348" y="54"/>
      <point x="328" y="58"/>
      <point x="319" y="69" type="curve"/>
      <point x="312" y="79"/>
      <point x="312" y="82"/>
      <point x="312" y="144" type="curve" smooth="yes"/>
      <point x="312" y="578" type="line" smooth="yes"/>
      <point x="312" y="640"/>
      <point x="312" y="643"/>
      <point x="319" y="653" type="curve"/>
      <point x="328" y="664"/>
      <point x="348" y="668"/>
      <point x="402" y="668" type="curve" smooth="yes"/>
      <point x="417" y="668" type="line"/>
      <point x="417" y="722" type="line"/>
      <point x="28" y="722" type="line"/>
      <point x="28" y="668" type="line"/>
      <point x="43" y="668" type="line" smooth="yes"/>
      <point x="96" y="668"/>
      <point x="116" y="664"/>
      <point x="125" y="653" type="curve"/>
      <point x="132" y="643"/>
      <point x="132" y="640"/>
      <point x="132" y="578" type="curve" smooth="yes"/>
      <point x="132" y="144" type="line" smooth="yes"/>
      <point x="132" y="82"/>
      <point x="132" y="79"/>
      <point x="125" y="69" type="curve"/>
      <point x="116" y="58"/>
      <point x="96" y="54"/>
      <point x="43" y="54" type="curve" smooth="yes"/>
      <point x="28" y="54" type="line"/>
    </contour>
    <contour>
      <point x="298" y="790" type="line"/>
      <point x="185" y="929" type="line" smooth="yes"/>
      <point x="161" y="958"/>
      <point x="161" y="958"/>
      <point x="156" y="962" type="curve" smooth="yes"/>
      <point x="141" y="974"/>
      <point x="125" y="980"/>
      <point x="108" y="980" type="curve" smooth="yes"/>
      <point x="76" y="980"/>
      <point x="51" y="958"/>
      <point x="51" y="930" type="curve" smooth="yes"/>
      <point x="51" y="909"/>
      <point x="63" y="892"/>
      <point x="87" y="878" type="curve" smooth="yes"/>
      <point x="234" y="790" type="line"/>
    </contour>
  </outline>
</glyph>
<glyph name="Icircumflex" format="2">
  <advance width="444"/>
  <unicode hex="00CE"/>
  <outline>
    <component base="I"/>
    <contour>
      <point x="48" y="790" type="line"/>
      <point x="114" y="790" type="line"/>
      <point x="223" y="884" type="line"/>
      <point x="332" y="790" type="line"/>
      <point x="399" y="790" type="line"/>
      <point x="278" y="969" type="line"/>
      <point x="168" y="969" type="line"/>
    </contour>
  </outline>
</glyph>
<glyph name="Eth" format="2">
  <advance width="833"/>
  <unicode hex="00D0"/>
  <outline>
    <contour>
      <point x="123" y="339" type="line"/>
      <point x="123" y="144" type="line" smooth="yes"/>
      <point x="123" y="82"/>
      <point x="123" y="79"/>
      <point x="116" y="69" type="curve"/>
      <point x="107" y="58"/>
      <point x="87" y="54"/>
      <point x="34" y="54" type="curve" smooth="yes"/>
      <point x="19" y="54" type="line"/>
      <point x="19" y="0" type="line"/>
      <point x="387" y="0" type="line" smooth="yes"/>
      <point x="514" y="0"/>
      <point x="593" y="18"/>
      <point x="655" y="62" type="curve" smooth="yes"/>
      <point x="745" y="124"/>
      <point x="793" y="232"/>
      <point x="793" y="368" type="curve" smooth="yes"/>
      <point x="793" y="504"/>
      <point x="744" y="607"/>
      <point x="650" y="668" type="curve" smooth="yes"/>
      <point x="586" y="710"/>
      <point x="521" y="722"/>
      <point x="356" y="722" type="curve" smooth="yes"/>
      <point x="19" y="722" type="line"/>
      <point x="19" y="668" type="line"/>
      <point x="34" y="668" type="line" smooth="yes"/>
      <point x="87" y="668"/>
      <point x="107" y="664"/>
      <point x="116" y="653" type="curve"/>
      <point x="123" y="643"/>
      <point x="123" y="640"/>
      <point x="123" y="578" type="curve" smooth="yes"/>
      <point x="123" y="399" type="line"/>
      <point x="19" y="399" type="line"/>
      <point x="19" y="339" type="line"/>
    </contour>
    <contour>
      <point x="303" y="339" type="line"/>
      <point x="447" y="339" type="line"/>
      <point x="447" y="399" type="line"/>
      <point x="303" y="399" type="line"/>
      <point x="303" y="608" type="line" smooth="yes"/>
      <point x="301" y="654"/>
      <point x="313" y="666"/>
      <point x="363" y="668" type="curve" smooth="yes"/>
      <point x="389" y="668" type="line" smooth="yes"/>
      <point x="447" y="668"/>
      <point x="487" y="654"/>
      <point x="522" y="623" type="curve" smooth="yes"/>
      <point x="567" y="580"/>
      <point x="594" y="487"/>
      <point x="594" y="369" type="curve" smooth="yes"/>
      <point x="594" y="264"/>
      <point x="573" y="167"/>
      <point x="541" y="122" type="curve" smooth="yes"/>
      <point x="510" y="80"/>
      <point x="452" y="54"/>
      <point x="385" y="54" type="curve" smooth="yes"/>
      <point x="363" y="54" type="line" smooth="yes"/>
      <point x="312" y="55"/>
      <point x="303" y="65"/>
      <point x="303" y="119" type="curve" smooth="yes"/>
    </contour>
  </outline>
</glyph>
<glyph name="Ntilde" format="2">
  <advance width="833"/>
  <unicode hex="00D1"/>
  <outline>
    <component base="N"/>
    <contour>
      <point x="572" y="933" type="line"/>
      <point x="568" y="921"/>
      <point x="565" y="914"/>
      <point x="563" y="910" type="curve"/>
      <point x="556" y="893"/>
      <point x="541" y="882"/>
      <point x="526" y="882" type="curve" smooth="yes"/>
      <point x="512" y="882"/>
      <point x="489" y="890"/>
      <point x="455" y="906" type="curve" smooth="yes"/>
      <point x="403" y="932"/>
      <point x="387" y="937"/>
      <point x="360" y="937" type="curve" smooth="yes"/>
      <point x="302" y="937"/>
      <point x="253" y="882"/>
      <point x="240" y="802" type="curve"/>
      <point x="290" y="802" type="line"/>
      <point x="299" y="834"/>
      <point x="315" y="852"/>
      <point x="334" y="852" type="curve" smooth="yes"/>
      <point x="348" y="852"/>
      <point x="371" y="844"/>
      <point x="394" y="831" type="curve" smooth="yes"/>
      <point x="447" y="802"/>
      <point x="462" y="797"/>
      <point x="496" y="797" type="curve" smooth="yes"/>
      <point x="534" y="797"/>
      <point x="561" y="811"/>
      <point x="588" y="847" type="curve" smooth="yes"/>
      <point x="608" y="874"/>
      <point x="617" y="899"/>
      <point x="621" y="933" type="curve"/>
    </contour>
  </outline>
</glyph>
<glyph name="Oacute" format="2">
  <advance width="833"/>
  <unicode hex="00D3"/>
  <outline>
    <component base="O"/>
    <contour>
      <point x="341" y="790" type="line"/>
      <point x="405" y="790" type="line"/>
      <point x="552" y="878" type="line" smooth="yes"/>
      <point x="576" y="893"/>
      <point x="588" y="909"/>
      <point x="588" y="930" type="curve" smooth="yes"/>
      <point x="588" y="958"/>
      <point x="563" y="980"/>
      <point x="531" y="980" type="curve" smooth="yes"/>
      <point x="501" y="980"/>
      <point x="489" y="972"/>
      <point x="454" y="929" type="curve" smooth="yes"/>
    </contour>
  </outline>
</glyph>
<glyph name="Ocircumflex" format="2">
  <advance width="833"/>
  <unicode hex="00D4"/>
  <outline>
    <component base="O"/>
    <contour>
      <point x="242" y="790" type="line"/>
      <point x="309" y="790" type="line"/>
      <point x="418" y="884" type="line"/>
      <point x="526" y="790" type="line"/>
      <point x="593" y="790" type="line"/>
      <point x="472" y="969" type="line"/>
      <point x="363" y="969" type="line"/>
    </contour>
  </outline>
</glyph>
<glyph name="Otilde" format="2">
  <advance width="833"/>
  <unicode hex="00D5"/>
  <outline>
    <component base="O"/>
    <contour>
      <point x="566" y="933" type="line"/>
      <point x="552" y="894"/>
      <point x="541" y="882"/>
      <point x="519" y="882" type="curve" smooth="yes"/>
      <point x="505" y="882"/>
      <point x="482" y="890"/>
      <point x="449" y="906" type="curve" smooth="yes"/>
      <point x="397" y="932"/>
      <point x="381" y="937"/>
      <point x="353" y="937" type="curve" smooth="yes"/>
      <point x="295" y="937"/>
      <point x="246" y="881"/>
      <point x="234" y="802" type="curve"/>
      <point x="284" y="802" type="line"/>
      <point x="292" y="834"/>
      <point x="308" y="852"/>
      <point x="328" y="852" type="curve" smooth="yes"/>
      <point x="341" y="852"/>
      <point x="364" y="844"/>
      <point x="388" y="831" type="curve" smooth="yes"/>
      <point x="441" y="802"/>
      <point x="455" y="797"/>
      <point x="490" y="797" type="curve" smooth="yes"/>
      <point x="528" y="797"/>
      <point x="554" y="811"/>
      <point x="581" y="847" type="curve" smooth="yes"/>
      <point x="601" y="874"/>
      <point x="611" y="899"/>
      <point x="615" y="933" type="curve"/>
    </contour>
  </outline>
</glyph>
<glyph name="Odieresis" format="2">
  <advance width="833"/>
  <unicode hex="00D6"/>
  <outline>
    <component base="O"/>
    <contour>
      <point x="310" y="938" type="curve" smooth="yes"/>
      <point x="271" y="938"/>
      <point x="239" y="906"/>
      <point x="239" y="867" type="curve" smooth="yes"/>
      <point x="239" y="829"/>
      <point x="271" y="797"/>
      <point x="309" y="797" type="curve" smooth="yes"/>
      <point x="349" y="797"/>
      <point x="380" y="828"/>
      <point x="380" y="868" type="curve" smooth="yes"/>
      <point x="380" y="907"/>
      <point x="349" y="938"/>
    </contour>
    <contour>
      <point x="525" y="938" type="curve" smooth="yes"/>
      <point x="486" y="938"/>
      <point x="454" y="906"/>
      <point x="454" y="867" type="curve" smooth="yes"/>
      <point x="454" y="829"/>
      <point x="486" y="797"/>
      <point x="524" y="797" type="curve" smooth="yes"/>
      <point x="564" y="797"/>
      <point x="595" y="828"/>
      <point x="595" y="868" type="curve" smooth="yes"/>
      <point x="595" y="907"/>
      <point x="564" y="938"/>
    </contour>
  </outline>
</glyph>
<glyph name="Ugrave" format="2">
  <advance width="833"/>
  <unicode hex="00D9"/>
  <outline>
    <component base="U"/>
    <contour>
      <point x="529" y="790" type="line"/>
      <point x="416" y="929" type="line" smooth="yes"/>
      <point x="381" y="972"/>
      <point x="369" y="980"/>
      <point x="339" y="980" type="curve" smooth="yes"/>
      <point x="307" y="980"/>
      <point x="282" y="958"/>
      <point x="282" y="930" type="curve" smooth="yes"/>
      <point x="282" y="909"/>
      <point x="294" y="892"/>
      <point x="318" y="878" type="curve" smooth="yes"/>
      <point x="465" y="790" type="line"/>
    </contour>
  </outline>
</glyph>
<glyph name="Uacute" format="2">
  <advance width="833"/>
  <unicode hex="00DA"/>
  <outline>
    <component base="U"/>
    <contour>
      <point x="374" y="790" type="line"/>
      <point x="438" y="790" type="line"/>
      <point x="585" y="878" type="line" smooth="yes"/>
      <point x="609" y="892"/>
      <point x="621" y="909"/>
      <point x="621" y="930" type="curve" smooth="yes"/>
      <point x="621" y="958"/>
      <point x="596" y="980"/>
      <point x="564" y="980" type="curve" smooth="yes"/>
      <point x="534" y="980"/>
      <point x="522" y="972"/>
      <point x="487" y="929" type="curve" smooth="yes"/>
    </contour>
  </outline>
</glyph>
<glyph name="Ucircumflex" format="2">
  <advance width="833"/>
  <unicode hex="00DB"/>
  <outline>
    <component base="U"/>
    <contour>
      <point x="265" y="790" type="line"/>
      <point x="332" y="790" type="line"/>
      <point x="441" y="884" type="line"/>
      <point x="550" y="790" type="line"/>
      <point x="616" y="790" type="line"/>
      <point x="495" y="969" type="line"/>
      <point x="386" y="969" type="line"/>
    </contour>
  </outline>
</glyph>
<glyph name="Yacute" format="2">
  <advance width="722"/>
  <unicode hex="00DD"/>
  <outline>
    <component base="Y"/>
    <contour>
      <point x="307" y="790" type="line"/>
      <point x="371" y="790" type="line"/>
      <point x="518" y="878" type="line" smooth="yes"/>
      <point x="544" y="893"/>
      <point x="555" y="909"/>
      <point x="555" y="930" type="curve" smooth="yes"/>
      <point x="555" y="958"/>
      <point x="530" y="980"/>
      <point x="497" y="980" type="curve" smooth="yes"/>
      <point x="468" y="980"/>
      <point x="455" y="971"/>
      <point x="420" y="929" type="curve" smooth="yes"/>
    </contour>
  </outline>
</glyph>
<glyph name="Thorn" format="2">
  <advance width="759"/>
  <unicode hex="00DE"/>
  <outline>
    <contour>
      <point x="24" y="0" type="line"/>
      <point x="413" y="0" type="line"/>
      <point x="413" y="54" type="line"/>
      <point x="398" y="54" type="line" smooth="yes"/>
      <point x="344" y="55"/>
      <point x="324" y="58"/>
      <point x="315" y="69" type="curve"/>
      <point x="308" y="79"/>
      <point x="308" y="82"/>
      <point x="308" y="144" type="curve" smooth="yes"/>
      <point x="308" y="166" type="line"/>
      <point x="420" y="166" type="line" smooth="yes"/>
      <point x="630" y="166"/>
      <point x="735" y="237"/>
      <point x="735" y="377" type="curve" smooth="yes"/>
      <point x="735" y="452"/>
      <point x="698" y="513"/>
      <point x="634" y="543" type="curve" smooth="yes"/>
      <point x="580" y="568"/>
      <point x="521" y="578"/>
      <point x="421" y="578" type="curve" smooth="yes"/>
      <point x="308" y="578" type="line"/>
      <point x="308" y="639"/>
      <point x="308" y="644"/>
      <point x="315" y="654" type="curve"/>
      <point x="324" y="664"/>
      <point x="344" y="668"/>
      <point x="398" y="668" type="curve" smooth="yes"/>
      <point x="413" y="668" type="line"/>
      <point x="413" y="722" type="line"/>
      <point x="24" y="722" type="line"/>
      <point x="24" y="668" type="line"/>
      <point x="39" y="668" type="line" smooth="yes"/>
      <point x="93" y="668"/>
      <point x="112" y="664"/>
      <point x="121" y="654" type="curve"/>
      <point x="128" y="643"/>
      <point x="128" y="639"/>
      <point x="128" y="578" type="curve" smooth="yes"/>
      <point x="128" y="144" type="line" smooth="yes"/>
      <point x="128" y="83"/>
      <point x="128" y="79"/>
      <point x="121" y="69" type="curve"/>
      <point x="112" y="58"/>
      <point x="93" y="55"/>
      <point x="39" y="54" type="curve" smooth="yes"/>
      <point x="24" y="54" type="line"/>
    </contour>
    <contour>
      <point x="308" y="221" type="line"/>
      <point x="308" y="463" type="line" smooth="yes"/>
      <point x="308" y="511"/>
      <point x="318" y="523"/>
      <point x="363" y="523" type="curve" smooth="yes"/>
      <point x="403" y="523" type="line" smooth="yes"/>
      <point x="501" y="523"/>
      <point x="543" y="480"/>
      <point x="543" y="379" type="curve" smooth="yes"/>
      <point x="543" y="262"/>
      <point x="497" y="221"/>
      <point x="367" y="221" type="curve" smooth="yes"/>
    </contour>
  </outline>
</glyph>
<glyph name="germandbls" format="2">
  <advance width="611"/>
  <unicode hex="00DF"/>
  <outline>
    <contour>
      <point x="85" y="144" type="line"/>
      <point x="85" y="90" type="line"/>
      <point x="84" y="76"/>
      <point x="83" y="70"/>
      <point x="79" y="64" type="curve"/>
      <point x="72" y="55"/>
      <point x="53" y="51"/>
      <point x="10" y="51" type="curve" smooth="yes"/>
      <point x="6" y="51" type="line"/>
      <point x="6" y="0" type="line"/>
      <point x="242" y="0" type="line"/>
      <point x="242" y="541" type="line" smooth="yes"/>
      <point x="242" y="653"/>
      <point x="258" y="685"/>
      <point x="312" y="685" type="curve" smooth="yes"/>
      <point x="369" y="685"/>
      <point x="390" y="651"/>
      <point x="390" y="558" type="curve" smooth="yes"/>
      <point x="390" y="473"/>
      <point x="375" y="438"/>
      <point x="338" y="438" type="curve" smooth="yes"/>
      <point x="311" y="439" type="line" smooth="yes"/>
      <point x="301" y="439"/>
      <point x="291" y="425"/>
      <point x="291" y="412" type="curve" smooth="yes"/>
      <point x="291" y="397"/>
      <point x="298" y="392"/>
      <point x="318" y="392" type="curve" smooth="yes"/>
      <point x="356" y="392"/>
      <point x="364" y="390"/>
      <point x="375" y="382" type="curve" smooth="yes"/>
      <point x="400" y="364"/>
      <point x="413" y="307"/>
      <point x="413" y="219" type="curve" smooth="yes"/>
      <point x="413" y="97"/>
      <point x="394" y="37"/>
      <point x="355" y="37" type="curve" smooth="yes"/>
      <point x="334" y="37"/>
      <point x="313" y="46"/>
      <point x="293" y="63" type="curve"/>
      <point x="293" y="0" type="line"/>
      <point x="321" y="-11"/>
      <point x="340" y="-15"/>
      <point x="367" y="-15" type="curve" smooth="yes"/>
      <point x="487" y="-15"/>
      <point x="575" y="83"/>
      <point x="575" y="215" type="curve" smooth="yes"/>
      <point x="575" y="321"/>
      <point x="515" y="399"/>
      <point x="415" y="423" type="curve"/>
      <point x="493" y="446"/>
      <point x="537" y="501"/>
      <point x="537" y="574" type="curve" smooth="yes"/>
      <point x="537" y="623"/>
      <point x="513" y="671"/>
      <point x="474" y="698" type="curve" smooth="yes"/>
      <point x="436" y="724"/>
      <point x="383" y="737"/>
      <point x="313" y="737" type="curve" smooth="yes"/>
      <point x="153" y="737"/>
      <point x="85" y="665"/>
      <point x="85" y="498" type="curve" smooth="yes"/>
    </contour>
  </outline>
</glyph>
<glyph name="agrave" format="2">
  <advance width="611"/>
  <unicode hex="00E0"/>
  <outline>
    <component base="a"/>
    <contour>
      <point x="375" y="545" type="line"/>
      <point x="262" y="683" type="line" smooth="yes"/>
      <point x="238" y="712"/>
      <point x="238" y="712"/>
      <point x="233" y="716" type="curve" smooth="yes"/>
      <point x="217" y="728"/>
      <point x="202" y="734"/>
      <point x="185" y="734" type="curve" smooth="yes"/>
      <point x="153" y="734"/>
      <point x="128" y="712"/>
      <point x="128" y="684" type="curve" smooth="yes"/>
      <point x="128" y="663"/>
      <point x="140" y="646"/>
      <point x="164" y="632" type="curve" smooth="yes"/>
      <point x="311" y="545" type="line"/>
    </contour>
  </outline>
</glyph>
<glyph name="aacute" format="2">
  <advance width="611"/>
  <unicode hex="00E1"/>
  <outline>
    <component base="a"/>
    <contour>
      <point x="220" y="545" type="line"/>
      <point x="284" y="545" type="line"/>
      <point x="431" y="632" type="line" smooth="yes"/>
      <point x="455" y="646"/>
      <point x="467" y="663"/>
      <point x="467" y="684" type="curve" smooth="yes"/>
      <point x="467" y="712"/>
      <point x="442" y="734"/>
      <point x="410" y="734" type="curve" smooth="yes"/>
      <point x="380" y="734"/>
      <point x="368" y="726"/>
      <point x="332" y="683" type="curve" smooth="yes"/>
    </contour>
  </outline>
</glyph>
<glyph name="atilde" format="2">
  <advance width="611"/>
  <unicode hex="00E3"/>
  <outline>
    <component base="a"/>
    <contour>
      <point x="441" y="701" type="line"/>
      <point x="428" y="663"/>
      <point x="416" y="651"/>
      <point x="395" y="651" type="curve" smooth="yes"/>
      <point x="380" y="651"/>
      <point x="358" y="659"/>
      <point x="324" y="675" type="curve" smooth="yes"/>
      <point x="272" y="700"/>
      <point x="256" y="705"/>
      <point x="229" y="705" type="curve" smooth="yes"/>
      <point x="171" y="705"/>
      <point x="122" y="649"/>
      <point x="109" y="570" type="curve"/>
      <point x="159" y="570" type="line"/>
      <point x="168" y="602"/>
      <point x="184" y="620"/>
      <point x="204" y="620" type="curve" smooth="yes"/>
      <point x="217" y="620"/>
      <point x="240" y="612"/>
      <point x="264" y="599" type="curve" smooth="yes"/>
      <point x="316" y="571"/>
      <point x="331" y="566"/>
      <point x="365" y="566" type="curve" smooth="yes"/>
      <point x="403" y="566"/>
      <point x="429" y="580"/>
      <point x="457" y="616" type="curve" smooth="yes"/>
      <point x="477" y="643"/>
      <point x="486" y="667"/>
      <point x="490" y="701" type="curve"/>
    </contour>
  </outline>
</glyph>
<glyph name="adieresis" format="2">
  <advance width="611"/>
  <unicode hex="00E4"/>
  <outline>
    <component base="a"/>
    <contour>
      <point x="183" y="693" type="curve" smooth="yes"/>
      <point x="144" y="693"/>
      <point x="112" y="661"/>
      <point x="112" y="622" type="curve" smooth="yes"/>
      <point x="112" y="584"/>
      <point x="144" y="552"/>
      <point x="182" y="552" type="curve" smooth="yes"/>
      <point x="222" y="552"/>
      <point x="253" y="583"/>
      <point x="253" y="623" type="curve" smooth="yes"/>
      <point x="253" y="662"/>
      <point x="222" y="693"/>
    </contour>
    <contour>
      <point x="398" y="693" type="curve" smooth="yes"/>
      <point x="359" y="693"/>
      <point x="327" y="661"/>
      <point x="327" y="622" type="curve" smooth="yes"/>
      <point x="327" y="584"/>
      <point x="359" y="552"/>
      <point x="397" y="552" type="curve" smooth="yes"/>
      <point x="437" y="552"/>
      <point x="468" y="583"/>
      <point x="468" y="623" type="curve" smooth="yes"/>
      <point x="468" y="662"/>
      <point x="437" y="693"/>
    </contour>
  </outline>
</glyph>
<glyph name="aring" format="2">
  <advance width="611"/>
  <unicode hex="00E5"/>
  <outline>
    <component base="a"/>
    <contour>
      <point x="296" y="760" type="curve" smooth="yes"/>
      <point x="236" y="760"/>
      <point x="188" y="712"/>
      <point x="188" y="653" type="curve" smooth="yes"/>
      <point x="188" y="594"/>
      <point x="236" y="545"/>
      <point x="294" y="545" type="curve" smooth="yes"/>
      <point x="355" y="545"/>
      <point x="403" y="593"/>
      <point x="403" y="653" type="curve" smooth="yes"/>
      <point x="403" y="712"/>
      <point x="355" y="760"/>
    </contour>
    <contour>
      <point x="296" y="708" type="curve" smooth="yes"/>
      <point x="324" y="708"/>
      <point x="348" y="683"/>
      <point x="348" y="653" type="curve" smooth="yes"/>
      <point x="348" y="622"/>
      <point x="325" y="597"/>
      <point x="295" y="597" type="curve" smooth="yes"/>
      <point x="267" y="597"/>
      <point x="243" y="622"/>
      <point x="243" y="652" type="curve" smooth="yes"/>
      <point x="243" y="683"/>
      <point x="267" y="708"/>
    </contour>
  </outline>
</glyph>
<glyph name="egrave" format="2">
  <advance width="574"/>
  <unicode hex="00E8"/>
  <outline>
    <component base="e"/>
    <contour>
      <point x="382" y="545" type="line"/>
      <point x="269" y="683" type="line" smooth="yes"/>
      <point x="245" y="712"/>
      <point x="245" y="712"/>
      <point x="240" y="716" type="curve" smooth="yes"/>
      <point x="224" y="728"/>
      <point x="208" y="734"/>
      <point x="192" y="734" type="curve" smooth="yes"/>
      <point x="161" y="734"/>
      <point x="135" y="712"/>
      <point x="135" y="685" type="curve" smooth="yes"/>
      <point x="135" y="664"/>
      <point x="147" y="646"/>
      <point x="171" y="632" type="curve" smooth="yes"/>
      <point x="318" y="545" type="line"/>
    </contour>
  </outline>
</glyph>
<glyph name="eacute" format="2">
  <advance width="574"/>
  <unicode hex="00E9"/>
  <outline>
    <component base="e"/>
    <contour>
      <point x="225" y="545" type="line"/>
      <point x="289" y="545" type="line"/>
      <point x="435" y="632" type="line" smooth="yes"/>
      <point x="460" y="646"/>
      <point x="472" y="663"/>
      <point x="472" y="684" type="curve" smooth="yes"/>
      <point x="472" y="712"/>
      <point x="447" y="734"/>
      <point x="415" y="734" type="curve" smooth="yes"/>
      <point x="385" y="734"/>
      <point x="372" y="726"/>
      <point x="337" y="683" type="curve" smooth="yes"/>
    </contour>
  </outline>
</glyph>
<glyph name="edieresis" format="2">
  <advance width="574"/>
  <unicode hex="00EB"/>
  <outline>
    <component base="e"/>
    <contour>
      <point x="188" y="693" type="curve" smooth="yes"/>
      <point x="149" y="693"/>
      <point x="117" y="661"/>
      <point x="117" y="622" type="curve" smooth="yes"/>
      <point x="117" y="584"/>
      <point x="149" y="552"/>
      <point x="187" y="552" type="curve" smooth="yes"/>
      <point x="227" y="552"/>
      <point x="258" y="583"/>
      <point x="258" y="623" type="curve" smooth="yes"/>
      <point x="258" y="662"/>
      <point x="227" y="693"/>
    </contour>
    <contour>
      <point x="403" y="693" type="curve" smooth="yes"/>
      <point x="364" y="693"/>
      <point x="332" y="661"/>
      <point x="332" y="622" type="curve" smooth="yes"/>
      <point x="332" y="584"/>
      <point x="364" y="552"/>
      <point x="402" y="552" type="curve" smooth="yes"/>
      <point x="442" y="552"/>
      <point x="473" y="583"/>
      <point x="473" y="623" type="curve" smooth="yes"/>
      <point x="473" y="662"/>
      <point x="442" y="693"/>
    </contour>
  </outline>
</glyph>
<glyph name="igrave" format="2">
  <advance width="370"/>
  <unicode hex="00EC"/>
  <outline>
    <component base="dotlessi"/>
    <contour>
      <point x="268" y="545" type="line"/>
      <point x="155" y="683" type="line" smooth="yes"/>
      <point x="120" y="726"/>
      <point x="108" y="734"/>
      <point x="78" y="734" type="curve" smooth="yes"/>
      <point x="46" y="734"/>
      <point x="21" y="712"/>
      <point x="21" y="684" type="curve" smooth="yes"/>
      <point x="21" y="663"/>
      <point x="33" y="646"/>
      <point x="57" y="632" type="curve" smooth="yes"/>
      <point x="204" y="545" type="line"/>
    </contour>
  </outline>
</glyph>
<glyph name="iacute" format="2">
  <advance width="370"/>
  <unicode hex="00ED"/>
  <outline>
    <contour>
      <point x="263" y="473" type="line"/>
      <point x="28" y="466" type="line"/>
      <point x="28" y="415" type="line"/>
      <point x="42" y="415" type="line" smooth="yes"/>
      <point x="103" y="414"/>
      <point x="106" y="410"/>
      <point x="106" y="321" type="curve" smooth="yes"/>
      <point x="106" y="144" type="line"/>
      <point x="106" y="98" type="line"/>
      <point x="106" y="90" type="line"/>
      <point x="105" y="76"/>
      <point x="104" y="70"/>
      <point x="100" y="64" type="curve" smooth="yes"/>
      <point x="94" y="55"/>
      <point x="74" y="51"/>
      <point x="32" y="51" type="curve" smooth="yes"/>
      <point x="28" y="51" type="line"/>
      <point x="28" y="0" type="line"/>
      <point x="341" y="0" type="line"/>
      <point x="341" y="51" type="line"/>
      <point x="335" y="51" type="line" smooth="yes"/>
      <point x="272" y="52"/>
      <point x="263" y="58"/>
      <point x="263" y="94" type="curve" smooth="yes"/>
      <point x="263" y="144" type="line"/>
    </contour>
    <contour>
      <point x="103" y="545" type="line"/>
      <point x="167" y="545" type="line"/>
      <point x="314" y="632" type="line" smooth="yes"/>
      <point x="338" y="646"/>
      <point x="350" y="663"/>
      <point x="350" y="684" type="curve" smooth="yes"/>
      <point x="350" y="712"/>
      <point x="325" y="734"/>
      <point x="293" y="734" type="curve" smooth="yes"/>
      <point x="263" y="734"/>
      <point x="251" y="726"/>
      <point x="216" y="683" type="curve" smooth="yes"/>
    </contour>
  </outline>
</glyph>
<glyph name="icircumflex" format="2">
  <advance width="370"/>
  <unicode hex="00EE"/>
  <outline>
    <component base="dotlessi"/>
    <contour>
      <point x="11" y="544" type="line"/>
      <point x="78" y="544" type="line"/>
      <point x="187" y="637" type="line"/>
      <point x="295" y="544" type="line"/>
      <point x="362" y="544" type="line"/>
      <point x="241" y="722" type="line"/>
      <point x="132" y="722" type="line"/>
    </contour>
  </outline>
</glyph>
<glyph name="idieresis" format="2">
  <advance width="370"/>
  <unicode hex="00EF"/>
  <outline>
    <component base="dotlessi"/>
    <contour>
      <point x="79" y="693" type="curve" smooth="yes"/>
      <point x="40" y="693"/>
      <point x="8" y="661"/>
      <point x="8" y="622" type="curve" smooth="yes"/>
      <point x="8" y="584"/>
      <point x="40" y="552"/>
      <point x="78" y="552" type="curve" smooth="yes"/>
      <point x="118" y="552"/>
      <point x="149" y="583"/>
      <point x="149" y="623" type="curve" smooth="yes"/>
      <point x="149" y="662"/>
      <point x="118" y="693"/>
    </contour>
    <contour>
      <point x="294" y="693" type="curve" smooth="yes"/>
      <point x="255" y="693"/>
      <point x="223" y="661"/>
      <point x="223" y="622" type="curve" smooth="yes"/>
      <point x="223" y="584"/>
      <point x="255" y="552"/>
      <point x="293" y="552" type="curve" smooth="yes"/>
      <point x="333" y="552"/>
      <point x="364" y="583"/>
      <point x="364" y="623" type="curve" smooth="yes"/>
      <point x="364" y="662"/>
      <point x="333" y="693"/>
    </contour>
  </outline>
</glyph>
<glyph name="eth" format="2">
  <advance width="611"/>
  <unicode hex="00F0"/>
  <outline>
    <contour>
      <point x="404" y="748" type="line"/>
      <point x="376" y="793" type="line"/>
      <point x="251" y="717" type="line"/>
      <point x="246" y="719"/>
      <point x="230" y="729"/>
      <point x="228" y="730" type="curve" smooth="yes"/>
      <point x="204" y="743"/>
      <point x="188" y="752"/>
      <point x="181" y="756" type="curve"/>
      <point x="162" y="765"/>
      <point x="145" y="772"/>
      <point x="114" y="783" type="curve"/>
      <point x="82" y="744" type="line"/>
      <point x="124" y="722"/>
      <point x="164" y="695"/>
      <point x="184" y="676" type="curve"/>
      <point x="82" y="611" type="line"/>
      <point x="109" y="568" type="line"/>
      <point x="225" y="640" type="line"/>
      <point x="270" y="601"/>
      <point x="310" y="548"/>
      <point x="346" y="482" type="curve"/>
      <point x="328" y="487"/>
      <point x="319" y="488"/>
      <point x="301" y="488" type="curve" smooth="yes"/>
      <point x="149" y="488"/>
      <point x="31" y="378"/>
      <point x="31" y="236" type="curve" smooth="yes"/>
      <point x="31" y="90"/>
      <point x="146" y="-15"/>
      <point x="304" y="-15" type="curve" smooth="yes"/>
      <point x="382" y="-15"/>
      <point x="449" y="9"/>
      <point x="500" y="55" type="curve" smooth="yes"/>
      <point x="553" y="103"/>
      <point x="579" y="165"/>
      <point x="579" y="246" type="curve" smooth="yes"/>
      <point x="579" y="394"/>
      <point x="485" y="540"/>
      <point x="296" y="683" type="curve"/>
    </contour>
    <contour>
      <point x="306" y="436" type="curve" smooth="yes"/>
      <point x="341" y="436"/>
      <point x="373" y="412"/>
      <point x="386" y="377" type="curve" smooth="yes"/>
      <point x="398" y="344"/>
      <point x="406" y="288"/>
      <point x="406" y="234" type="curve" smooth="yes"/>
      <point x="406" y="108"/>
      <point x="370" y="37"/>
      <point x="305" y="37" type="curve" smooth="yes"/>
      <point x="238" y="37"/>
      <point x="204" y="104"/>
      <point x="204" y="236" type="curve" smooth="yes"/>
      <point x="204" y="368"/>
      <point x="239" y="436"/>
    </contour>
  </outline>
</glyph>
<glyph name="ntilde" format="2">
  <advance width="685"/>
  <unicode hex="00F1"/>
  <outline>
    <component base="n"/>
    <contour>
      <point x="485" y="701" type="line"/>
      <point x="472" y="664"/>
      <point x="460" y="651"/>
      <point x="439" y="651" type="curve" smooth="yes"/>
      <point x="424" y="651"/>
      <point x="401" y="659"/>
      <point x="368" y="675" type="curve" smooth="yes"/>
      <point x="316" y="700"/>
      <point x="300" y="705"/>
      <point x="272" y="705" type="curve" smooth="yes"/>
      <point x="215" y="705"/>
      <point x="165" y="649"/>
      <point x="153" y="570" type="curve"/>
      <point x="203" y="570" type="line"/>
      <point x="212" y="602"/>
      <point x="228" y="620"/>
      <point x="247" y="620" type="curve" smooth="yes"/>
      <point x="261" y="620"/>
      <point x="284" y="612"/>
      <point x="307" y="599" type="curve" smooth="yes"/>
      <point x="360" y="571"/>
      <point x="374" y="566"/>
      <point x="409" y="566" type="curve" smooth="yes"/>
      <point x="447" y="566"/>
      <point x="473" y="580"/>
      <point x="500" y="616" type="curve" smooth="yes"/>
      <point x="521" y="643"/>
      <point x="530" y="667"/>
      <point x="534" y="701" type="curve"/>
    </contour>
  </outline>
</glyph>
<glyph name="ograve" format="2">
  <advance width="611"/>
  <unicode hex="00F2"/>
  <outline>
    <contour>
      <point x="308" y="488" type="curve" smooth="yes"/>
      <point x="149" y="488"/>
      <point x="31" y="380"/>
      <point x="31" y="235" type="curve" smooth="yes"/>
      <point x="31" y="90"/>
      <point x="146" y="-15"/>
      <point x="304" y="-15" type="curve" smooth="yes"/>
      <point x="462" y="-15"/>
      <point x="579" y="91"/>
      <point x="579" y="234" type="curve" smooth="yes"/>
      <point x="579" y="376"/>
      <point x="460" y="488"/>
    </contour>
    <contour>
      <point x="306" y="436" type="curve" smooth="yes"/>
      <point x="341" y="436"/>
      <point x="373" y="412"/>
      <point x="386" y="377" type="curve" smooth="yes"/>
      <point x="398" y="344"/>
      <point x="406" y="288"/>
      <point x="406" y="235" type="curve" smooth="yes"/>
      <point x="406" y="108"/>
      <point x="370" y="37"/>
      <point x="305" y="37" type="curve" smooth="yes"/>
      <point x="238" y="37"/>
      <point x="204" y="104"/>
      <point x="204" y="236" type="curve" smooth="yes"/>
      <point x="204" y="369"/>
      <point x="238" y="436"/>
    </contour>
    <contour>
      <point x="387" y="545" type="line"/>
      <point x="275" y="683" type="line" smooth="yes"/>
      <point x="239" y="726"/>
      <point x="227" y="734"/>
      <point x="197" y="734" type="curve" smooth="yes"/>
      <point x="165" y="734"/>
      <point x="140" y="712"/>
      <point x="140" y="684" type="curve" smooth="yes"/>
      <point x="140" y="663"/>
      <point x="152" y="646"/>
      <point x="176" y="632" type="curve" smooth="yes"/>
      <point x="323" y="545" type="line"/>
    </contour>
  </outline>
</glyph>
<glyph name="oacute" format="2">
  <advance width="611"/>
  <unicode hex="00F3"/>
  <outline>
    <component base="o"/>
    <contour>
      <point x="240" y="545" type="line"/>
      <point x="304" y="545" type="line"/>
      <point x="451" y="632" type="line" smooth="yes"/>
      <point x="475" y="646"/>
      <point x="487" y="663"/>
      <point x="487" y="684" type="curve" smooth="yes"/>
      <point x="487" y="712"/>
      <point x="462" y="734"/>
      <point x="430" y="734" type="curve" smooth="yes"/>
      <point x="400" y="734"/>
      <point x="388" y="726"/>
      <point x="352" y="683" type="curve" smooth="yes"/>
    </contour>
  </outline>
</glyph>
<glyph name="ocircumflex" format="2">
  <advance width="611"/>
  <unicode hex="00F4"/>
  <outline>
    <component base="o"/>
    <contour>
      <point x="131" y="544" type="line"/>
      <point x="198" y="544" type="line"/>
      <point x="307" y="637" type="line"/>
      <point x="415" y="544" type="line"/>
      <point x="482" y="544" type="line"/>
      <point x="361" y="722" type="line"/>
      <point x="252" y="722" type="line"/>
    </contour>
  </outline>
</glyph>
<glyph name="otilde" format="2">
  <advance width="611"/>
  <unicode hex="00F5"/>
  <outline>
    <component base="o"/>
    <contour>
      <point x="455" y="701" type="line"/>
      <point x="441" y="663"/>
      <point x="430" y="651"/>
      <point x="408" y="651" type="curve" smooth="yes"/>
      <point x="394" y="651"/>
      <point x="371" y="659"/>
      <point x="338" y="675" type="curve" smooth="yes"/>
      <point x="285" y="700"/>
      <point x="269" y="705"/>
      <point x="242" y="705" type="curve" smooth="yes"/>
      <point x="184" y="705"/>
      <point x="135" y="649"/>
      <point x="123" y="570" type="curve"/>
      <point x="172" y="570" type="line"/>
      <point x="181" y="602"/>
      <point x="197" y="620"/>
      <point x="217" y="620" type="curve" smooth="yes"/>
      <point x="230" y="620"/>
      <point x="254" y="612"/>
      <point x="277" y="599" type="curve" smooth="yes"/>
      <point x="329" y="571"/>
      <point x="344" y="566"/>
      <point x="378" y="566" type="curve" smooth="yes"/>
      <point x="417" y="566"/>
      <point x="443" y="580"/>
      <point x="470" y="616" type="curve" smooth="yes"/>
      <point x="490" y="643"/>
      <point x="500" y="667"/>
      <point x="504" y="701" type="curve"/>
    </contour>
  </outline>
</glyph>
<glyph name="odieresis" format="2">
  <advance width="611"/>
  <unicode hex="00F6"/>
  <outline>
    <component base="o"/>
    <contour>
      <point x="199" y="693" type="curve" smooth="yes"/>
      <point x="160" y="693"/>
      <point x="128" y="661"/>
      <point x="128" y="622" type="curve" smooth="yes"/>
      <point x="128" y="584"/>
      <point x="160" y="552"/>
      <point x="198" y="552" type="curve" smooth="yes"/>
      <point x="238" y="552"/>
      <point x="269" y="583"/>
      <point x="269" y="623" type="curve" smooth="yes"/>
      <point x="269" y="662"/>
      <point x="238" y="693"/>
    </contour>
    <contour>
      <point x="414" y="693" type="curve" smooth="yes"/>
      <point x="375" y="693"/>
      <point x="343" y="661"/>
      <point x="343" y="622" type="curve" smooth="yes"/>
      <point x="343" y="584"/>
      <point x="375" y="552"/>
      <point x="413" y="552" type="curve" smooth="yes"/>
      <point x="453" y="552"/>
      <point x="484" y="583"/>
      <point x="484" y="623" type="curve" smooth="yes"/>
      <point x="484" y="662"/>
      <point x="453" y="693"/>
    </contour>
  </outline>
</glyph>
<glyph name="divide" format="2">
  <advance width="606"/>
  <unicode hex="00F7"/>
  <outline>
    <component base="minus"/>
    <contour>
      <point x="305" y="136" type="curve" smooth="yes"/>
      <point x="258" y="136"/>
      <point x="220" y="99"/>
      <point x="220" y="53" type="curve" smooth="yes"/>
      <point x="220" y="6"/>
      <point x="257" y="-31"/>
      <point x="304" y="-31" type="curve" smooth="yes"/>
      <point x="350" y="-31"/>
      <point x="387" y="6"/>
      <point x="387" y="53" type="curve" smooth="yes"/>
      <point x="387" y="98"/>
      <point x="350" y="136"/>
    </contour>
    <contour>
      <point x="305" y="536" type="curve" smooth="yes"/>
      <point x="258" y="536"/>
      <point x="220" y="499"/>
      <point x="220" y="453" type="curve" smooth="yes"/>
      <point x="220" y="406"/>
      <point x="257" y="369"/>
      <point x="304" y="369" type="curve" smooth="yes"/>
      <point x="350" y="369"/>
      <point x="387" y="406"/>
      <point x="387" y="453" type="curve" smooth="yes"/>
      <point x="387" y="498"/>
      <point x="350" y="536"/>
    </contour>
  </outline>
</glyph>
<glyph name="ugrave" format="2">
  <advance width="685"/>
  <unicode hex="00F9"/>
  <outline>
    <component base="u"/>
    <contour>
      <point x="410" y="545" type="line"/>
      <point x="297" y="683" type="line" smooth="yes"/>
      <point x="273" y="712"/>
      <point x="273" y="712"/>
      <point x="268" y="716" type="curve" smooth="yes"/>
      <point x="252" y="728"/>
      <point x="237" y="734"/>
      <point x="220" y="734" type="curve" smooth="yes"/>
      <point x="188" y="734"/>
      <point x="163" y="712"/>
      <point x="163" y="684" type="curve" smooth="yes"/>
      <point x="163" y="663"/>
      <point x="175" y="646"/>
      <point x="199" y="632" type="curve" smooth="yes"/>
      <point x="346" y="545" type="line"/>
    </contour>
  </outline>
</glyph>
<glyph name="uacute" format="2">
  <advance width="685"/>
  <unicode hex="00FA"/>
  <outline>
    <contour>
      <point x="258" y="545" type="line"/>
      <point x="322" y="545" type="line"/>
      <point x="469" y="632" type="line" smooth="yes"/>
      <point x="493" y="646"/>
      <point x="505" y="663"/>
      <point x="505" y="684" type="curve" smooth="yes"/>
      <point x="505" y="712"/>
      <point x="480" y="734"/>
      <point x="448" y="734" type="curve" smooth="yes"/>
      <point x="418" y="734"/>
      <point x="406" y="726"/>
      <point x="371" y="683" type="curve" smooth="yes"/>
    </contour>
    <component base="u"/>
  </outline>
</glyph>
<glyph name="ucircumflex" format="2">
  <advance width="685"/>
  <unicode hex="00FB"/>
  <outline>
    <contour>
      <point x="152" y="544" type="line"/>
      <point x="219" y="544" type="line"/>
      <point x="328" y="637" type="line"/>
      <point x="436" y="544" type="line"/>
      <point x="503" y="544" type="line"/>
      <point x="382" y="722" type="line"/>
      <point x="273" y="722" type="line"/>
    </contour>
    <component base="u"/>
  </outline>
</glyph>
<glyph name="udieresis" format="2">
  <advance width="685"/>
  <unicode hex="00FC"/>
  <outline>
    <contour>
      <point x="231" y="693" type="curve" smooth="yes"/>
      <point x="192" y="693"/>
      <point x="160" y="661"/>
      <point x="160" y="622" type="curve" smooth="yes"/>
      <point x="160" y="584"/>
      <point x="192" y="552"/>
      <point x="230" y="552" type="curve" smooth="yes"/>
      <point x="270" y="552"/>
      <point x="301" y="583"/>
      <point x="301" y="623" type="curve" smooth="yes"/>
      <point x="301" y="662"/>
      <point x="270" y="693"/>
    </contour>
    <contour>
      <point x="446" y="693" type="curve" smooth="yes"/>
      <point x="407" y="693"/>
      <point x="375" y="661"/>
      <point x="375" y="622" type="curve" smooth="yes"/>
      <point x="375" y="584"/>
      <point x="407" y="552"/>
      <point x="445" y="552" type="curve" smooth="yes"/>
      <point x="485" y="552"/>
      <point x="516" y="583"/>
      <point x="516" y="623" type="curve" smooth="yes"/>
      <point x="516" y="662"/>
      <point x="485" y="693"/>
    </contour>
    <component base="u"/>
  </outline>
</glyph>
<glyph name="yacute" format="2">
  <advance width="611"/>
  <unicode hex="00FD"/>
  <outline>
    <component base="y"/>
    <contour>
      <point x="223" y="545" type="line"/>
      <point x="287" y="545" type="line"/>
      <point x="434" y="632" type="line" smooth="yes"/>
      <point x="458" y="646"/>
      <point x="470" y="663"/>
      <point x="470" y="684" type="curve" smooth="yes"/>
      <point x="470" y="712"/>
      <point x="445" y="734"/>
      <point x="413" y="734" type="curve" smooth="yes"/>
      <point x="383" y="734"/>
      <point x="371" y="726"/>
      <point x="336" y="683" type="curve" smooth="yes"/>
    </contour>
  </outline>
</glyph>
<glyph name="thorn" format="2">
  <advance width="667"/>
  <unicode hex="00FE"/>
  <outline>
    <contour>
      <point x="254" y="737" type="line"/>
      <point x="18" y="722" type="line"/>
      <point x="18" y="672" type="line"/>
      <point x="33" y="672" type="line" smooth="yes"/>
      <point x="95" y="671"/>
      <point x="98" y="666"/>
      <point x="97" y="574" type="curve"/>
      <point x="97" y="-58" type="line"/>
      <point x="97" y="-112" type="line"/>
      <point x="96" y="-126"/>
      <point x="95" y="-132"/>
      <point x="91" y="-138" type="curve" smooth="yes"/>
      <point x="85" y="-147"/>
      <point x="66" y="-150"/>
      <point x="22" y="-152" type="curve" smooth="yes"/>
      <point x="18" y="-152" type="line"/>
      <point x="18" y="-202" type="line"/>
      <point x="341" y="-202" type="line"/>
      <point x="341" y="-152" type="line"/>
      <point x="330" y="-152" type="line" smooth="yes"/>
      <point x="262" y="-150"/>
      <point x="254" y="-145"/>
      <point x="254" y="-108" type="curve" smooth="yes"/>
      <point x="254" y="-58" type="line"/>
      <point x="254" y="50" type="line"/>
      <point x="293" y="6"/>
      <point x="339" y="-15"/>
      <point x="396" y="-15" type="curve" smooth="yes"/>
      <point x="531" y="-15"/>
      <point x="632" y="98"/>
      <point x="632" y="249" type="curve" smooth="yes"/>
      <point x="632" y="387"/>
      <point x="539" y="488"/>
      <point x="410" y="488" type="curve" smooth="yes"/>
      <point x="342" y="488"/>
      <point x="299" y="466"/>
      <point x="254" y="409" type="curve"/>
    </contour>
    <contour>
      <point x="366" y="413" type="curve" smooth="yes"/>
      <point x="430" y="413"/>
      <point x="459" y="357"/>
      <point x="459" y="237" type="curve" smooth="yes"/>
      <point x="459" y="119"/>
      <point x="423" y="53"/>
      <point x="358" y="53" type="curve" smooth="yes"/>
      <point x="291" y="53"/>
      <point x="253" y="117"/>
      <point x="253" y="229" type="curve" smooth="yes"/>
      <point x="253" y="348"/>
      <point x="293" y="413"/>
    </contour>
  </outline>
</glyph>
<glyph name="ydieresis" format="2">
  <advance width="611"/>
  <unicode hex="00FF"/>
  <outline>
    <component base="y"/>
    <contour>
      <point x="206" y="693" type="curve" smooth="yes"/>
      <point x="167" y="693"/>
      <point x="135" y="661"/>
      <point x="135" y="622" type="curve" smooth="yes"/>
      <point x="135" y="584"/>
      <point x="167" y="552"/>
      <point x="205" y="552" type="curve" smooth="yes"/>
      <point x="245" y="552"/>
      <point x="276" y="583"/>
      <point x="276" y="623" type="curve" smooth="yes"/>
      <point x="276" y="662"/>
      <point x="245" y="693"/>
    </contour>
    <contour>
      <point x="421" y="693" type="curve" smooth="yes"/>
      <point x="382" y="693"/>
      <point x="350" y="661"/>
      <point x="350" y="622" type="curve" smooth="yes"/>
      <point x="350" y="584"/>
      <point x="382" y="552"/>
      <point x="420" y="552" type="curve" smooth="yes"/>
      <point x="460" y="552"/>
      <point x="491" y="583"/>
      <point x="491" y="623" type="curve" smooth="yes"/>
      <point x="491" y="662"/>
      <point x="460" y="693"/>
    </contour>
  </outline>
</glyph>
<glyph name="Cacute" format="2">
  <advance width="778"/>
  <unicode hex="0106"/>
  <outline>
    <component base="C"/>
    <contour>
      <point x="327" y="790" type="line"/>
      <point x="390" y="790" type="line"/>
      <point x="537" y="877" type="line" smooth="yes"/>
      <point x="561" y="891"/>
      <point x="573" y="908"/>
      <point x="573" y="929" type="curve" smooth="yes"/>
      <point x="573" y="957"/>
      <point x="548" y="979"/>
      <point x="516" y="979" type="curve" smooth="yes"/>
      <point x="487" y="979"/>
      <point x="474" y="971"/>
      <point x="439" y="928" type="curve" smooth="yes"/>
    </contour>
  </outline>
</glyph>
<glyph name="cacute" format="2">
  <advance width="556"/>
  <unicode hex="0107"/>
  <outline>
    <contour>
      <point x="475" y="177" type="line"/>
      <point x="461" y="140"/>
      <point x="452" y="124"/>
      <point x="437" y="104" type="curve" smooth="yes"/>
      <point x="413" y="72"/>
      <point x="374" y="53"/>
      <point x="332" y="53" type="curve" smooth="yes"/>
      <point x="250" y="53"/>
      <point x="204" y="123"/>
      <point x="204" y="247" type="curve" smooth="yes"/>
      <point x="204" y="367"/>
      <point x="248" y="436"/>
      <point x="323" y="436" type="curve" smooth="yes"/>
      <point x="352" y="436"/>
      <point x="375" y="424"/>
      <point x="375" y="408" type="curve" smooth="yes"/>
      <point x="375" y="404"/>
      <point x="375" y="404"/>
      <point x="364" y="390" type="curve" smooth="yes"/>
      <point x="347" y="367"/>
      <point x="344" y="359"/>
      <point x="344" y="340" type="curve" smooth="yes"/>
      <point x="344" y="297"/>
      <point x="378" y="267"/>
      <point x="426" y="267" type="curve" smooth="yes"/>
      <point x="480" y="267"/>
      <point x="515" y="300"/>
      <point x="515" y="352" type="curve" smooth="yes"/>
      <point x="515" y="435"/>
      <point x="437" y="488"/>
      <point x="316" y="488" type="curve" smooth="yes"/>
      <point x="150" y="488"/>
      <point x="31" y="380"/>
      <point x="31" y="229" type="curve" smooth="yes"/>
      <point x="31" y="83"/>
      <point x="139" y="-15"/>
      <point x="300" y="-15" type="curve" smooth="yes"/>
      <point x="374" y="-15"/>
      <point x="423" y="5"/>
      <point x="467" y="53" type="curve" smooth="yes"/>
      <point x="496" y="83"/>
      <point x="512" y="113"/>
      <point x="527" y="160" type="curve"/>
    </contour>
    <contour>
      <point x="236" y="545" type="line"/>
      <point x="299" y="545" type="line"/>
      <point x="446" y="632" type="line" smooth="yes"/>
      <point x="471" y="646"/>
      <point x="483" y="663"/>
      <point x="483" y="684" type="curve" smooth="yes"/>
      <point x="483" y="712"/>
      <point x="458" y="734"/>
      <point x="426" y="734" type="curve" smooth="yes"/>
      <point x="396" y="734"/>
      <point x="383" y="726"/>
      <point x="348" y="683" type="curve" smooth="yes"/>
    </contour>
  </outline>
</glyph>
<glyph name="Ccircumflex" format="2">
  <advance width="778"/>
  <unicode hex="0108"/>
  <outline>
    <component base="C"/>
    <contour>
      <point x="207" y="789" type="line"/>
      <point x="274" y="789" type="line"/>
      <point x="383" y="882" type="line"/>
      <point x="491" y="789" type="line"/>
      <point x="558" y="789" type="line"/>
      <point x="437" y="967" type="line"/>
      <point x="328" y="967" type="line"/>
    </contour>
  </outline>
</glyph>
<glyph name="ccircumflex" format="2">
  <advance width="556"/>
  <unicode hex="0109"/>
  <outline>
    <component base="c"/>
    <contour>
      <point x="105" y="544" type="line"/>
      <point x="171" y="544" type="line"/>
      <point x="280" y="637" type="line"/>
      <point x="389" y="544" type="line"/>
      <point x="456" y="544" type="line"/>
      <point x="335" y="722" type="line"/>
      <point x="225" y="722" type="line"/>
    </contour>
  </outline>
</glyph>
<glyph name="cdotaccent" format="2">
  <advance width="556"/>
  <unicode hex="010B"/>
  <outline>
    <component base="c"/>
    <contour>
      <point x="319" y="693" type="curve" smooth="yes"/>
      <point x="280" y="693"/>
      <point x="248" y="661"/>
      <point x="248" y="622" type="curve" smooth="yes"/>
      <point x="248" y="584"/>
      <point x="280" y="552"/>
      <point x="318" y="552" type="curve" smooth="yes"/>
      <point x="358" y="552"/>
      <point x="389" y="583"/>
      <point x="389" y="623" type="curve" smooth="yes"/>
      <point x="389" y="662"/>
      <point x="358" y="693"/>
    </contour>
  </outline>
</glyph>
<glyph name="Ccaron" format="2">
  <advance width="778"/>
  <unicode hex="010C"/>
  <outline>
    <component base="C"/>
    <contour>
      <point x="586" y="967" type="line"/>
      <point x="519" y="967" type="line"/>
      <point x="410" y="874" type="line"/>
      <point x="301" y="967" type="line"/>
      <point x="235" y="967" type="line"/>
      <point x="355" y="789" type="line"/>
      <point x="465" y="789" type="line"/>
    </contour>
  </outline>
</glyph>
<glyph name="ccaron" format="2">
  <advance width="556"/>
  <unicode hex="010D"/>
  <outline>
    <component base="c"/>
    <contour>
      <point x="495" y="722" type="line"/>
      <point x="428" y="722" type="line"/>
      <point x="319" y="629" type="line"/>
      <point x="210" y="722" type="line"/>
      <point x="144" y="722" type="line"/>
      <point x="264" y="544" type="line"/>
      <point x="374" y="544" type="line"/>
    </contour>
  </outline>
</glyph>
<glyph name="Dcaron" format="2">
  <advance width="833"/>
  <unicode hex="010E"/>
  <outline>
    <contour>
      <point x="19" y="0" type="line"/>
      <point x="387" y="0" type="line" smooth="yes"/>
      <point x="513" y="0"/>
      <point x="593" y="18"/>
      <point x="655" y="62" type="curve" smooth="yes"/>
      <point x="744" y="124"/>
      <point x="793" y="232"/>
      <point x="793" y="369" type="curve" smooth="yes"/>
      <point x="793" y="504"/>
      <point x="744" y="606"/>
      <point x="650" y="668" type="curve" smooth="yes"/>
      <point x="589" y="708"/>
      <point x="516" y="722"/>
      <point x="375" y="722" type="curve" smooth="yes"/>
      <point x="19" y="722" type="line"/>
      <point x="19" y="668" type="line"/>
      <point x="34" y="668" type="line" smooth="yes"/>
      <point x="87" y="668"/>
      <point x="107" y="664"/>
      <point x="116" y="653" type="curve"/>
      <point x="123" y="643"/>
      <point x="123" y="640"/>
      <point x="123" y="578" type="curve" smooth="yes"/>
      <point x="123" y="144" type="line" smooth="yes"/>
      <point x="123" y="82"/>
      <point x="123" y="79"/>
      <point x="116" y="69" type="curve"/>
      <point x="107" y="58"/>
      <point x="87" y="54"/>
      <point x="34" y="54" type="curve" smooth="yes"/>
      <point x="19" y="54" type="line"/>
    </contour>
    <contour>
      <point x="363" y="54" type="line" smooth="yes"/>
      <point x="312" y="55"/>
      <point x="303" y="65"/>
      <point x="303" y="119" type="curve" smooth="yes"/>
      <point x="303" y="608" type="line" smooth="yes"/>
      <point x="301" y="654"/>
      <point x="313" y="666"/>
      <point x="363" y="668" type="curve" smooth="yes"/>
      <point x="388" y="668" type="line" smooth="yes"/>
      <point x="527" y="668"/>
      <point x="594" y="571"/>
      <point x="594" y="371" type="curve" smooth="yes"/>
      <point x="594" y="264"/>
      <point x="573" y="167"/>
      <point x="541" y="122" type="curve" smooth="yes"/>
      <point x="510" y="80"/>
      <point x="451" y="54"/>
      <point x="384" y="54" type="curve" smooth="yes"/>
    </contour>
    <contour>
      <point x="593" y="967" type="line"/>
      <point x="526" y="967" type="line"/>
      <point x="417" y="874" type="line"/>
      <point x="309" y="967" type="line"/>
      <point x="242" y="967" type="line"/>
      <point x="363" y="789" type="line"/>
      <point x="472" y="789" type="line"/>
    </contour>
  </outline>
</glyph>
<glyph name="dcaron" format="2">
  <advance width="805"/>
  <unicode hex="010F"/>
  <outline>
    <component base="d"/>
    <contour>
      <point x="631" y="415" type="line"/>
      <point x="732" y="476"/>
      <point x="783" y="549"/>
      <point x="783" y="629" type="curve" smooth="yes"/>
      <point x="783" y="693"/>
      <point x="746" y="737"/>
      <point x="692" y="737" type="curve" smooth="yes"/>
      <point x="644" y="737"/>
      <point x="606" y="698"/>
      <point x="606" y="648" type="curve" smooth="yes"/>
      <point x="606" y="605"/>
      <point x="639" y="571"/>
      <point x="681" y="571" type="curve" smooth="yes"/>
      <point x="683" y="571"/>
      <point x="686" y="571"/>
      <point x="689" y="572" type="curve"/>
      <point x="693" y="572" type="line" smooth="yes"/>
      <point x="695" y="572"/>
      <point x="696" y="570"/>
      <point x="696" y="567" type="curve" smooth="yes"/>
      <point x="696" y="533"/>
      <point x="661" y="488"/>
      <point x="607" y="452" type="curve"/>
    </contour>
  </outline>
</glyph>
<glyph name="Emacron" format="2">
  <advance width="759"/>
  <unicode hex="0112"/>
  <outline>
    <component base="E"/>
    <contour>
      <point x="208" y="908" type="line"/>
      <point x="208" y="828" type="line"/>
      <point x="552" y="828" type="line"/>
      <point x="552" y="908" type="line"/>
    </contour>
  </outline>
</glyph>
<glyph name="emacron" format="2">
  <advance width="574"/>
  <unicode hex="0113"/>
  <outline>
    <component base="e"/>
    <contour>
      <point x="126" y="663" type="line"/>
      <point x="126" y="583" type="line"/>
      <point x="470" y="583" type="line"/>
      <point x="470" y="663" type="line"/>
    </contour>
  </outline>
</glyph>
<glyph name="ebreve" format="2">
  <advance width="574"/>
  <unicode hex="0115"/>
  <outline>
    <component base="e"/>
    <contour>
      <point x="128" y="712" type="line"/>
      <point x="128" y="606"/>
      <point x="186" y="545"/>
      <point x="286" y="545" type="curve" smooth="yes"/>
      <point x="383" y="545"/>
      <point x="444" y="606"/>
      <point x="444" y="705" type="curve"/>
      <point x="444" y="705"/>
      <point x="444" y="709"/>
      <point x="443" y="712" type="curve"/>
      <point x="391" y="712" type="line"/>
      <point x="383" y="656"/>
      <point x="350" y="630"/>
      <point x="286" y="630" type="curve" smooth="yes"/>
      <point x="222" y="630"/>
      <point x="189" y="657"/>
      <point x="181" y="712" type="curve"/>
    </contour>
  </outline>
</glyph>
<glyph name="edotaccent" format="2">
  <advance width="574"/>
  <unicode hex="0117"/>
  <outline>
    <component base="e"/>
    <contour>
      <point x="288" y="693" type="curve" smooth="yes"/>
      <point x="249" y="693"/>
      <point x="217" y="661"/>
      <point x="217" y="622" type="curve" smooth="yes"/>
      <point x="217" y="584"/>
      <point x="249" y="552"/>
      <point x="287" y="552" type="curve" smooth="yes"/>
      <point x="327" y="552"/>
      <point x="358" y="583"/>
      <point x="358" y="623" type="curve" smooth="yes"/>
      <point x="358" y="662"/>
      <point x="327" y="693"/>
    </contour>
  </outline>
</glyph>
<glyph name="Ecaron" format="2">
  <advance width="759"/>
  <unicode hex="011A"/>
  <outline>
    <component base="E"/>
    <contour>
      <point x="556" y="967" type="line"/>
      <point x="489" y="967" type="line"/>
      <point x="380" y="874" type="line"/>
      <point x="272" y="967" type="line"/>
      <point x="205" y="967" type="line"/>
      <point x="326" y="789" type="line"/>
      <point x="435" y="789" type="line"/>
    </contour>
  </outline>
</glyph>
<glyph name="ecaron" format="2">
  <advance width="574"/>
  <unicode hex="011B"/>
  <outline>
    <component base="e"/>
    <contour>
      <point x="464" y="722" type="line"/>
      <point x="397" y="722" type="line"/>
      <point x="288" y="629" type="line"/>
      <point x="179" y="722" type="line"/>
      <point x="113" y="722" type="line"/>
      <point x="233" y="544" type="line"/>
      <point x="343" y="544" type="line"/>
    </contour>
  </outline>
</glyph>
<glyph name="Gcircumflex" format="2">
  <advance width="833"/>
  <unicode hex="011C"/>
  <outline>
    <component base="G"/>
    <contour>
      <point x="254" y="789" type="line"/>
      <point x="320" y="789" type="line"/>
      <point x="429" y="882" type="line"/>
      <point x="538" y="789" type="line"/>
      <point x="605" y="789" type="line"/>
      <point x="484" y="967" type="line"/>
      <point x="374" y="967" type="line"/>
    </contour>
  </outline>
</glyph>
<glyph name="gbreve" format="2">
  <advance width="611"/>
  <unicode hex="011F"/>
  <outline>
    <component base="g"/>
    <contour>
      <point x="148" y="712" type="line"/>
      <point x="148" y="605"/>
      <point x="205" y="545"/>
      <point x="306" y="545" type="curve" smooth="yes"/>
      <point x="406" y="545"/>
      <point x="463" y="605"/>
      <point x="463" y="712" type="curve"/>
      <point x="410" y="712" type="line"/>
      <point x="403" y="657"/>
      <point x="369" y="630"/>
      <point x="306" y="630" type="curve" smooth="yes"/>
      <point x="242" y="630"/>
      <point x="208" y="657"/>
      <point x="201" y="712" type="curve"/>
    </contour>
  </outline>
</glyph>
<glyph name="Gdotaccent" format="2">
  <advance width="833"/>
  <unicode hex="0120"/>
  <outline>
    <component base="G"/>
    <contour>
      <point x="412" y="938" type="curve" smooth="yes"/>
      <point x="373" y="938"/>
      <point x="341" y="906"/>
      <point x="341" y="867" type="curve" smooth="yes"/>
      <point x="341" y="829"/>
      <point x="373" y="797"/>
      <point x="411" y="797" type="curve" smooth="yes"/>
      <point x="451" y="797"/>
      <point x="482" y="828"/>
      <point x="482" y="868" type="curve" smooth="yes"/>
      <point x="482" y="907"/>
      <point x="451" y="938"/>
    </contour>
  </outline>
</glyph>
<glyph name="gdotaccent" format="2">
  <advance width="611"/>
  <unicode hex="0121"/>
  <outline>
    <component base="g"/>
    <contour>
      <point x="295" y="693" type="curve" smooth="yes"/>
      <point x="256" y="693"/>
      <point x="224" y="661"/>
      <point x="224" y="622" type="curve" smooth="yes"/>
      <point x="224" y="584"/>
      <point x="256" y="552"/>
      <point x="294" y="552" type="curve" smooth="yes"/>
      <point x="334" y="552"/>
      <point x="365" y="583"/>
      <point x="365" y="623" type="curve" smooth="yes"/>
      <point x="365" y="662"/>
      <point x="334" y="693"/>
    </contour>
  </outline>
</glyph>
<glyph name="gcommaaccent" format="2">
  <advance width="611"/>
  <unicode hex="0123"/>
  <outline>
    <component base="g"/>
    <contour>
      <point x="369" y="837" type="line"/>
      <point x="268" y="775"/>
      <point x="217" y="703"/>
      <point x="217" y="623" type="curve" smooth="yes"/>
      <point x="217" y="559"/>
      <point x="254" y="515"/>
      <point x="309" y="515" type="curve" smooth="yes"/>
      <point x="357" y="515"/>
      <point x="395" y="554"/>
      <point x="395" y="604" type="curve" smooth="yes"/>
      <point x="395" y="647"/>
      <point x="362" y="681"/>
      <point x="319" y="681" type="curve" smooth="yes"/>
      <point x="317" y="681"/>
      <point x="314" y="681"/>
      <point x="311" y="680" type="curve"/>
      <point x="308" y="680" type="line" smooth="yes"/>
      <point x="305" y="680"/>
      <point x="304" y="682"/>
      <point x="304" y="685" type="curve" smooth="yes"/>
      <point x="304" y="719"/>
      <point x="338" y="763"/>
      <point x="394" y="800" type="curve"/>
    </contour>
  </outline>
</glyph>
<glyph name="hcircumflex" format="2">
  <advance width="685"/>
  <unicode hex="0125"/>
  <outline>
    <component base="h"/>
    <contour>
      <point x="167" y="789" type="line"/>
      <point x="233" y="789" type="line"/>
      <point x="342" y="882" type="line"/>
      <point x="451" y="789" type="line"/>
      <point x="518" y="789" type="line"/>
      <point x="397" y="967" type="line"/>
      <point x="287" y="967" type="line"/>
    </contour>
  </outline>
</glyph>
<glyph name="Hbar" format="2">
  <advance width="870"/>
  <unicode hex="0126"/>
  <outline>
    <contour>
      <point x="124" y="470" type="line"/>
      <point x="124" y="144" type="line" smooth="yes"/>
      <point x="124" y="82"/>
      <point x="124" y="79"/>
      <point x="117" y="69" type="curve"/>
      <point x="108" y="58"/>
      <point x="88" y="54"/>
      <point x="34" y="54" type="curve" smooth="yes"/>
      <point x="20" y="54" type="line"/>
      <point x="20" y="0" type="line"/>
      <point x="409" y="0" type="line"/>
      <point x="409" y="54" type="line"/>
      <point x="394" y="54" type="line" smooth="yes"/>
      <point x="340" y="54"/>
      <point x="320" y="58"/>
      <point x="311" y="69" type="curve"/>
      <point x="304" y="79"/>
      <point x="304" y="82"/>
      <point x="304" y="144" type="curve" smooth="yes"/>
      <point x="304" y="339" type="line"/>
      <point x="565" y="339" type="line"/>
      <point x="565" y="144" type="line" smooth="yes"/>
      <point x="565" y="82"/>
      <point x="565" y="78"/>
      <point x="558" y="69" type="curve" smooth="yes"/>
      <point x="549" y="58"/>
      <point x="529" y="54"/>
      <point x="476" y="54" type="curve" smooth="yes"/>
      <point x="461" y="54" type="line"/>
      <point x="461" y="0" type="line"/>
      <point x="850" y="0" type="line"/>
      <point x="850" y="54" type="line"/>
      <point x="835" y="54" type="line" smooth="yes"/>
      <point x="781" y="54"/>
      <point x="761" y="58"/>
      <point x="752" y="69" type="curve" smooth="yes"/>
      <point x="745" y="78"/>
      <point x="745" y="83"/>
      <point x="745" y="144" type="curve" smooth="yes"/>
      <point x="745" y="470" type="line"/>
      <point x="817" y="470" type="line"/>
      <point x="817" y="581" type="line"/>
      <point x="745" y="581" type="line"/>
      <point x="745" y="596" type="line"/>
      <point x="745" y="612" type="line" smooth="yes"/>
      <point x="745" y="628"/>
      <point x="746" y="638"/>
      <point x="748" y="645" type="curve" smooth="yes"/>
      <point x="753" y="663"/>
      <point x="772" y="667"/>
      <point x="835" y="668" type="curve" smooth="yes"/>
      <point x="850" y="668" type="line"/>
      <point x="850" y="722" type="line"/>
      <point x="461" y="722" type="line"/>
      <point x="461" y="668" type="line"/>
      <point x="476" y="668" type="line" smooth="yes"/>
      <point x="535" y="667"/>
      <point x="554" y="663"/>
      <point x="561" y="648" type="curve"/>
      <point x="565" y="638"/>
      <point x="565" y="633"/>
      <point x="565" y="581" type="curve"/>
      <point x="304" y="581" type="line"/>
      <point x="304" y="600" type="line" smooth="yes"/>
      <point x="303" y="664"/>
      <point x="306" y="667"/>
      <point x="394" y="668" type="curve" smooth="yes"/>
      <point x="409" y="668" type="line"/>
      <point x="409" y="722" type="line"/>
      <point x="20" y="722" type="line"/>
      <point x="20" y="668" type="line"/>
      <point x="34" y="668" type="line" smooth="yes"/>
      <point x="121" y="667"/>
      <point x="125" y="664"/>
      <point x="124" y="600" type="curve"/>
      <point x="124" y="581" type="line"/>
      <point x="45" y="581" type="line"/>
      <point x="45" y="470" type="line"/>
    </contour>
    <contour>
      <point x="304" y="470" type="line"/>
      <point x="565" y="470" type="line"/>
      <point x="565" y="399" type="line"/>
      <point x="304" y="399" type="line"/>
    </contour>
  </outline>
</glyph>
<glyph name="Itilde" format="2">
  <advance width="444"/>
  <unicode hex="0128"/>
  <outline>
    <component base="I"/>
    <contour>
      <point x="365" y="946" type="line"/>
      <point x="351" y="908"/>
      <point x="340" y="896"/>
      <point x="318" y="896" type="curve" smooth="yes"/>
      <point x="304" y="896"/>
      <point x="282" y="903"/>
      <point x="248" y="920" type="curve" smooth="yes"/>
      <point x="196" y="945"/>
      <point x="180" y="950"/>
      <point x="152" y="950" type="curve" smooth="yes"/>
      <point x="95" y="950"/>
      <point x="46" y="894"/>
      <point x="33" y="815" type="curve"/>
      <point x="83" y="815" type="line"/>
      <point x="92" y="847"/>
      <point x="108" y="865"/>
      <point x="127" y="865" type="curve" smooth="yes"/>
      <point x="141" y="865"/>
      <point x="163" y="857"/>
      <point x="187" y="844" type="curve" smooth="yes"/>
      <point x="240" y="816"/>
      <point x="254" y="811"/>
      <point x="288" y="811" type="curve" smooth="yes"/>
      <point x="327" y="811"/>
      <point x="353" y="825"/>
      <point x="380" y="861" type="curve" smooth="yes"/>
      <point x="400" y="888"/>
      <point x="410" y="912"/>
      <point x="414" y="946" type="curve"/>
    </contour>
  </outline>
</glyph>
<glyph name="itilde" format="2">
  <advance width="370"/>
  <unicode hex="0129"/>
  <outline>
    <component base="dotlessi"/>
    <contour>
      <point x="314" y="701" type="line"/>
      <point x="300" y="663"/>
      <point x="289" y="651"/>
      <point x="268" y="651" type="curve" smooth="yes"/>
      <point x="253" y="651"/>
      <point x="231" y="659"/>
      <point x="197" y="675" type="curve" smooth="yes"/>
      <point x="145" y="700"/>
      <point x="129" y="705"/>
      <point x="101" y="705" type="curve" smooth="yes"/>
      <point x="44" y="705"/>
      <point x="-6" y="649"/>
      <point x="-18" y="570" type="curve"/>
      <point x="32" y="570" type="line"/>
      <point x="41" y="602"/>
      <point x="57" y="620"/>
      <point x="76" y="620" type="curve" smooth="yes"/>
      <point x="90" y="620"/>
      <point x="113" y="612"/>
      <point x="136" y="599" type="curve" smooth="yes"/>
      <point x="189" y="571"/>
      <point x="203" y="566"/>
      <point x="238" y="566" type="curve" smooth="yes"/>
      <point x="276" y="566"/>
      <point x="302" y="580"/>
      <point x="329" y="616" type="curve" smooth="yes"/>
      <point x="350" y="643"/>
      <point x="359" y="667"/>
      <point x="363" y="701" type="curve"/>
    </contour>
  </outline>
</glyph>
<glyph name="Imacron" format="2">
  <advance width="444"/>
  <unicode hex="012A"/>
  <outline>
    <component base="I"/>
    <contour>
      <point x="51" y="908" type="line"/>
      <point x="51" y="828" type="line"/>
      <point x="395" y="828" type="line"/>
      <point x="395" y="908" type="line"/>
    </contour>
  </outline>
</glyph>
<glyph name="imacron" format="2">
  <advance width="370"/>
  <unicode hex="012B"/>
  <outline>
    <contour>
      <point x="264" y="473" type="line"/>
      <point x="29" y="466" type="line"/>
      <point x="29" y="415" type="line"/>
      <point x="43" y="415" type="line" smooth="yes"/>
      <point x="104" y="414"/>
      <point x="107" y="410"/>
      <point x="107" y="321" type="curve" smooth="yes"/>
      <point x="107" y="144" type="line"/>
      <point x="107" y="98" type="line"/>
      <point x="107" y="90" type="line"/>
      <point x="106" y="76"/>
      <point x="105" y="70"/>
      <point x="101" y="64" type="curve" smooth="yes"/>
      <point x="95" y="55"/>
      <point x="75" y="51"/>
      <point x="33" y="51" type="curve" smooth="yes"/>
      <point x="29" y="51" type="line"/>
      <point x="29" y="0" type="line"/>
      <point x="342" y="0" type="line"/>
      <point x="342" y="51" type="line"/>
      <point x="336" y="51" type="line" smooth="yes"/>
      <point x="273" y="52"/>
      <point x="264" y="58"/>
      <point x="264" y="94" type="curve" smooth="yes"/>
      <point x="264" y="144" type="line"/>
    </contour>
    <contour>
      <point x="14" y="663" type="line"/>
      <point x="14" y="583" type="line"/>
      <point x="358" y="583" type="line"/>
      <point x="358" y="663" type="line"/>
    </contour>
  </outline>
</glyph>
<glyph name="Ibreve" format="2">
  <advance width="444"/>
  <unicode hex="012C"/>
  <outline>
    <contour>
      <point x="28" y="0" type="line"/>
      <point x="417" y="0" type="line"/>
      <point x="417" y="54" type="line"/>
      <point x="402" y="54" type="line" smooth="yes"/>
      <point x="348" y="54"/>
      <point x="328" y="58"/>
      <point x="319" y="69" type="curve"/>
      <point x="312" y="79"/>
      <point x="312" y="82"/>
      <point x="312" y="144" type="curve" smooth="yes"/>
      <point x="312" y="578" type="line" smooth="yes"/>
      <point x="312" y="640"/>
      <point x="312" y="643"/>
      <point x="319" y="653" type="curve"/>
      <point x="328" y="664"/>
      <point x="348" y="668"/>
      <point x="402" y="668" type="curve" smooth="yes"/>
      <point x="417" y="668" type="line"/>
      <point x="417" y="722" type="line"/>
      <point x="28" y="722" type="line"/>
      <point x="28" y="668" type="line"/>
      <point x="43" y="668" type="line" smooth="yes"/>
      <point x="96" y="668"/>
      <point x="116" y="664"/>
      <point x="125" y="653" type="curve"/>
      <point x="132" y="643"/>
      <point x="132" y="640"/>
      <point x="132" y="578" type="curve" smooth="yes"/>
      <point x="132" y="144" type="line" smooth="yes"/>
      <point x="132" y="82"/>
      <point x="132" y="79"/>
      <point x="125" y="69" type="curve"/>
      <point x="116" y="58"/>
      <point x="96" y="54"/>
      <point x="43" y="54" type="curve" smooth="yes"/>
      <point x="28" y="54" type="line"/>
    </contour>
    <contour>
      <point x="65" y="957" type="line"/>
      <point x="65" y="851"/>
      <point x="122" y="790"/>
      <point x="223" y="790" type="curve" smooth="yes"/>
      <point x="323" y="790"/>
      <point x="380" y="851"/>
      <point x="380" y="957" type="curve"/>
      <point x="327" y="957" type="line"/>
      <point x="319" y="901"/>
      <point x="286" y="875"/>
      <point x="223" y="875" type="curve" smooth="yes"/>
      <point x="159" y="875"/>
      <point x="125" y="902"/>
      <point x="118" y="957" type="curve"/>
    </contour>
  </outline>
</glyph>
<glyph name="ibreve" format="2">
  <advance width="370"/>
  <unicode hex="012D"/>
  <outline>
    <contour>
      <point x="263" y="473" type="line"/>
      <point x="28" y="466" type="line"/>
      <point x="28" y="415" type="line"/>
      <point x="42" y="415" type="line" smooth="yes"/>
      <point x="103" y="414"/>
      <point x="106" y="410"/>
      <point x="106" y="321" type="curve" smooth="yes"/>
      <point x="106" y="144" type="line"/>
      <point x="106" y="97" type="line"/>
      <point x="106" y="90" type="line"/>
      <point x="105" y="76"/>
      <point x="104" y="70"/>
      <point x="100" y="64" type="curve"/>
      <point x="93" y="55"/>
      <point x="74" y="52"/>
      <point x="32" y="51" type="curve" smooth="yes"/>
      <point x="28" y="51" type="line"/>
      <point x="28" y="0" type="line"/>
      <point x="341" y="0" type="line"/>
      <point x="341" y="51" type="line"/>
      <point x="335" y="51" type="line" smooth="yes"/>
      <point x="271" y="53"/>
      <point x="263" y="58"/>
      <point x="263" y="94" type="curve" smooth="yes"/>
      <point x="263" y="144" type="line"/>
    </contour>
    <contour>
      <point x="27" y="712" type="line"/>
      <point x="27" y="606"/>
      <point x="84" y="545"/>
      <point x="184" y="545" type="curve" smooth="yes"/>
      <point x="285" y="545"/>
      <point x="342" y="606"/>
      <point x="342" y="712" type="curve"/>
      <point x="289" y="712" type="line"/>
      <point x="282" y="656"/>
      <point x="248" y="630"/>
      <point x="185" y="630" type="curve" smooth="yes"/>
      <point x="121" y="630"/>
      <point x="87" y="657"/>
      <point x="80" y="712" type="curve"/>
    </contour>
  </outline>
</glyph>
<glyph name="iogonek" format="2">
  <advance width="370"/>
  <unicode hex="012F"/>
  <outline>
    <contour>
      <point x="28" y="0" type="line"/>
      <point x="273" y="0" type="line"/>
      <point x="243" y="-29"/>
      <point x="231" y="-53"/>
      <point x="231" y="-89" type="curve" smooth="yes"/>
      <point x="231" y="-138"/>
      <point x="261" y="-170"/>
      <point x="307" y="-170" type="curve" smooth="yes"/>
      <point x="348" y="-170"/>
      <point x="383" y="-148"/>
      <point x="409" y="-105" type="curve"/>
      <point x="390" y="-73" type="line"/>
      <point x="372" y="-88"/>
      <point x="358" y="-95"/>
      <point x="341" y="-95" type="curve" smooth="yes"/>
      <point x="322" y="-95"/>
      <point x="311" y="-82"/>
      <point x="311" y="-59" type="curve" smooth="yes"/>
      <point x="311" y="-38"/>
      <point x="318" y="-23"/>
      <point x="341" y="0" type="curve"/>
      <point x="341" y="51" type="line"/>
      <point x="335" y="51" type="line" smooth="yes"/>
      <point x="272" y="52"/>
      <point x="263" y="58"/>
      <point x="263" y="94" type="curve" smooth="yes"/>
      <point x="263" y="144" type="line"/>
      <point x="263" y="473" type="line"/>
      <point x="28" y="466" type="line"/>
      <point x="28" y="415" type="line"/>
      <point x="42" y="415" type="line" smooth="yes"/>
      <point x="103" y="414"/>
      <point x="106" y="410"/>
      <point x="106" y="321" type="curve" smooth="yes"/>
      <point x="106" y="144" type="line"/>
      <point x="106" y="98" type="line"/>
      <point x="106" y="90" type="line"/>
      <point x="105" y="76"/>
      <point x="104" y="70"/>
      <point x="100" y="64" type="curve" smooth="yes"/>
      <point x="94" y="55"/>
      <point x="74" y="51"/>
      <point x="32" y="51" type="curve" smooth="yes"/>
      <point x="28" y="51" type="line"/>
    </contour>
    <contour>
      <point x="182" y="737" type="curve" smooth="yes"/>
      <point x="133" y="737"/>
      <point x="93" y="697"/>
      <point x="93" y="649" type="curve" smooth="yes"/>
      <point x="93" y="600"/>
      <point x="133" y="560"/>
      <point x="180" y="560" type="curve" smooth="yes"/>
      <point x="231" y="560"/>
      <point x="270" y="599"/>
      <point x="270" y="649" type="curve" smooth="yes"/>
      <point x="270" y="697"/>
      <point x="230" y="737"/>
    </contour>
  </outline>
</glyph>
<glyph name="IJ" format="2">
  <advance width="1086"/>
  <unicode hex="0132"/>
  <outline>
    <contour>
      <point x="23" y="0" type="line"/>
      <point x="412" y="0" type="line"/>
      <point x="412" y="54" type="line"/>
      <point x="397" y="54" type="line" smooth="yes"/>
      <point x="343" y="54"/>
      <point x="323" y="58"/>
      <point x="314" y="69" type="curve"/>
      <point x="307" y="79"/>
      <point x="307" y="82"/>
      <point x="307" y="144" type="curve" smooth="yes"/>
      <point x="307" y="578" type="line" smooth="yes"/>
      <point x="307" y="640"/>
      <point x="307" y="643"/>
      <point x="314" y="653" type="curve"/>
      <point x="323" y="664"/>
      <point x="343" y="668"/>
      <point x="397" y="668" type="curve" smooth="yes"/>
      <point x="412" y="668" type="line"/>
      <point x="412" y="722" type="line"/>
      <point x="23" y="722" type="line"/>
      <point x="23" y="668" type="line"/>
      <point x="38" y="668" type="line" smooth="yes"/>
      <point x="91" y="668"/>
      <point x="111" y="664"/>
      <point x="120" y="653" type="curve"/>
      <point x="127" y="643"/>
      <point x="127" y="640"/>
      <point x="127" y="578" type="curve" smooth="yes"/>
      <point x="127" y="144" type="line" smooth="yes"/>
      <point x="127" y="82"/>
      <point x="127" y="79"/>
      <point x="120" y="69" type="curve"/>
      <point x="111" y="58"/>
      <point x="91" y="54"/>
      <point x="38" y="54" type="curve" smooth="yes"/>
      <point x="23" y="54" type="line"/>
    </contour>
    <contour>
      <point x="689" y="668" type="line"/>
      <point x="704" y="668" type="line" smooth="yes"/>
      <point x="757" y="667"/>
      <point x="777" y="664"/>
      <point x="786" y="653" type="curve"/>
      <point x="793" y="643"/>
      <point x="793" y="640"/>
      <point x="793" y="578" type="curve" smooth="yes"/>
      <point x="793" y="245" type="line" smooth="yes"/>
      <point x="793" y="173"/>
      <point x="786" y="135"/>
      <point x="766" y="105" type="curve" smooth="yes"/>
      <point x="741" y="69"/>
      <point x="694" y="46"/>
      <point x="641" y="46" type="curve" smooth="yes"/>
      <point x="579" y="46"/>
      <point x="523" y="81"/>
      <point x="523" y="120" type="curve" smooth="yes"/>
      <point x="523" y="131"/>
      <point x="531" y="139"/>
      <point x="542" y="139" type="curve" smooth="yes"/>
      <point x="545" y="139"/>
      <point x="549" y="138"/>
      <point x="554" y="137" type="curve" smooth="yes"/>
      <point x="563" y="135"/>
      <point x="569" y="134"/>
      <point x="578" y="134" type="curve" smooth="yes"/>
      <point x="631" y="134"/>
      <point x="670" y="174"/>
      <point x="670" y="228" type="curve" smooth="yes"/>
      <point x="670" y="287"/>
      <point x="627" y="330"/>
      <point x="567" y="330" type="curve" smooth="yes"/>
      <point x="494" y="330"/>
      <point x="443" y="269"/>
      <point x="443" y="182" type="curve" smooth="yes"/>
      <point x="443" y="60"/>
      <point x="535" y="-15"/>
      <point x="684" y="-15" type="curve" smooth="yes"/>
      <point x="767" y="-15"/>
      <point x="834" y="5"/>
      <point x="885" y="46" type="curve" smooth="yes"/>
      <point x="948" y="96"/>
      <point x="973" y="162"/>
      <point x="973" y="280" type="curve" smooth="yes"/>
      <point x="973" y="578" type="line" smooth="yes"/>
      <point x="973" y="641"/>
      <point x="973" y="643"/>
      <point x="980" y="653" type="curve"/>
      <point x="989" y="664"/>
      <point x="1009" y="668"/>
      <point x="1063" y="668" type="curve" smooth="yes"/>
      <point x="1078" y="668" type="line"/>
      <point x="1078" y="722" type="line"/>
      <point x="689" y="722" type="line"/>
    </contour>
  </outline>
</glyph>
<glyph name="ij" format="2">
  <advance width="722"/>
  <unicode hex="0133"/>
  <outline>
    <contour>
      <point x="263" y="473" type="line"/>
      <point x="28" y="466" type="line"/>
      <point x="28" y="415" type="line"/>
      <point x="42" y="415" type="line" smooth="yes"/>
      <point x="103" y="414"/>
      <point x="106" y="410"/>
      <point x="106" y="321" type="curve" smooth="yes"/>
      <point x="106" y="144" type="line"/>
      <point x="106" y="98" type="line"/>
      <point x="106" y="90" type="line"/>
      <point x="105" y="76"/>
      <point x="104" y="70"/>
      <point x="100" y="64" type="curve" smooth="yes"/>
      <point x="94" y="55"/>
      <point x="74" y="51"/>
      <point x="32" y="51" type="curve" smooth="yes"/>
      <point x="28" y="51" type="line"/>
      <point x="28" y="0" type="line"/>
      <point x="341" y="0" type="line"/>
      <point x="341" y="51" type="line"/>
      <point x="335" y="51" type="line" smooth="yes"/>
      <point x="272" y="52"/>
      <point x="263" y="58"/>
      <point x="263" y="94" type="curve" smooth="yes"/>
      <point x="263" y="144" type="line"/>
    </contour>
    <contour>
      <point x="182" y="737" type="curve" smooth="yes"/>
      <point x="133" y="737"/>
      <point x="93" y="697"/>
      <point x="93" y="649" type="curve" smooth="yes"/>
      <point x="93" y="600"/>
      <point x="133" y="560"/>
      <point x="180" y="560" type="curve" smooth="yes"/>
      <point x="231" y="560"/>
      <point x="270" y="599"/>
      <point x="270" y="649" type="curve" smooth="yes"/>
      <point x="270" y="697"/>
      <point x="230" y="737"/>
    </contour>
    <contour>
      <point x="553" y="737" type="curve" smooth="yes"/>
      <point x="505" y="737"/>
      <point x="465" y="697"/>
      <point x="465" y="649" type="curve" smooth="yes"/>
      <point x="465" y="600"/>
      <point x="505" y="560"/>
      <point x="552" y="560" type="curve" smooth="yes"/>
      <point x="602" y="560"/>
      <point x="642" y="599"/>
      <point x="642" y="649" type="curve" smooth="yes"/>
      <point x="642" y="697"/>
      <point x="602" y="737"/>
    </contour>
    <contour>
      <point x="638" y="473" type="line"/>
      <point x="385" y="466" type="line"/>
      <point x="385" y="415" type="line"/>
      <point x="417" y="415" type="line" smooth="yes"/>
      <point x="477" y="414"/>
      <point x="481" y="409"/>
      <point x="481" y="329" type="curve" smooth="yes"/>
      <point x="481" y="-57" type="line" smooth="yes"/>
      <point x="481" y="-124"/>
      <point x="464" y="-155"/>
      <point x="427" y="-155" type="curve" smooth="yes"/>
      <point x="415" y="-155"/>
      <point x="408" y="-152"/>
      <point x="402" y="-144" type="curve"/>
      <point x="423" y="-130"/>
      <point x="431" y="-117"/>
      <point x="431" y="-94" type="curve" smooth="yes"/>
      <point x="431" y="-55"/>
      <point x="404" y="-27"/>
      <point x="366" y="-27" type="curve" smooth="yes"/>
      <point x="321" y="-27"/>
      <point x="288" y="-59"/>
      <point x="288" y="-102" type="curve" smooth="yes"/>
      <point x="288" y="-160"/>
      <point x="346" y="-202"/>
      <point x="428" y="-202" type="curve" smooth="yes"/>
      <point x="504" y="-202"/>
      <point x="572" y="-163"/>
      <point x="603" y="-101" type="curve" smooth="yes"/>
      <point x="629" y="-51"/>
      <point x="638" y="4"/>
      <point x="638" y="109" type="curve" smooth="yes"/>
    </contour>
  </outline>
</glyph>
<glyph name="jcircumflex" format="2">
  <advance width="352"/>
  <unicode hex="0135"/>
  <outline>
    <component base="dotlessj"/>
    <contour>
      <point x="-6" y="544" type="line"/>
      <point x="61" y="544" type="line"/>
      <point x="170" y="637" type="line"/>
      <point x="279" y="544" type="line"/>
      <point x="345" y="544" type="line"/>
      <point x="224" y="722" type="line"/>
      <point x="115" y="722" type="line"/>
    </contour>
  </outline>
</glyph>
<glyph name="kcommaaccent" format="2">
  <advance width="667"/>
  <unicode hex="0137"/>
  <outline>
    <contour>
      <point x="252" y="737" type="line"/>
      <point x="12" y="722" type="line"/>
      <point x="12" y="671" type="line"/>
      <point x="31" y="671" type="line" smooth="yes"/>
      <point x="92" y="671"/>
      <point x="96" y="666"/>
      <point x="95" y="578" type="curve"/>
      <point x="95" y="144" type="line"/>
      <point x="95" y="97" type="line"/>
      <point x="95" y="90" type="line"/>
      <point x="94" y="76"/>
      <point x="93" y="70"/>
      <point x="89" y="64" type="curve"/>
      <point x="82" y="55"/>
      <point x="63" y="51"/>
      <point x="19" y="51" type="curve" smooth="yes"/>
      <point x="15" y="51" type="line"/>
      <point x="15" y="0" type="line"/>
      <point x="320" y="0" type="line"/>
      <point x="320" y="51" type="line"/>
      <point x="264" y="51"/>
      <point x="251" y="59"/>
      <point x="252" y="94" type="curve" smooth="yes"/>
      <point x="252" y="144" type="line"/>
      <point x="252" y="172" type="line"/>
      <point x="298" y="213" type="line"/>
      <point x="390" y="101" type="line" smooth="yes"/>
      <point x="398" y="92"/>
      <point x="403" y="80"/>
      <point x="403" y="71" type="curve" smooth="yes"/>
      <point x="403" y="57"/>
      <point x="390" y="51"/>
      <point x="364" y="51" type="curve" smooth="yes"/>
      <point x="354" y="51" type="line"/>
      <point x="354" y="0" type="line"/>
      <point x="660" y="0" type="line"/>
      <point x="660" y="51" type="line"/>
      <point x="625" y="51"/>
      <point x="617" y="57"/>
      <point x="572" y="114" type="curve" smooth="yes"/>
      <point x="415" y="311" type="line"/>
      <point x="492" y="375" type="line" smooth="yes"/>
      <point x="531" y="409"/>
      <point x="561" y="422"/>
      <point x="600" y="422" type="curve" smooth="yes"/>
      <point x="623" y="422" type="line"/>
      <point x="623" y="473" type="line"/>
      <point x="329" y="473" type="line"/>
      <point x="329" y="422" type="line"/>
      <point x="341" y="422" type="line" smooth="yes"/>
      <point x="379" y="422"/>
      <point x="401" y="412"/>
      <point x="401" y="395" type="curve" smooth="yes"/>
      <point x="401" y="382"/>
      <point x="394" y="371"/>
      <point x="376" y="355" type="curve" smooth="yes"/>
      <point x="252" y="246" type="line"/>
    </contour>
    <contour>
      <point x="271" y="-372" type="line"/>
      <point x="372" y="-311"/>
      <point x="423" y="-238"/>
      <point x="423" y="-158" type="curve" smooth="yes"/>
      <point x="423" y="-94"/>
      <point x="386" y="-50"/>
      <point x="331" y="-50" type="curve" smooth="yes"/>
      <point x="283" y="-50"/>
      <point x="245" y="-89"/>
      <point x="245" y="-139" type="curve" smooth="yes"/>
      <point x="245" y="-182"/>
      <point x="278" y="-216"/>
      <point x="321" y="-216" type="curve" smooth="yes"/>
      <point x="323" y="-216"/>
      <point x="326" y="-216"/>
      <point x="329" y="-215" type="curve"/>
      <point x="332" y="-215" type="line" smooth="yes"/>
      <point x="335" y="-215"/>
      <point x="336" y="-217"/>
      <point x="336" y="-220" type="curve" smooth="yes"/>
      <point x="336" y="-254"/>
      <point x="301" y="-299"/>
      <point x="246" y="-336" type="curve"/>
    </contour>
  </outline>
</glyph>
<glyph name="kgreenlandic" format="2">
  <advance width="667"/>
  <unicode hex="0138"/>
  <outline>
    <contour>
      <point x="246" y="146" type="line"/>
      <point x="308" y="201" type="line"/>
      <point x="390" y="101" type="line" smooth="yes"/>
      <point x="398" y="92"/>
      <point x="403" y="80"/>
      <point x="403" y="71" type="curve" smooth="yes"/>
      <point x="403" y="57"/>
      <point x="390" y="51"/>
      <point x="364" y="51" type="curve" smooth="yes"/>
      <point x="354" y="51" type="line"/>
      <point x="354" y="0" type="line"/>
      <point x="660" y="0" type="line"/>
      <point x="660" y="51" type="line"/>
      <point x="625" y="51"/>
      <point x="617" y="57"/>
      <point x="572" y="114" type="curve" smooth="yes"/>
      <point x="425" y="299" type="line"/>
      <point x="515" y="375" type="line" smooth="yes"/>
      <point x="555" y="409"/>
      <point x="585" y="422"/>
      <point x="624" y="422" type="curve" smooth="yes"/>
      <point x="647" y="422" type="line"/>
      <point x="647" y="473" type="line"/>
      <point x="353" y="473" type="line"/>
      <point x="353" y="422" type="line"/>
      <point x="365" y="422" type="line" smooth="yes"/>
      <point x="403" y="422"/>
      <point x="425" y="412"/>
      <point x="425" y="395" type="curve" smooth="yes"/>
      <point x="425" y="382"/>
      <point x="418" y="371"/>
      <point x="399" y="355" type="curve" smooth="yes"/>
      <point x="246" y="220" type="line"/>
      <point x="246" y="330" type="line"/>
      <point x="246" y="385" type="line"/>
      <point x="247" y="399"/>
      <point x="248" y="405"/>
      <point x="252" y="410" type="curve"/>
      <point x="261" y="420"/>
      <point x="279" y="424"/>
      <point x="311" y="424" type="curve"/>
      <point x="311" y="475" type="line"/>
      <point x="21" y="475" type="line"/>
      <point x="21" y="424" type="line"/>
      <point x="25" y="424" type="line" smooth="yes"/>
      <point x="88" y="423"/>
      <point x="97" y="417"/>
      <point x="97" y="381" type="curve" smooth="yes"/>
      <point x="97" y="330" type="line"/>
      <point x="97" y="144" type="line"/>
      <point x="97" y="90" type="line"/>
      <point x="96" y="76"/>
      <point x="95" y="70"/>
      <point x="91" y="64" type="curve" smooth="yes"/>
      <point x="85" y="55"/>
      <point x="67" y="51"/>
      <point x="25" y="51" type="curve" smooth="yes"/>
      <point x="21" y="51" type="line"/>
      <point x="21" y="0" type="line"/>
      <point x="311" y="0" type="line"/>
      <point x="311" y="51" type="line"/>
      <point x="257" y="51"/>
      <point x="245" y="59"/>
      <point x="246" y="94" type="curve" smooth="yes"/>
      <point x="246" y="144" type="line"/>
    </contour>
  </outline>
</glyph>
<glyph name="lacute" format="2">
  <advance width="352"/>
  <unicode hex="013A"/>
  <outline>
    <component base="l"/>
    <contour>
      <point x="94" y="790" type="line"/>
      <point x="157" y="790" type="line"/>
      <point x="304" y="877" type="line" smooth="yes"/>
      <point x="329" y="892"/>
      <point x="341" y="908"/>
      <point x="341" y="929" type="curve" smooth="yes"/>
      <point x="341" y="957"/>
      <point x="316" y="979"/>
      <point x="284" y="979" type="curve" smooth="yes"/>
      <point x="254" y="979"/>
      <point x="241" y="970"/>
      <point x="206" y="928" type="curve" smooth="yes"/>
    </contour>
  </outline>
</glyph>
<glyph name="Lcommaaccent" format="2">
  <advance width="722"/>
  <unicode hex="013B"/>
  <outline>
    <contour>
      <point x="648" y="269" type="line"/>
      <point x="607" y="121"/>
      <point x="536" y="56"/>
      <point x="414" y="54" type="curve" smooth="yes"/>
      <point x="393" y="54" type="line" smooth="yes"/>
      <point x="320" y="52"/>
      <point x="302" y="66"/>
      <point x="303" y="125" type="curve" smooth="yes"/>
      <point x="303" y="578" type="line" smooth="yes"/>
      <point x="303" y="640"/>
      <point x="303" y="643"/>
      <point x="310" y="653" type="curve"/>
      <point x="319" y="664"/>
      <point x="338" y="668"/>
      <point x="393" y="668" type="curve" smooth="yes"/>
      <point x="415" y="668" type="line"/>
      <point x="415" y="722" type="line"/>
      <point x="19" y="722" type="line"/>
      <point x="19" y="668" type="line"/>
      <point x="34" y="668" type="line" smooth="yes"/>
      <point x="88" y="668"/>
      <point x="107" y="664"/>
      <point x="116" y="653" type="curve"/>
      <point x="123" y="643"/>
      <point x="123" y="640"/>
      <point x="123" y="578" type="curve" smooth="yes"/>
      <point x="123" y="145" type="line" smooth="yes"/>
      <point x="123" y="82"/>
      <point x="123" y="79"/>
      <point x="116" y="69" type="curve"/>
      <point x="107" y="58"/>
      <point x="87" y="54"/>
      <point x="34" y="54" type="curve" smooth="yes"/>
      <point x="19" y="54" type="line"/>
      <point x="19" y="0" type="line"/>
      <point x="689" y="0" type="line"/>
      <point x="701" y="269" type="line"/>
    </contour>
    <contour>
      <point x="298" y="-372" type="line"/>
      <point x="399" y="-311"/>
      <point x="450" y="-238"/>
      <point x="450" y="-158" type="curve" smooth="yes"/>
      <point x="450" y="-94"/>
      <point x="413" y="-50"/>
      <point x="359" y="-50" type="curve" smooth="yes"/>
      <point x="311" y="-50"/>
      <point x="273" y="-89"/>
      <point x="273" y="-139" type="curve" smooth="yes"/>
      <point x="273" y="-182"/>
      <point x="306" y="-216"/>
      <point x="348" y="-216" type="curve" smooth="yes"/>
      <point x="350" y="-216"/>
      <point x="353" y="-216"/>
      <point x="356" y="-215" type="curve"/>
      <point x="359" y="-215" type="line" smooth="yes"/>
      <point x="362" y="-215"/>
      <point x="363" y="-217"/>
      <point x="363" y="-220" type="curve" smooth="yes"/>
      <point x="363" y="-254"/>
      <point x="328" y="-299"/>
      <point x="274" y="-336" type="curve"/>
    </contour>
  </outline>
</glyph>
<glyph name="lcommaaccent" format="2">
  <advance width="352"/>
  <unicode hex="013C"/>
  <outline>
    <contour>
      <point x="256" y="737" type="line"/>
      <point x="16" y="722" type="line"/>
      <point x="16" y="671" type="line"/>
      <point x="35" y="671" type="line" smooth="yes"/>
      <point x="96" y="671"/>
      <point x="100" y="666"/>
      <point x="99" y="578" type="curve"/>
      <point x="99" y="144" type="line"/>
      <point x="99" y="97" type="line"/>
      <point x="99" y="90" type="line"/>
      <point x="98" y="76"/>
      <point x="97" y="70"/>
      <point x="93" y="64" type="curve"/>
      <point x="86" y="55"/>
      <point x="67" y="51"/>
      <point x="23" y="51" type="curve" smooth="yes"/>
      <point x="19" y="51" type="line"/>
      <point x="19" y="0" type="line"/>
      <point x="331" y="0" type="line"/>
      <point x="331" y="51" type="line"/>
      <point x="324" y="51" type="line" smooth="yes"/>
      <point x="264" y="53"/>
      <point x="256" y="58"/>
      <point x="256" y="94" type="curve" smooth="yes"/>
      <point x="256" y="144" type="line"/>
    </contour>
    <contour>
      <point x="113" y="-372" type="line"/>
      <point x="214" y="-311"/>
      <point x="265" y="-238"/>
      <point x="265" y="-158" type="curve" smooth="yes"/>
      <point x="265" y="-94"/>
      <point x="228" y="-50"/>
      <point x="174" y="-50" type="curve" smooth="yes"/>
      <point x="126" y="-50"/>
      <point x="88" y="-89"/>
      <point x="88" y="-139" type="curve" smooth="yes"/>
      <point x="88" y="-182"/>
      <point x="121" y="-216"/>
      <point x="163" y="-216" type="curve" smooth="yes"/>
      <point x="165" y="-216"/>
      <point x="168" y="-216"/>
      <point x="171" y="-215" type="curve"/>
      <point x="174" y="-215" type="line" smooth="yes"/>
      <point x="177" y="-215"/>
      <point x="178" y="-217"/>
      <point x="178" y="-220" type="curve" smooth="yes"/>
      <point x="178" y="-254"/>
      <point x="143" y="-299"/>
      <point x="89" y="-336" type="curve"/>
    </contour>
  </outline>
</glyph>
<glyph name="Lcaron" format="2">
  <advance width="722"/>
  <unicode hex="013D"/>
  <outline>
    <contour>
      <point x="648" y="269" type="line"/>
      <point x="607" y="121"/>
      <point x="536" y="56"/>
      <point x="414" y="54" type="curve" smooth="yes"/>
      <point x="393" y="54" type="line" smooth="yes"/>
      <point x="320" y="52"/>
      <point x="302" y="66"/>
      <point x="303" y="125" type="curve" smooth="yes"/>
      <point x="303" y="578" type="line" smooth="yes"/>
      <point x="303" y="640"/>
      <point x="303" y="643"/>
      <point x="310" y="653" type="curve"/>
      <point x="319" y="664"/>
      <point x="338" y="668"/>
      <point x="393" y="668" type="curve" smooth="yes"/>
      <point x="415" y="668" type="line"/>
      <point x="415" y="722" type="line"/>
      <point x="19" y="722" type="line"/>
      <point x="19" y="668" type="line"/>
      <point x="34" y="668" type="line" smooth="yes"/>
      <point x="88" y="668"/>
      <point x="107" y="664"/>
      <point x="116" y="653" type="curve"/>
      <point x="123" y="643"/>
      <point x="123" y="640"/>
      <point x="123" y="578" type="curve" smooth="yes"/>
      <point x="123" y="145" type="line" smooth="yes"/>
      <point x="123" y="82"/>
      <point x="123" y="79"/>
      <point x="116" y="69" type="curve"/>
      <point x="107" y="58"/>
      <point x="87" y="54"/>
      <point x="34" y="54" type="curve" smooth="yes"/>
      <point x="19" y="54" type="line"/>
      <point x="19" y="0" type="line"/>
      <point x="689" y="0" type="line"/>
      <point x="701" y="269" type="line"/>
    </contour>
    <contour>
      <point x="538" y="415" type="line"/>
      <point x="638" y="476"/>
      <point x="690" y="549"/>
      <point x="690" y="629" type="curve" smooth="yes"/>
      <point x="690" y="693"/>
      <point x="653" y="737"/>
      <point x="599" y="737" type="curve" smooth="yes"/>
      <point x="551" y="737"/>
      <point x="513" y="698"/>
      <point x="513" y="648" type="curve" smooth="yes"/>
      <point x="513" y="605"/>
      <point x="546" y="571"/>
      <point x="588" y="571" type="curve" smooth="yes"/>
      <point x="590" y="571"/>
      <point x="593" y="571"/>
      <point x="596" y="572" type="curve"/>
      <point x="599" y="572" type="line" smooth="yes"/>
      <point x="602" y="572"/>
      <point x="603" y="570"/>
      <point x="603" y="567" type="curve" smooth="yes"/>
      <point x="603" y="533"/>
      <point x="568" y="488"/>
      <point x="514" y="452" type="curve"/>
    </contour>
  </outline>
</glyph>
